SplineFontDB: 3.2
FontName: Shobhika-Dravida-T1
FullName: Shobhika Dravida Regular
FamilyName: Shobhika Dravida Regular
Weight: Regular
Copyright: Copyright (c) 2016, IIT Bombay. All rights reserved.
Version: 1.000
ItalicAngle: 0
UnderlinePosition: -100
UnderlineWidth: 50
Ascent: 800
Descent: 200
InvalidEm: 0
sfntRevision: 0x00010ccc
LayerCount: 2
Layer: 0 0 "Back" 1
Layer: 1 0 "Fore" 0
XUID: [1021 404 -636319553 30428]
StyleMap: 0x0040
FSType: 0
OS2Version: 3
OS2_WeightWidthSlopeOnly: 0
OS2_UseTypoMetrics: 0
CreationTime: 1551197557
ModificationTime: 1754259499
PfmFamily: 17
TTFWeight: 400
TTFWidth: 5
LineGap: 0
VLineGap: 0
Panose: 2 11 0 0 0 0 0 0 0 0
OS2TypoAscent: 1130
OS2TypoAOffset: 0
OS2TypoDescent: -600
OS2TypoDOffset: 0
OS2TypoLinegap: 0
OS2WinAscent: 1130
OS2WinAOffset: 0
OS2WinDescent: 600
OS2WinDOffset: 0
HheadAscent: 1130
HheadAOffset: 0
HheadDescent: -600
HheadDOffset: 0
OS2SubXSize: 650
OS2SubYSize: 600
OS2SubXOff: 0
OS2SubYOff: 75
OS2SupXSize: 650
OS2SupYSize: 600
OS2SupXOff: 0
OS2SupYOff: 350
OS2StrikeYSize: 50
OS2StrikeYPos: 300
OS2CapHeight: 700
OS2XHeight: 500
OS2Vendor: 'IITB'
OS2CodePages: 20000097.00000000
OS2UnicodeRanges: a000802f.5000204b.00000000.00000000
Lookup: 4 0 0 "'ccmp' Glyph Composition/Decomposition lookup 0" { "'ccmp' Glyph Composition/Decomposition lookup 0 subtable"  } ['ccmp' ('DFLT' <'dflt' > 'dev2' <'HIN ' 'dflt' > 'deva' <'HIN ' 'dflt' > 'latn' <'dflt' > ) ]
Lookup: 4 0 0 "'nukt' Nukta Forms lookup 1" { "'nukt' Nukta Forms lookup 1 subtable"  } ['nukt' ('DFLT' <'dflt' > 'dev2' <'HIN ' 'dflt' > 'deva' <'HIN ' 'dflt' > 'latn' <'dflt' > ) ]
Lookup: 4 0 0 "'akhn' Akhand lookup 2" { "'akhn' Akhand lookup 2 subtable"  } ['akhn' ('DFLT' <'dflt' > 'dev2' <'HIN ' 'dflt' > 'deva' <'HIN ' 'dflt' > 'latn' <'dflt' > ) ]
Lookup: 4 0 0 "'rphf' Reph Form lookup 3" { "'rphf' Reph Form lookup 3 subtable"  } ['rphf' ('DFLT' <'dflt' > 'dev2' <'HIN ' 'dflt' > 'deva' <'HIN ' 'dflt' > 'latn' <'dflt' > ) ]

StartChar: .notdef
Encoding: 65536 -1 0
Width: 740
GlyphClass: 1
Flags: MW
HStem: 0 21G<50 50 50 700> 680 20G<50 700 700 700>
LayerCount: 2
Fore
SplineSet
50 0 m 1
 50 700 l 1
 700 700 l 1
 700 0 l 1
 50 0 l 1
620 570 m 1
 570 620 l 1
 375 403 l 1
 180 620 l 1
 130 570 l 1
 327 350 l 1
 130 130 l 1
 180 80 l 1
 375 297 l 1
 570 80 l 1
 620 130 l 1
 422 350 l 1
 620 570 l 1
EndSplineSet
Validated: 1
EndChar

StartChar: exclam
Encoding: 33 33 4
Width: 327
GlyphClass: 2
Flags: MW
HStem: -8 131<167 207.5> 681 20G<179.5 194.5>
VStem: 119 137<37.5 77> 142 90<394 690 394 690>
LayerCount: 2
Fore
SplineSet
200 218 m 1xd0
 174 218 l 1
 142 394 l 1
 142 690 l 1
 157 697 172 701 187 701 c 0
 202 701 217 697 232 690 c 1
 232 394 l 1
 200 218 l 1xd0
119 57 m 0xe0
 119 97 147 123 187 123 c 0
 228 123 256 97 256 57 c 0
 256 18 228 -8 187 -8 c 0
 147 -8 119 18 119 57 c 0xe0
EndSplineSet
Validated: 1
EndChar

StartChar: quotedbl
Encoding: 34 34 5
Width: 380
GlyphClass: 2
Flags: MW
HStem: 504 21G<120 120 120 140 240 240 240 260> 680 20G<118.5 140.5 238.5 260.5>
LayerCount: 2
Fore
SplineSet
240 504 m 1
 207 670 l 1
 214 687 227 700 250 700 c 0
 271 700 285 690 292 670 c 1
 260 504 l 1
 240 504 l 1
120 504 m 1
 87 670 l 1
 94 687 107 700 130 700 c 0
 151 700 165 690 172 670 c 1
 140 504 l 1
 120 504 l 1
EndSplineSet
Validated: 1
EndChar

StartChar: numbersign
Encoding: 35 35 6
Width: 533
GlyphClass: 2
Flags: MW
HStem: 58 221<71 123 47 124 71 71 266 318 266 266> 233 46<47 113 33 123 176 308 47 166 370 430> 429 46<97 159 83 170 223 354 97 212 417 480> 429 213<83 262 83 262 212 262 210 354 212 212 406 406 406 457 210 480>
LayerCount: 2
Fore
SplineSet
266 58 m 1xa0
 308 233 l 1
 166 233 l 1x60
 124 58 l 1
 71 58 l 1xa0
 113 233 l 1
 33 233 l 1x60
 47 279 l 1
 123 279 l 1
 159 429 l 1
 83 429 l 1
 97 475 l 1
 170 475 l 1xa0
 210 642 l 1
 262 642 l 1x90
 223 475 l 1
 365 475 l 1xa0
 405 642 l 1
 457 642 l 1x90
 417 475 l 1
 497 475 l 1
 480 429 l 1
 406 429 l 1
 370 279 l 1
 447 279 l 1
 430 233 l 1
 360 233 l 1x60
 318 58 l 1
 266 58 l 1xa0
212 429 m 1xa0
 176 279 l 1
 318 279 l 1
 354 429 l 1
 212 429 l 1xa0
EndSplineSet
Validated: 1
EndChar

StartChar: dollar
Encoding: 36 36 7
Width: 533
GlyphClass: 2
Flags: MW
HStem: -70 21G<239 239 239 291> -12 21G<199.5 239> 740 20G<239 291 291 291>
VStem: 52 90<515 579 515 581> 239 52<-70 -12 -12 -12 45 301 415 659 711 760> 394 90<136 202.5>
LayerCount: 2
Fore
SplineSet
239 -70 m 1
 239 -12 l 1
 160 -12 86 15 59 39 c 1
 62 66 64 133 75 157 c 1
 100 157 l 1
 160 60 l 1
 177 49 207 41 239 40 c 1
 239 325 l 1
 236 325 234 326 233 327 c 2
 201 342 l 2
 124 377 52 424 52 533 c 0
 52 629 130 703 239 711 c 1
 239 760 l 1
 291 760 l 1
 291 711 l 1
 355 707 401 692 436 676 c 1
 435 633 423 607 412 586 c 1
 386 586 l 1
 336 654 l 1
 321 657 310 658 291 659 c 1
 291 392 l 1
 320 379 l 2
 403 339 484 300 484 175 c 0
 484 78 412 6 291 -9 c 1
 291 -70 l 1
 239 -70 l 1
394 168 m 0
 394 237 348 274 291 301 c 1
 291 45 l 1
 351 61 394 104 394 168 c 0
142 551 m 0
 142 479 184 444 239 415 c 1
 239 659 l 1
 179 652 142 607 142 551 c 0
EndSplineSet
Validated: 1
EndChar

StartChar: percent
Encoding: 37 37 8
Width: 807
GlyphClass: 2
Flags: MW
HStem: -11 37<549.5 609 549.5 629.5> 291 38<549 609> 372 37<196.5 256 196.5 276.5> 674 38<196 256>
VStem: 52 84<502 586 502 593.5> 316 84<497.5 586> 405 84<119 203 119 210.5> 669 84<114.5 203>
LayerCount: 2
Fore
SplineSet
91 25 m 1
 675 710 l 1
 710 679 l 1
 125 -7 l 1
 91 25 l 1
52 542 m 0
 52 645 126 712 226 712 c 0
 327 712 400 657 400 542 c 0
 400 438 327 372 226 372 c 0
 126 372 52 427 52 542 c 0
136 542 m 0
 136 462 167 409 226 409 c 0
 286 409 316 453 316 542 c 0
 316 630 286 674 226 674 c 0
 166 674 136 630 136 542 c 0
405 159 m 0
 405 262 479 329 579 329 c 0
 680 329 753 274 753 159 c 0
 753 55 680 -11 579 -11 c 0
 479 -11 405 44 405 159 c 0
489 159 m 0
 489 79 520 26 579 26 c 0
 639 26 669 70 669 159 c 0
 669 247 639 291 579 291 c 0
 519 291 489 247 489 159 c 0
EndSplineSet
Validated: 1
EndChar

StartChar: ampersand
Encoding: 38 38 9
Width: 869
GlyphClass: 2
Flags: MW
HStem: -12 52<338.5 405> 0 21G<697 839 697 697> 480 20G<593 796 796 796> 670 42<328.5 384>
VStem: 118 102<167.5 248.5> 207 75<559 604.5 559 612> 282 153 435 71 506 146
LayerCount: 2
Fore
SplineSet
540 123 m 1xb9
 459 196 344 330 301 392 c 1
 244 336 220 289 220 218 c 0
 220 117 290 40 387 40 c 0
 447 40 500 67 540 123 c 1xb9
282 583 m 0x7a80
 282 535 324 471 359 431 c 1
 407 471 442 522 435 594 c 0
 432 637 410 670 358 670 c 0
 299 670 282 626 282 583 c 0x7a80
839 0 m 1
 697 0 l 1x79
 669 19 625 43 574 92 c 1
 537 42 460 -12 350 -12 c 0
 209 -12 118 81 118 182 c 0xb9
 118 315 228 388 276 423 c 1
 237 466 207 529 207 578 c 0xb5
 207 646 262 712 359 712 c 0
 447 712 506 673 506 601 c 0
 506 512 439 451 380 406 c 1
 435 338 509 265 589 193 c 1
 610 222 660 340 652 450 c 1
 632 454 612 462 593 474 c 1
 593 500 l 1
 796 500 l 1
 796 474 l 1
 778 463 756 455 730 450 c 1
 706 294 650 192 628 159 c 1
 679 118 724 84 784 49 c 1
 839 25 l 1
 839 0 l 1
EndSplineSet
Validated: 33
EndChar

StartChar: quotesingle
Encoding: 39 39 10
Width: 222
GlyphClass: 2
Flags: MW
HStem: 504 21G<120 120 120 140> 680 20G<118.5 140.5>
LayerCount: 2
Fore
SplineSet
120 504 m 1
 87 670 l 1
 94 687 107 700 130 700 c 0
 151 700 165 690 172 670 c 1
 140 504 l 1
 120 504 l 1
EndSplineSet
Validated: 1
EndChar

StartChar: parenleft
Encoding: 40 40 11
Width: 343
GlyphClass: 2
Flags: MW
HStem: -210 21G<300 300> 682 20G<303 303>
VStem: 59 86<143 346 143 352>
LayerCount: 2
Fore
SplineSet
324 -190 m 1
 300 -210 l 1
 164 -111 59 20 59 243 c 0
 59 461 167 590 303 702 c 1
 324 684 l 1
 218 570 145 449 145 243 c 0
 145 43 225 -94 324 -190 c 1
EndSplineSet
Validated: 1
EndChar

StartChar: parenright
Encoding: 41 41 12
Width: 343
GlyphClass: 2
Flags: MW
HStem: -210 21G<43 43> 682 20G<40 40>
VStem: 197 87<153 355.5>
LayerCount: 2
Fore
SplineSet
43 -210 m 1
 19 -190 l 1
 118 -94 197 53 197 253 c 0
 197 458 126 572 19 684 c 1
 40 702 l 1
 176 598 284 473 284 253 c 0
 284 33 183 -110 43 -210 c 1
EndSplineSet
Validated: 1
EndChar

StartChar: asterisk
Encoding: 42 42 13
Width: 465
GlyphClass: 2
Flags: MW
HStem: 377 21G<225 241> 730 20G<223 239>
LayerCount: 2
Fore
SplineSet
187 570 m 1
 62 616 l 1
 54 635 76 677 101 683 c 1
 201 596 l 1
 201 585 198 575 187 570 c 1
201 530 m 1
 100 444 l 1
 80 447 53 490 61 511 c 1
 186 554 l 1
 196 549 201 541 201 530 c 1
250 518 m 1
 271 389 l 1
 264 381 249 377 233 377 c 0
 217 377 202 381 195 388 c 1
 218 518 l 1
 229 523 239 523 250 518 c 1
279 553 m 1
 402 511 l 1
 412 493 386 446 364 444 c 1
 266 528 l 1
 266 540 271 546 279 553 c 1
265 594 m 1
 366 683 l 1
 388 680 411 638 403 615 c 1
 279 568 l 1
 270 575 265 583 265 594 c 1
217 607 m 1
 194 737 l 1
 199 745 215 750 231 750 c 0
 247 750 263 745 270 737 c 1
 248 607 l 1
 238 600 228 600 217 607 c 1
EndSplineSet
Validated: 33
EndChar

StartChar: plus
Encoding: 43 43 14
Width: 533
GlyphClass: 2
Flags: MW
HStem: 102 21G<240 293 240 240> 317 53<42 240 42 240 293 491> 560 20G<240 293 293 293>
VStem: 240 53<102 317 102 317 370 580>
LayerCount: 2
Fore
SplineSet
42 317 m 1
 42 370 l 1
 240 370 l 1
 240 580 l 1
 293 580 l 1
 293 370 l 1
 491 370 l 1
 491 317 l 1
 293 317 l 1
 293 102 l 1
 240 102 l 1
 240 317 l 1
 42 317 l 1
EndSplineSet
Validated: 1
EndChar

StartChar: comma
Encoding: 44 44 15
Width: 283
GlyphClass: 2
Flags: MW
HStem: -179 21G<71 71> 106 20G
LayerCount: 2
Fore
SplineSet
71 -179 m 1
 51 -149 l 1
 102 -130 145 -69 140 -13 c 1
 124 2 93 18 73 25 c 1
 59 76 102 124 129 126 c 1
 176 119 217 86 217 17 c 0
 217 -58 162 -152 71 -179 c 1
EndSplineSet
Validated: 33
EndChar

StartChar: hyphen
Encoding: 45 45 16
Width: 425
GlyphClass: 2
Flags: MW
HStem: 250 63<71 353 71 353>
LayerCount: 2
Fore
SplineSet
71 250 m 1
 71 313 l 1
 353 313 l 1
 353 250 l 1
 71 250 l 1
EndSplineSet
Validated: 1
EndChar

StartChar: period
Encoding: 46 46 17
Width: 279
GlyphClass: 2
Flags: MW
HStem: -8 131<119 159.5>
VStem: 71 137<37.5 77>
LayerCount: 2
Fore
SplineSet
71 57 m 0
 71 97 99 123 139 123 c 0
 180 123 208 97 208 57 c 0
 208 18 180 -8 139 -8 c 0
 99 -8 71 18 71 57 c 0
EndSplineSet
Validated: 1
EndChar

StartChar: slash
Encoding: 47 47 18
Width: 344
GlyphClass: 2
Flags: MW
HStem: -130 21G<4 4> 692 20G<327 327>
LayerCount: 2
Fore
SplineSet
-37 -111 m 1
 327 712 l 1
 369 694 l 1
 4 -130 l 1
 -37 -111 l 1
EndSplineSet
Validated: 1
EndChar

StartChar: zero
Encoding: 48 48 19
Width: 533
GlyphClass: 2
Flags: MW
HStem: -12 41<213.5 312.5 213.5 339.5> 670 42<217 321>
VStem: 35 96<254 460 254 470> 404 96<240 446>
LayerCount: 2
Fore
SplineSet
35 350 m 0
 35 590 118 712 267 712 c 0
 428 712 500 594 500 350 c 0
 500 110 418 -12 261 -12 c 0
 98 -12 35 122 35 350 c 0
131 350 m 0
 131 158 167 29 260 29 c 0
 365 29 404 130 404 350 c 0
 404 542 375 670 267 670 c 0
 167 670 131 570 131 350 c 0
EndSplineSet
Validated: 1
EndChar

StartChar: one
Encoding: 49 49 20
Width: 533
GlyphClass: 2
Flags: MW
HStem: 0 21G<133 425 133 133> 692 20G<300 325 325 325>
VStem: 235 90<63 554 554 554>
LayerCount: 2
Fore
SplineSet
425 29 m 1
 425 0 l 1
 133 0 l 1
 133 29 l 1
 166 44 200 55 235 63 c 1
 235 554 l 1
 239 613 l 1
 202 598 162 593 119 594 c 1
 114 618 l 1
 175 638 244 667 300 712 c 1
 325 712 l 1
 325 63 l 1
 358 55 392 44 425 29 c 1
EndSplineSet
Validated: 33
EndChar

StartChar: two
Encoding: 50 50 21
Width: 533
GlyphClass: 2
Flags: MW
HStem: 0 82<204 376 204 461> 485 20G<108 133 108 108> 660 52<223 274.5>
VStem: 353 94<464 557>
LayerCount: 2
Fore
SplineSet
165 648 m 1
 133 505 l 1
 108 505 l 1
 93 544 77 600 66 647 c 1
 113 687 180 712 256 712 c 0
 389 712 447 631 447 539 c 0
 447 389 291 218 190 119 c 2
 148 80 l 1
 148 76 l 1
 204 82 l 1
 376 82 l 1
 425 194 l 1
 450 194 l 1
 455 136 461 48 461 0 c 1
 48 0 l 1
 48 32 l 1
 137 125 353 348 353 518 c 0
 353 596 312 660 237 660 c 0
 209 660 190 656 165 648 c 1
EndSplineSet
Validated: 1
EndChar

StartChar: three
Encoding: 51 51 22
Width: 533
GlyphClass: 2
Flags: MW
HStem: -12 47<238.5 293 238.5 306.5> 339 68<177 286> 624 76<156 325 156 156>
VStem: 389 96<148.5 239.5>
LayerCount: 2
Fore
SplineSet
256 35 m 0
 330 35 389 107 389 190 c 0
 389 289 324 339 242 339 c 2
 177 339 l 1
 177 366 l 1
 345 591 l 1
 379 626 l 1
 379 630 l 1
 325 624 l 1
 156 624 l 1
 117 522 l 1
 92 522 l 1
 81 578 71 653 71 700 c 1
 462 700 l 1
 462 669 l 1
 295 446 l 1
 252 402 l 1
 252 400 l 1
 286 407 l 1
 411 402 485 318 485 207 c 0
 485 74 370 -12 243 -12 c 0
 182 -12 99 8 60 39 c 1
 88 129 l 1
 108 129 l 1
 124 110 167 67 188 43 c 1
 201 40 221 35 256 35 c 0
EndSplineSet
Validated: 1
EndChar

StartChar: four
Encoding: 52 52 23
Width: 533
GlyphClass: 2
Flags: MW
HStem: 0 245<217 309 401 477 217 217> 193 52<141 309 141 309 401 528> 692 20G<374 401 401 401>
VStem: 309 92<53 193 53 193 245 502 502 502>
LayerCount: 2
Fore
SplineSet
477 29 m 1x70
 477 0 l 1
 217 0 l 1xb0
 217 29 l 1
 250 40 280 48 309 53 c 1
 309 193 l 1
 4 193 l 1
 4 216 l 1
 374 712 l 1
 401 712 l 1
 401 245 l 1
 528 245 l 1
 528 193 l 1
 401 193 l 1
 401 53 l 1
 427 48 452 40 477 29 c 1x70
309 245 m 1
 309 502 l 1
 320 574 l 1
 317 574 l 1
 278 502 l 1
 110 271 l 1
 70 238 l 1
 141 245 l 1
 309 245 l 1
EndSplineSet
Validated: 1
EndChar

StartChar: five
Encoding: 53 53 24
Width: 533
GlyphClass: 2
Flags: MW
HStem: -12 47<208 264 208 280.5> 354 74<181 181> 621 79<190 388 150 436 190 190> 735 20G<431 456 456 456>
VStem: 370 86<155 254.5>
LayerCount: 2
Fore
SplineSet
388 700 m 1
 431 755 l 1
 456 755 l 1
 453 716 447 651 436 621 c 1
 190 621 l 1
 166 428 l 1
 231 428 l 2
 364 428 456 354 456 223 c 0
 456 68 340 -12 221 -12 c 0
 167 -12 94 9 56 39 c 1
 85 129 l 1
 105 129 l 1
 121 110 154 67 175 43 c 1
 188 40 196 35 220 35 c 0
 308 35 370 109 370 201 c 0
 370 308 283 357 181 354 c 2
 110 353 l 1
 150 700 l 1
 388 700 l 1
EndSplineSet
Validated: 33
EndChar

StartChar: six
Encoding: 54 54 25
Width: 533
GlyphClass: 2
Flags: MW
HStem: -12 46<238 327.5 238 346.5> 364 52<267 316.5> 698 20G<419 419>
VStem: 49 96<183 232.5 183 374.5> 406 96<161 250.5>
LayerCount: 2
Fore
SplineSet
502 211 m 0
 502 88 413 -12 280 -12 c 0
 131 -12 49 98 49 250 c 0
 49 499 228 676 419 718 c 1
 430 688 l 1
 290 638 167 512 151 344 c 1
 172 380 231 416 303 416 c 0
 419 416 502 341 502 211 c 0
406 203 m 0
 406 298 358 364 275 364 c 0
 212 364 166 327 147 288 c 1
 144 269 145 240 145 225 c 0
 145 141 191 34 285 34 c 0
 370 34 406 119 406 203 c 0
EndSplineSet
Validated: 33
EndChar

StartChar: seven
Encoding: 55 55 26
Width: 533
GlyphClass: 2
Flags: MW
HStem: 0 21G<165 265 165 165> 623 77<150 150 150 362>
LayerCount: 2
Fore
SplineSet
150 623 m 1
 111 521 l 1
 86 521 l 1
 75 578 65 653 65 700 c 1
 479 700 l 1
 479 671 l 1
 346 435 311 289 265 0 c 1
 165 0 l 1
 214 195 288 385 384 580 c 1
 414 628 l 1
 362 623 l 1
 150 623 l 1
EndSplineSet
Validated: 1
EndChar

StartChar: eight
Encoding: 56 56 27
Width: 533
GlyphClass: 2
Flags: MW
HStem: -12 46<221 312 221 334> 665 47<235.5 303>
VStem: 49 86<136.5 194 136.5 203> 76 86<509.5 579 509.5 588.5> 374 85<514.5 577.5> 397 88<124.5 198.5>
LayerCount: 2
Fore
SplineSet
49 157 m 0xe4
 49 249 117 319 210 351 c 1
 135 391 76 447 76 537 c 0
 76 640 153 712 273 712 c 0
 390 712 459 646 459 553 c 0xd8
 459 476 403 417 322 380 c 1
 415 332 485 263 485 170 c 0
 485 71 406 -12 262 -12 c 0
 115 -12 49 69 49 157 c 0xe4
397 153 m 0
 397 244 319 295 235 336 c 1
 159 291 135 219 135 169 c 0
 135 104 172 34 270 34 c 0
 354 34 397 96 397 153 c 0
162 550 m 0
 162 469 228 428 298 393 c 1
 354 438 374 481 374 536 c 0
 374 619 335 665 271 665 c 0
 200 665 162 608 162 550 c 0
EndSplineSet
Validated: 1
EndChar

StartChar: nine
Encoding: 57 57 28
Width: 533
GlyphClass: 2
Flags: MW
HStem: -12 21G<148 148> 283 52<233 289> 665 47<226 314.5>
VStem: 47 96<449.5 542.5 449.5 552> 401 94<448.5 504.5>
LayerCount: 2
Fore
SplineSet
47 487 m 0
 47 617 126 712 270 712 c 0
 426 712 495 605 495 441 c 0
 495 193 343 12 148 -12 c 1
 130 17 l 1
 287 60 372 188 393 340 c 1
 362 308 325 283 253 283 c 0
 133 283 47 356 47 487 c 0
143 488 m 0
 143 411 193 335 273 335 c 0
 337 335 379 360 399 393 c 1
 402 410 401 441 401 456 c 0
 401 553 363 665 266 665 c 0
 186 665 143 597 143 488 c 0
EndSplineSet
Validated: 33
EndChar

StartChar: colon
Encoding: 58 58 29
Width: 327
GlyphClass: 2
Flags: MW
HStem: -8 131<167 207.5> 377 131<167 207.5>
VStem: 119 137<37.5 77 422.5 462>
LayerCount: 2
Fore
SplineSet
119 442 m 0
 119 482 147 508 187 508 c 0
 228 508 256 482 256 442 c 0
 256 403 228 377 187 377 c 0
 147 377 119 403 119 442 c 0
119 57 m 0
 119 97 147 123 187 123 c 0
 228 123 256 97 256 57 c 0
 256 18 228 -8 187 -8 c 0
 147 -8 119 18 119 57 c 0
EndSplineSet
Validated: 1
EndChar

StartChar: semicolon
Encoding: 59 59 30
Width: 332
GlyphClass: 2
Flags: MW
HStem: -179 21G<124 124> 377 131<172 212.5>
VStem: 124 137<422.5 462>
LayerCount: 2
Fore
SplineSet
124 442 m 0
 124 482 152 508 192 508 c 0
 233 508 261 482 261 442 c 0
 261 403 233 377 192 377 c 0
 152 377 124 403 124 442 c 0
124 -179 m 1
 104 -149 l 1
 155 -130 198 -69 193 -13 c 1
 177 2 146 18 126 25 c 1
 112 76 155 124 182 126 c 1
 229 119 270 86 270 17 c 0
 270 -58 215 -152 124 -179 c 1
EndSplineSet
Validated: 33
EndChar

StartChar: less
Encoding: 60 60 31
Width: 533
GlyphClass: 2
Flags: MW
HStem: 103 21G<428 428> 570 20G<429 429>
LayerCount: 2
Fore
SplineSet
428 103 m 1
 44 324 l 1
 44 355 l 1
 429 590 l 1
 454 546 l 1
 204 395 l 1
 118 355 l 1
 203 324 l 1
 468 168 l 1
 428 103 l 1
EndSplineSet
Validated: 1
EndChar

StartChar: equal
Encoding: 61 61 32
Width: 533
GlyphClass: 2
Flags: MW
HStem: 237 53<42 492 42 492> 397 53<42 492 42 492>
LayerCount: 2
Fore
SplineSet
42 397 m 1
 42 450 l 1
 492 450 l 1
 492 397 l 1
 42 397 l 1
42 237 m 1
 42 290 l 1
 492 290 l 1
 492 237 l 1
 42 237 l 1
EndSplineSet
Validated: 1
EndChar

StartChar: greater
Encoding: 62 62 33
Width: 533
GlyphClass: 2
Flags: MW
HStem: 103 21G<105 105> 570 20G<106 106>
LayerCount: 2
Fore
SplineSet
106 590 m 1
 490 369 l 1
 490 338 l 1
 105 103 l 1
 81 147 l 1
 331 298 l 1
 417 338 l 1
 332 369 l 1
 67 525 l 1
 106 590 l 1
EndSplineSet
Validated: 1
EndChar

StartChar: question
Encoding: 63 63 34
Width: 473
GlyphClass: 2
Flags: MW
HStem: -8 131<191 231.5> 660 52<216 269.5>
VStem: 143 137<37.5 77> 188 27<227.5 264 180 309> 342 96<475.5 568.5>
LayerCount: 2
Fore
SplineSet
150 642 m 1xd8
 127 519 l 1
 102 519 l 1
 91 555 75 618 70 670 c 1
 121 701 174 712 258 712 c 0
 377 712 438 642 438 549 c 0
 438 368 215 348 215 180 c 1
 195 180 l 1
 190 199 188 218 188 237 c 0
 188 381 342 412 342 539 c 0
 342 598 309 660 230 660 c 0
 187 660 161 653 150 642 c 1xd8
143 57 m 0xe8
 143 97 171 123 211 123 c 0
 252 123 280 97 280 57 c 0
 280 18 252 -8 211 -8 c 0
 171 -8 143 18 143 57 c 0xe8
EndSplineSet
Validated: 1
EndChar

StartChar: at
Encoding: 64 64 35
Width: 1064
GlyphClass: 2
Flags: MW
HStem: -180 52<430 559> 5 52<699 764.5 699 774.5> 446 51<526 591 496.5 594.5> 660 52<428 652.5>
VStem: 94 57<124 358.5 124 381.5> 302 90<137 228.5 137 242.5> 921 57<243 428>
LayerCount: 2
Fore
SplineSet
669 474 m 1
 694 485 719 491 744 490 c 1
 693 204 l 2
 677 116 677 57 721 57 c 0
 808 57 921 160 921 326 c 0
 921 530 755 660 550 660 c 0
 306 660 151 475 151 242 c 0
 151 6 314 -128 546 -128 c 0
 585 -128 639 -119 679 -100 c 1
 695 -144 l 1
 648 -171 593 -180 525 -180 c 0
 296 -180 94 -41 94 236 c 0
 94 527 299 712 555 712 c 0
 796 712 978 568 978 326 c 0
 978 154 848 5 701 5 c 0
 621 5 587 54 617 183 c 1
 613 183 l 1
 584 99 504 5 427 5 c 0
 347 5 302 65 302 157 c 0
 302 328 426 497 567 497 c 0
 615 497 637 489 669 474 c 1
627 277 m 1
 652 426 l 1
 631 439 612 446 577 446 c 0
 475 446 392 288 392 169 c 0
 392 105 408 67 464 67 c 0
 515 67 584 176 627 277 c 1
EndSplineSet
Validated: 33
EndChar

StartChar: A
Encoding: 65 65 36
Width: 683
GlyphClass: 2
Flags: MW
HStem: 0 21G<0 222 0 0 427 427 427 683> 236 52<222 424 222 441 202 424> 692 20G<325 354 354 354>
LayerCount: 2
Fore
SplineSet
222 29 m 1
 222 0 l 1
 0 0 l 1
 0 29 l 1
 24 40 48 48 72 53 c 1
 325 712 l 1
 354 712 l 1
 607 53 l 1
 634 48 660 42 683 29 c 1
 683 0 l 1
 427 0 l 1
 427 29 l 1
 454 40 482 48 509 53 c 1
 441 236 l 1
 202 236 l 1
 136 53 l 1
 164 49 193 41 222 29 c 1
299 498 m 1
 222 288 l 1
 424 288 l 1
 345 500 l 1
 326 586 l 1
 324 586 l 1
 299 498 l 1
EndSplineSet
Validated: 1
EndChar

StartChar: B
Encoding: 66 66 37
Width: 615
GlyphClass: 2
Flags: MW
HStem: -6 52<268 344.5 268 355.5> 0 21G<29 125 29 29> 330 52<201 251 251 262.5 201 276 201 251> 654 52<269.5 334> 680 20G<29 135 135 160.5>
VStem: 111 90<54 330 382 646 646 646> 435 96<505.5 566> 466 65 466 96<151 248>
LayerCount: 2
Fore
SplineSet
125 0 m 2x76
 29 0 l 1
 29 29 l 1
 56 42 83 50 111 53 c 1
 111 646 l 1
 84 651 56 660 29 671 c 1
 29 700 l 1
 135 700 l 2x6e
 186 700 224 706 299 706 c 0
 407 706 531 679 531 540 c 0xb5
 531 471 489 396 398 375 c 1
 398 371 l 1
 478 358 562 310 562 199 c 0
 562 54 422 -6 289 -6 c 0xb480
 242 -6 180 0 125 0 c 2x76
296 46 m 0xb5
 393 46 466 108 466 194 c 0
 466 302 376 330 276 330 c 2
 201 330 l 1
 201 54 l 1
 220 49 240 46 296 46 c 0xb5
201 382 m 1
 251 382 l 2
 274 382 310 384 330 387 c 0
 391 408 435 458 435 522 c 0xb6
 435 610 378 654 290 654 c 0
 249 654 220 653 201 650 c 1
 201 382 l 1
EndSplineSet
Validated: 1
EndChar

StartChar: C
Encoding: 67 67 38
Width: 644
GlyphClass: 2
Flags: MW
HStem: -12 52<333.5 438 333.5 438> 486 20G<537 563 537 537> 660 52<332 414.5>
VStem: 53 99<255 456 255 480>
LayerCount: 2
Fore
SplineSet
500 58 m 1
 547 182 l 1
 573 182 l 1
 580 145 587 82 584 29 c 1
 545 -2 467 -12 409 -12 c 0
 186 -12 53 99 53 350 c 0
 53 610 208 712 388 712 c 0
 476 712 533 701 578 678 c 1
 578 636 571 556 563 506 c 1
 537 506 l 1
 485 650 l 1
 470 658 431 660 398 660 c 0
 266 660 152 562 152 350 c 0
 152 160 251 40 416 40 c 0
 460 40 491 47 500 58 c 1
EndSplineSet
Validated: 33
EndChar

StartChar: D
Encoding: 68 68 39
Width: 708
GlyphClass: 2
Flags: MW
HStem: -9 52<287 386.5 287 410> 0 21G<29 125 29 29> 656 52<283 385.5> 680 20G<29 131 131 153>
VStem: 111 90<53 646 646 646> 549 107<275.5 424.5>
LayerCount: 2
Fore
SplineSet
125 0 m 2x6c
 29 0 l 1
 29 29 l 1
 52 40 80 48 111 53 c 1
 111 646 l 1
 80 653 52 662 29 671 c 1
 29 700 l 1
 131 700 l 2x5c
 175 700 263 708 303 708 c 0
 530 708 656 582 656 359 c 0
 656 148 538 -9 282 -9 c 0xac
 243 -9 176 0 125 0 c 2x6c
289 656 m 0xac
 254 656 220 656 201 652 c 1
 201 46 l 1
 214 43 279 43 295 43 c 0
 478 43 549 192 549 359 c 0
 549 490 482 656 289 656 c 0xac
EndSplineSet
Validated: 1
EndChar

StartChar: E
Encoding: 69 69 40
Width: 582
GlyphClass: 2
Flags: MW
HStem: 0 52<207 437 207 522> 331 52<207 370 207 370> 648 52<207 425 207 207>
VStem: 111 96<53 331 383 646 646 646>
LayerCount: 2
Fore
SplineSet
29 700 m 1
 503 700 l 1
 502 647 499 593 492 538 c 1
 466 538 l 1
 425 648 l 1
 207 648 l 1
 207 383 l 1
 370 383 l 1
 409 457 l 1
 434 457 l 1
 438 391 438 324 434 255 c 1
 409 255 l 1
 370 331 l 1
 207 331 l 1
 207 52 l 1
 437 52 l 1
 486 172 l 1
 511 172 l 1
 520 116 525 59 522 0 c 1
 29 0 l 1
 29 29 l 1
 52 40 80 48 111 53 c 1
 111 646 l 1
 84 651 56 660 29 671 c 1
 29 700 l 1
EndSplineSet
Validated: 33
EndChar

StartChar: F
Encoding: 70 70 41
Width: 544
GlyphClass: 2
Flags: MW
HStem: 0 21G<29 283 29 29> 312 51<197 370 197 370> 648 52<197 420 197 197>
VStem: 101 96<53 312 53 363 363 646 646 646>
LayerCount: 2
Fore
SplineSet
197 312 m 1
 197 53 l 1
 226 49 255 41 283 29 c 1
 283 0 l 1
 29 0 l 1
 29 29 l 1
 52 40 76 48 101 53 c 1
 101 646 l 1
 72 653 48 662 29 671 c 1
 29 700 l 1
 498 700 l 1
 497 648 494 593 487 538 c 1
 461 538 l 1
 420 648 l 1
 197 648 l 1
 197 363 l 1
 370 363 l 1
 411 437 l 1
 434 437 l 1
 437 406 438 372 438 337 c 0
 438 301 437 266 434 235 c 1
 411 235 l 1
 370 312 l 1
 197 312 l 1
EndSplineSet
Validated: 1
EndChar

StartChar: G
Encoding: 71 71 42
Width: 688
GlyphClass: 2
Flags: MW
HStem: -12 52<335 433> 486 20G<539 565 539 539> 660 52<332.5 415.5>
VStem: 53 99<256 456 256 481> 522 87<75 277 48 277>
LayerCount: 2
Fore
SplineSet
609 277 m 1
 609 48 l 1
 559 19 466 -12 400 -12 c 0
 188 -12 53 100 53 350 c 0
 53 612 220 712 389 712 c 0
 477 712 535 701 580 678 c 1
 580 638 573 554 565 506 c 1
 539 506 l 1
 487 650 l 1
 472 658 432 660 399 660 c 0
 266 660 152 562 152 350 c 0
 152 162 263 40 407 40 c 0
 461 40 512 65 522 75 c 1
 522 277 l 1
 487 280 457 290 426 301 c 1
 426 330 l 1
 671 330 l 1
 671 301 l 1
 658 292 641 284 609 277 c 1
EndSplineSet
Validated: 1
EndChar

StartChar: H
Encoding: 72 72 43
Width: 728
GlyphClass: 2
Flags: MW
HStem: 0 21G<29 282 29 29 446 446 446 699> 333 52<207 521 207 521> 680 20G<29 282 282 282 446 699 699 699>
VStem: 111 96<53 333 385 646> 521 96<53 333 333 333 385 646 53 646>
LayerCount: 2
Fore
SplineSet
282 29 m 1
 282 0 l 1
 29 0 l 1
 29 29 l 1
 56 40 83 48 111 53 c 1
 111 646 l 1
 80 651 52 659 29 671 c 1
 29 700 l 1
 282 700 l 1
 282 671 l 1
 259 659 234 651 207 646 c 1
 207 385 l 1
 521 385 l 1
 521 646 l 1
 493 653 469 660 446 671 c 1
 446 700 l 1
 699 700 l 1
 699 671 l 1
 675 658 645 651 617 646 c 1
 617 53 l 1
 648 48 676 40 699 29 c 1
 699 0 l 1
 446 0 l 1
 446 29 l 1
 470 40 495 48 521 53 c 1
 521 333 l 1
 207 333 l 1
 207 53 l 1
 234 48 259 40 282 29 c 1
EndSplineSet
Validated: 1
EndChar

StartChar: I
Encoding: 73 73 44
Width: 352
GlyphClass: 2
Flags: MW
HStem: 0 21G<48 304 48 48> 680 20G<48 304 304 304>
VStem: 128 96<53 646 53 646>
LayerCount: 2
Fore
SplineSet
304 29 m 1
 304 0 l 1
 48 0 l 1
 48 29 l 1
 74 41 101 49 128 53 c 1
 128 646 l 1
 101 651 75 660 48 671 c 1
 48 700 l 1
 304 700 l 1
 304 671 l 1
 280 660 251 651 224 646 c 1
 224 53 l 1
 252 48 281 40 304 29 c 1
EndSplineSet
Validated: 1
EndChar

StartChar: J
Encoding: 74 74 45
Width: 341
GlyphClass: 2
Flags: MW
HStem: -160 21G<63 63> 680 20G<39 293 293 293>
VStem: 121 96<75 86 86 646>
LayerCount: 2
Fore
SplineSet
39 671 m 1
 39 700 l 1
 293 700 l 1
 293 671 l 1
 269 660 244 651 217 646 c 1
 217 86 l 2
 217 -99 121 -147 63 -160 c 1
 52 -145 l 1
 92 -110 121 -64 121 75 c 2
 121 646 l 1
 92 653 63 660 39 671 c 1
EndSplineSet
Validated: 1
EndChar

StartChar: K
Encoding: 75 75 46
Width: 646
GlyphClass: 2
Flags: MW
HStem: 0 21G<29 282 29 29 521 646 521 521> 680 20G<29 282 282 282 382 603 603 603>
VStem: 111 96<53 335 53 369 369 646>
LayerCount: 2
Fore
SplineSet
382 671 m 1
 382 700 l 1
 603 700 l 1
 603 671 l 1
 576 659 551 651 527 646 c 1
 326 380 l 1
 393 291 502 156 598 49 c 1
 646 25 l 1
 646 0 l 1
 521 0 l 1
 487 24 l 1
 408 116 329 226 256 335 c 1
 207 335 l 1
 207 53 l 1
 238 48 263 40 282 29 c 1
 282 0 l 1
 29 0 l 1
 29 29 l 1
 56 40 83 48 111 53 c 1
 111 646 l 1
 81 650 54 658 29 671 c 1
 29 700 l 1
 282 700 l 1
 282 671 l 1
 261 662 235 653 207 646 c 1
 207 369 l 1
 267 383 l 1
 454 646 l 1
 427 653 403 660 382 671 c 1
EndSplineSet
Validated: 1
EndChar

StartChar: L
Encoding: 76 76 47
Width: 549
GlyphClass: 2
Flags: MW
HStem: 0 52<207 437 207 532> 680 20G<29 303 303 303>
VStem: 111 96<53 646 52 646>
LayerCount: 2
Fore
SplineSet
29 671 m 1
 29 700 l 1
 303 700 l 1
 303 671 l 1
 271 659 239 650 207 646 c 1
 207 52 l 1
 437 52 l 1
 496 213 l 1
 522 213 l 1
 530 157 535 58 532 0 c 1
 29 0 l 1
 29 29 l 1
 61 44 87 49 111 53 c 1
 111 646 l 1
 80 651 52 660 29 671 c 1
EndSplineSet
Validated: 33
EndChar

StartChar: M
Encoding: 77 77 48
Width: 867
GlyphClass: 2
Flags: MW
HStem: 0 21G<30 239 30 30 402 428 402 402 589 837 589 589> 680 20G<29 234 234 234 657 838 838 838>
VStem: 111 52<54 503 53 646> 670 92<53 503 503 503>
LayerCount: 2
Fore
SplineSet
837 29 m 1
 837 0 l 1
 589 0 l 1
 589 29 l 1
 616 40 642 46 670 53 c 1
 670 503 l 1
 674 620 l 1
 666 620 l 1
 633 513 l 1
 428 0 l 1
 402 0 l 1
 207 513 l 1
 171 630 l 1
 162 630 l 1
 163 503 l 1
 163 53 l 1
 188 48 214 40 239 29 c 1
 239 0 l 1
 30 0 l 1
 30 29 l 1
 55 40 83 49 111 54 c 1
 111 646 l 1
 83 651 56 660 29 671 c 1
 29 700 l 1
 234 700 l 1
 408 243 l 1
 442 140 l 1
 443 140 l 1
 477 245 l 1
 657 700 l 1
 838 700 l 1
 838 671 l 1
 814 660 789 651 762 646 c 1
 762 52 l 1
 790 47 814 40 837 29 c 1
EndSplineSet
Validated: 1
EndChar

StartChar: N
Encoding: 78 78 49
Width: 732
GlyphClass: 2
Flags: MW
HStem: -12 21G<564 621 564 564> 0 21G<29 245 29 29> 680 20G<35 204 204 204 487 703 703 703>
VStem: 111 57<64 539 64 637> 564 57<-12 631 225 631 -12 631>
LayerCount: 2
Fore
SplineSet
487 671 m 1x78
 487 700 l 1
 703 700 l 1
 703 671 l 1
 675 652 648 639 621 631 c 1
 621 -12 l 1
 564 -12 l 1xb8
 201 539 l 1
 162 617 l 1
 159 617 l 1
 168 539 l 1
 168 64 l 1
 195 57 221 45 245 29 c 1
 245 0 l 1
 29 0 l 1
 29 29 l 1
 53 44 80 55 111 64 c 1
 111 637 l 1
 84 648 58 660 35 672 c 1
 35 700 l 1
 204 700 l 1
 519 225 l 1
 565 139 l 1
 569 139 l 1
 564 225 l 1
 564 631 l 1
 536 643 510 656 487 671 c 1x78
EndSplineSet
Validated: 1
EndChar

StartChar: O
Encoding: 79 79 50
Width: 740
GlyphClass: 2
Flags: MW
HStem: -12 52<305 447 305 470> 660 52<288.5 436.5>
VStem: 53 107<264.5 435.5 264.5 454.5> 580 107<264.5 435.5>
LayerCount: 2
Fore
SplineSet
53 350 m 0
 53 559 170 712 370 712 c 0
 570 712 687 559 687 350 c 0
 687 141 570 -12 370 -12 c 0
 170 -12 53 141 53 350 c 0
160 350 m 0
 160 179 231 40 379 40 c 0
 515 40 580 179 580 350 c 0
 580 521 511 660 362 660 c 0
 215 660 160 521 160 350 c 0
EndSplineSet
Validated: 1
EndChar

StartChar: P
Encoding: 80 80 51
Width: 596
GlyphClass: 2
Flags: MW
HStem: 0 21G<29 303 29 29> 270 52<277.5 324 270.5 353.5> 656 52<267.5 329.5> 680 20G<29 119 119 145.5>
VStem: 111 96<53 274 53 327 327 646 646 646> 450 107<432 546.5>
LayerCount: 2
Fore
SplineSet
207 274 m 1xec
 207 53 l 1
 243 49 275 40 303 29 c 1
 303 0 l 1
 29 0 l 1
 29 29 l 1
 56 42 84 48 111 53 c 1
 111 646 l 1
 80 651 54 660 29 671 c 1
 29 700 l 1
 119 700 l 2xdc
 172 700 239 708 296 708 c 0
 427 708 557 657 557 492 c 0
 557 335 423 270 284 270 c 0
 271 270 221 271 207 274 c 1xec
275 656 m 0xec
 243 656 226 655 207 651 c 1
 207 327 l 1
 220 322 263 322 278 322 c 0
 370 322 450 372 450 492 c 0
 450 601 384 656 275 656 c 0xec
EndSplineSet
Validated: 1
EndChar

StartChar: Q
Encoding: 81 81 52
Width: 740
GlyphClass: 2
Flags: MW
HStem: -201 82<573.5 588> -201 158 -12 52<305 447 305 470> 660 52<288.5 436.5>
VStem: 53 107<264.5 435.5 264.5 454.5> 580 107<264.5 435.5>
LayerCount: 2
Fore
SplineSet
755 -101 m 1xbc
 760 -115 l 1
 707 -163 652 -202 588 -201 c 0
 479 -201 350 -111 173 -66 c 1
 203 -46 l 1
 218 -44 232 -43 246 -43 c 0x7c
 379 -43 504 -119 643 -119 c 0
 679 -119 716 -114 755 -101 c 1xbc
53 350 m 0
 53 559 170 712 370 712 c 0
 570 712 687 559 687 350 c 0
 687 141 570 -12 370 -12 c 0
 170 -12 53 141 53 350 c 0
160 350 m 0
 160 179 231 40 379 40 c 0
 515 40 580 179 580 350 c 0
 580 521 511 660 362 660 c 0
 215 660 160 521 160 350 c 0
EndSplineSet
Validated: 33
EndChar

StartChar: R
Encoding: 82 82 53
Width: 637
GlyphClass: 2
Flags: MW
HStem: 0 21G<29 292 29 29 506 506 506 627> 310 42<207 279 207 279 279 301> 656 52<267 320.5> 680 20G<29 117 117 143.5>
VStem: 111 96<53 310 53 352 352 646 646 646> 429 99<464 561.5>
LayerCount: 2
Fore
SplineSet
207 310 m 1xec
 207 53 l 1
 238 46 265 40 292 29 c 1
 292 0 l 1
 29 0 l 1
 29 29 l 1
 58 42 84 48 111 53 c 1
 111 646 l 1
 76 653 50 662 29 671 c 1
 29 700 l 1
 117 700 l 2xdc
 170 700 237 708 297 708 c 0
 429 708 528 651 528 512 c 0
 528 415 473 350 385 322 c 1
 442 231 505 142 573 54 c 1
 627 25 l 1
 627 0 l 1
 506 0 l 1
 468 28 l 1
 393 122 348 204 301 310 c 1
 207 310 l 1xec
275 656 m 0xec
 243 656 224 655 207 651 c 1
 207 352 l 1
 279 352 l 2
 371 352 429 416 429 512 c 0
 429 611 366 656 275 656 c 0xec
EndSplineSet
Validated: 1
EndChar

StartChar: S
Encoding: 83 83 54
Width: 536
GlyphClass: 2
Flags: MW
HStem: -12 52<212.5 280.5 212.5 318> 487 20G<410 436 410 410> 660 52<232 286.5>
VStem: 61 92<469.5 586 469.5 588.5> 391 93<127 247.5>
LayerCount: 2
Fore
SplineSet
109 216 m 1
 150 69 l 1
 166 53 187 40 238 40 c 0
 323 40 391 87 391 167 c 0
 391 328 61 300 61 533 c 0
 61 644 145 712 269 712 c 0
 350 712 421 698 460 679 c 1
 460 634 446 551 436 507 c 1
 410 507 l 1
 370 644 l 1
 346 655 307 660 266 660 c 0
 198 660 153 620 153 552 c 0
 153 387 484 407 484 187 c 0
 484 66 394 -12 242 -12 c 0
 158 -12 86 12 58 35 c 1
 61 80 72 171 83 216 c 1
 109 216 l 1
EndSplineSet
Validated: 1
EndChar

StartChar: T
Encoding: 84 84 55
Width: 619
GlyphClass: 2
Flags: MW
HStem: 0 21G<169 450 169 169> 485 20G<31 56 31 31 563 563 563 589> 648 52<109 262 109 109 358 358 358 511>
VStem: 262 96<53 648 53 648>
LayerCount: 2
Fore
SplineSet
450 29 m 1
 450 0 l 1
 169 0 l 1
 169 29 l 1
 198 40 227 48 262 53 c 1
 262 648 l 1
 109 648 l 1
 56 505 l 1
 31 505 l 1
 23 558 19 647 19 700 c 1
 600 700 l 1
 600 647 597 560 589 505 c 1
 563 505 l 1
 511 648 l 1
 358 648 l 1
 358 53 l 1
 393 46 422 41 450 29 c 1
EndSplineSet
Validated: 1
EndChar

StartChar: U
Encoding: 85 85 56
Width: 672
GlyphClass: 2
Flags: MW
HStem: -9 60<306 413.5 306 419.5> 680 20G<10 264 264 264 449 662 662 662>
VStem: 92 96<221 237 237 646> 528 56<238 637>
LayerCount: 2
Fore
SplineSet
10 671 m 1
 10 700 l 1
 264 700 l 1
 264 671 l 1
 239 660 213 653 188 646 c 1
 188 237 l 2
 188 97 251 51 361 51 c 0
 466 51 528 105 528 238 c 2
 528 637 l 1
 497 648 470 659 449 671 c 1
 449 700 l 1
 662 700 l 1
 662 671 l 1
 637 656 611 644 584 637 c 1
 584 236 l 2
 584 66 490 -9 349 -9 c 0
 182 -9 92 65 92 221 c 2
 92 646 l 1
 65 650 37 658 10 671 c 1
EndSplineSet
Validated: 1
EndChar

StartChar: V
Encoding: 86 86 57
Width: 684
GlyphClass: 2
Flags: MW
HStem: -12 21G<331 331> 680 20G<0 265 265 265 459 684 684 684>
LayerCount: 2
Fore
SplineSet
397 191 m 1
 545 646 l 1
 513 653 486 662 459 671 c 1
 459 700 l 1
 684 700 l 1
 684 671 l 1
 665 660 641 652 612 646 c 1
 386 0 l 1
 331 -12 l 1
 76 646 l 1
 49 653 24 662 0 671 c 1
 0 700 l 1
 265 700 l 1
 265 671 l 1
 242 662 214 653 183 646 c 1
 354 189 l 1
 375 109 l 1
 377 109 l 1
 397 191 l 1
EndSplineSet
Validated: 1
EndChar

StartChar: W
Encoding: 87 87 58
Width: 934
GlyphClass: 2
Flags: MW
HStem: -12 21G<253 253 633 633> 680 20G<0 260 260 260 471 505 505 505 710 934 934 934>
LayerCount: 2
Fore
SplineSet
704 247 m 1
 796 646 l 1
 768 650 741 659 710 671 c 1
 710 700 l 1
 934 700 l 1
 934 671 l 1
 911 661 887 653 862 646 c 1
 695 0 l 1
 633 -12 l 1
 472 532 l 1
 314 0 l 1
 253 -12 l 1
 76 646 l 1
 49 653 24 660 0 671 c 1
 0 700 l 1
 260 700 l 1
 260 671 l 1
 235 662 209 653 178 646 c 1
 277 243 l 1
 299 113 l 1
 301 113 l 1
 336 245 l 1
 471 700 l 1
 505 700 l 1
 650 245 l 1
 679 115 l 1
 681 115 l 1
 704 247 l 1
EndSplineSet
Validated: 1
EndChar

StartChar: X
Encoding: 88 88 59
Width: 670
GlyphClass: 2
Flags: MW
HStem: 0 21G<10 241 10 10 395 661 395 395> 680 20G<13 278 278 278 395 625 625 625>
LayerCount: 2
Fore
SplineSet
395 671 m 1
 395 700 l 1
 625 700 l 1
 625 671 l 1
 602 662 577 653 550 646 c 1
 374 375 l 1
 579 53 l 1
 611 48 638 40 661 29 c 1
 661 0 l 1
 395 0 l 1
 395 29 l 1
 419 41 444 49 471 53 c 1
 313 304 l 1
 161 52 l 1
 189 48 216 44 241 29 c 1
 241 0 l 1
 10 0 l 1
 10 29 l 1
 35 42 60 48 84 53 c 1
 280 352 l 1
 92 646 l 1
 65 654 40 662 13 671 c 1
 13 700 l 1
 278 700 l 1
 278 671 l 1
 258 663 234 655 202 646 c 1
 342 420 l 1
 478 646 l 1
 451 652 423 660 395 671 c 1
EndSplineSet
Validated: 1
EndChar

StartChar: Y
Encoding: 89 89 60
Width: 644
GlyphClass: 2
Flags: MW
HStem: 0 21G<201 455 201 201> 680 20G<0 265 265 265 424 644 644 644>
VStem: 283 96<53 297 297 297>
LayerCount: 2
Fore
SplineSet
424 671 m 1
 424 700 l 1
 644 700 l 1
 644 671 l 1
 619 658 593 650 568 646 c 1
 379 298 l 1
 379 53 l 1
 405 50 430 42 455 29 c 1
 455 0 l 1
 201 0 l 1
 201 29 l 1
 225 41 252 49 283 53 c 1
 283 297 l 1
 81 646 l 1
 50 651 25 660 0 671 c 1
 0 700 l 1
 265 700 l 1
 265 671 l 1
 245 663 220 654 188 646 c 1
 352 352 l 1
 506 646 l 1
 475 653 448 662 424 671 c 1
EndSplineSet
Validated: 1
EndChar

StartChar: Z
Encoding: 90 90 61
Width: 610
GlyphClass: 2
Flags: MW
HStem: 0 52<146 472 146 570> 488 20G<61 86 61 61> 648 52<147 455 147 147 49 560>
LayerCount: 2
Fore
SplineSet
472 52 m 1
 533 192 l 1
 559 192 l 1
 567 139 573 53 570 0 c 1
 39 0 l 1
 39 51 l 1
 455 648 l 1
 147 648 l 1
 86 508 l 1
 61 508 l 1
 53 564 49 647 49 700 c 1
 560 700 l 1
 560 648 l 1
 146 52 l 1
 472 52 l 1
EndSplineSet
Validated: 33
EndChar

StartChar: bracketleft
Encoding: 91 91 62
Width: 307
GlyphClass: 2
Flags: MW
HStem: -230 41<168 272 168 272> 658 42<168 272 168 168>
VStem: 83 85<-189 658 -189 700 -189 700> 83 189<-230 -189 658 700>
LayerCount: 2
Fore
SplineSet
83 -230 m 1xd0
 83 700 l 1
 272 700 l 1
 272 658 l 1xd0
 168 658 l 1
 168 -189 l 1xe0
 272 -189 l 1
 272 -230 l 1
 83 -230 l 1xd0
EndSplineSet
Validated: 1
EndChar

StartChar: backslash
Encoding: 92 92 63
Width: 382
GlyphClass: 2
Flags: MW
HStem: -130 21G<368 368> 692 20G<-5 -5>
LayerCount: 2
Fore
SplineSet
-5 712 m 1
 409 -107 l 1
 368 -130 l 1
 -47 690 l 1
 -5 712 l 1
EndSplineSet
Validated: 1
EndChar

StartChar: bracketright
Encoding: 93 93 64
Width: 307
GlyphClass: 2
Flags: MW
HStem: -230 41<35 139 35 224 35 139> 658 42<35 139 35 224>
VStem: 35 189<-230 -189 -189 -189 658 700 -230 700> 139 85<-189 658 658 658>
LayerCount: 2
Fore
SplineSet
224 700 m 1xe0
 224 -230 l 1
 35 -230 l 1
 35 -189 l 1xe0
 139 -189 l 1
 139 658 l 1xd0
 35 658 l 1
 35 700 l 1
 224 700 l 1xe0
EndSplineSet
Validated: 1
EndChar

StartChar: asciicircum
Encoding: 94 94 65
Width: 500
GlyphClass: 2
Flags: MW
HStem: 434 21G<47 47 47 103 347 347 347 435> 691 20G<233 265 265 265>
LayerCount: 2
Fore
SplineSet
47 434 m 1
 233 711 l 1
 265 711 l 1
 435 434 l 1
 347 434 l 1
 259 585 l 1
 235 652 l 1
 203 584 l 1
 103 434 l 1
 47 434 l 1
EndSplineSet
Validated: 1
EndChar

StartChar: underscore
Encoding: 95 95 66
Width: 410
GlyphClass: 2
Flags: MW
HStem: -196 53<0 410 0 410>
LayerCount: 2
Fore
SplineSet
0 -196 m 1
 0 -143 l 1
 410 -143 l 1
 410 -196 l 1
 0 -196 l 1
EndSplineSet
Validated: 1
EndChar

StartChar: grave
Encoding: 96 96 67
Width: 328
GlyphClass: 2
Flags: MW
HStem: 576 21G<246 246>
LayerCount: 2
Fore
SplineSet
162 767 m 1
 268 593 l 1
 246 576 l 1
 60 725 l 1
 60 745 l 1
 76 758 141 770 162 767 c 1
EndSplineSet
Validated: 33
EndChar

StartChar: a
Encoding: 97 97 68
Width: 505
GlyphClass: 2
Flags: MW
HStem: -12 62<191.5 219> -10 21G<343 368 343 343> 242 38<325 325> 468 44<229.5 279>
VStem: 39 96<111.5 174.5 111.5 184.5> 325 90<137 390 242 390>
LayerCount: 2
Fore
SplineSet
410 131 m 0xbc
 410 102 412 83 413 59 c 1
 482 49 l 1
 482 28 l 1
 449 11 405 -3 368 -10 c 1
 343 -10 l 1x7c
 330 21 329 57 328 101 c 1
 323 101 l 1
 312 47 261 -12 177 -12 c 0
 96 -12 39 42 39 122 c 0
 39 247 138 269 324 280 c 1
 335 394 319 468 239 468 c 0
 220 468 196 467 173 458 c 1
 126 338 l 1
 100 338 l 1
 87 378 76 422 73 463 c 1
 124 494 185 512 261 512 c 0
 397 512 415 427 415 353 c 0
 415 273 410 199 410 131 c 0xbc
217 50 m 0xbc
 284 50 317 111 325 137 c 1
 325 242 l 1
 170 242 135 209 135 140 c 0
 135 83 166 50 217 50 c 0xbc
EndSplineSet
Validated: 33
EndChar

StartChar: b
Encoding: 98 98 69
Width: 545
GlyphClass: 2
Flags: MW
HStem: -9 44<246.5 310 246.5 329.5> 450 62<283.5 331.5> 732 20G<142 167 167 167>
VStem: 77 90<56 335 401 682 682 682> 408 96<186.5 311.5>
LayerCount: 2
Fore
SplineSet
77 29 m 1
 77 682 l 1
 1 690 l 1
 1 716 l 1
 42 733 98 743 142 752 c 1
 167 752 l 1
 167 401 l 1
 169 401 l 1
 192 469 251 512 316 512 c 0
 437 512 504 431 504 259 c 0
 504 83 413 -9 246 -9 c 0
 180 -9 106 10 77 29 c 1
289 450 m 0
 225 450 186 402 167 335 c 1
 167 56 l 1
 191 43 227 35 266 35 c 0
 354 35 408 114 408 259 c 0
 408 364 374 450 289 450 c 0
EndSplineSet
Validated: 1
EndChar

StartChar: c
Encoding: 99 99 70
Width: 466
GlyphClass: 2
Flags: MW
HStem: -12 62<251 310> 468 44<233.5 293>
VStem: 41 96<200.5 329.5 200.5 334.5>
LayerCount: 2
Fore
SplineSet
414 84 m 1
 427 70 l 1
 403 23 346 -12 274 -12 c 0
 118 -12 41 92 41 250 c 0
 41 419 129 512 272 512 c 0
 337 512 389 500 425 481 c 1
 421 437 410 375 394 339 c 1
 367 339 l 1
 325 458 l 1
 316 465 307 468 279 468 c 0
 188 468 137 408 137 251 c 0
 137 150 193 50 309 50 c 0
 356 50 390 65 414 84 c 1
EndSplineSet
Validated: 1
EndChar

StartChar: d
Encoding: 100 100 71
Width: 555
GlyphClass: 2
Flags: MW
HStem: -12 62<216 272.5> -10 21G<386 411 386 386> 465 44<231.5 296.5 201.5 301> 732 20G<441 466 466 466>
VStem: 41 96<193 313 193 332.5> 376 90<165 447 447 447 493 682 682 682>
LayerCount: 2
Fore
SplineSet
377 99 m 1x7c
 373 99 l 1
 360 40 307 -12 238 -12 c 0xbc
 106 -12 41 70 41 247 c 0
 41 418 131 509 272 509 c 0
 321 509 343 505 376 493 c 1
 376 682 l 1
 300 690 l 1
 300 716 l 1
 339 732 394 744 441 752 c 1
 466 752 l 1
 466 57 l 1
 532 49 l 1
 532 28 l 1
 493 9 451 -5 411 -10 c 1
 386 -10 l 1
 377 99 l 1x7c
258 50 m 0
 323 50 361 94 376 165 c 1
 376 447 l 1
 353 460 325 465 277 465 c 0
 186 465 137 379 137 247 c 0
 137 139 174 50 258 50 c 0
EndSplineSet
Validated: 1
EndChar

StartChar: e
Encoding: 101 101 72
Width: 503
GlyphClass: 2
Flags: MW
HStem: -12 62<249.5 316.5> 250 44<140 360 140 449 137 360> 468 44<225 297>
VStem: 41 96<194 250 194 335.5> 362 94<322.5 370.5>
LayerCount: 2
Fore
SplineSet
432 86 m 1
 446 70 l 1
 425 24 352 -12 281 -12 c 0
 124 -12 41 91 41 250 c 0
 41 421 123 512 267 512 c 0
 360 512 456 466 456 322 c 0
 456 299 454 277 449 250 c 1
 137 250 l 1
 137 138 192 50 307 50 c 0
 354 50 408 65 432 86 c 1
263 468 m 0
 187 468 148 423 140 294 c 1
 360 294 l 1
 361 306 362 317 362 328 c 0
 362 413 331 468 263 468 c 0
EndSplineSet
Validated: 1
EndChar

StartChar: f
Encoding: 102 102 73
Width: 342
GlyphClass: 2
Flags: MW
HStem: 0 21G<41 293 41 41> 450 50<197 312 197 312> 712 40<269 307>
VStem: 107 90<49 450 49 450 509 544 544 550>
LayerCount: 2
Fore
SplineSet
306 752 m 0
 330 752 374 747 398 739 c 1
 394 695 387 657 376 626 c 1
 351 626 l 1
 307 712 l 1
 231 712 197 689 197 550 c 2
 197 500 l 1
 312 500 l 1
 312 450 l 1
 197 450 l 1
 197 49 l 1
 232 45 264 37 293 25 c 1
 293 0 l 1
 41 0 l 1
 41 25 l 1
 62 37 84 45 107 49 c 1
 107 450 l 1
 31 450 l 1
 31 476 l 1
 54 491 80 502 107 509 c 1
 107 544 l 2
 107 710 193 752 306 752 c 0
EndSplineSet
Validated: 1
EndChar

StartChar: g
Encoding: 103 103 74
Width: 526
GlyphClass: 2
Flags: MW
HStem: -212 44<220 317.5 220 319> 189 44<234.5 285.5 205.5 311.5> 468 44<206.5 283 182 286.5> 507 20G
VStem: 30 90<-97.5 -46> 48 90<319 388.5 319 397> 107 64<110 133.5> 355 90<317.5 370.5 303 387> 395 90
LayerCount: 2
Fore
SplineSet
247 512 m 0xe5
 319 512 367 498 400 469 c 1
 439 496 480 515 523 527 c 1
 534 512 538 489 538 470 c 1
 525 446 l 1
 420 446 l 1
 437 422 445 390 445 351 c 0
 445 255 376 189 247 189 c 0
 222 189 209 190 189 193 c 1
 182 181 171 166 171 150 c 0xd3
 171 70 481 111 485 -58 c 0
 488 -155 388 -212 250 -212 c 0
 105 -212 30 -157 30 -82 c 0xe880
 30 -10 75 21 158 48 c 1
 129 61 107 85 107 118 c 0xe3
 107 149 139 182 166 199 c 1
 90 219 48 280 48 351 c 0
 48 443 117 512 247 512 c 0xe5
395 -81 m 0
 395 4 266 13 182 39 c 1
 131 8 120 -26 120 -62 c 0
 120 -133 172 -168 268 -168 c 0
 367 -168 395 -129 395 -81 c 0
138 351 m 0xe5
 138 287 164 233 247 233 c 0
 324 233 355 284 355 351 c 0
 355 423 326 468 247 468 c 0
 166 468 138 426 138 351 c 0xe5
EndSplineSet
Validated: 33
EndChar

StartChar: h
Encoding: 104 104 75
Width: 587
GlyphClass: 2
Flags: MW
HStem: 0 21G<24 239 24 24 354 570 354 354> 450 62<299.5 350.5> 732 20G<155 180 180 180>
VStem: 90 90<49 341 49 399 399 682 682 682> 414 90<49 283 283 302 49 335>
LayerCount: 2
Fore
SplineSet
570 25 m 1
 570 0 l 1
 354 0 l 1
 354 25 l 1
 370 34 390 42 414 49 c 1
 414 283 l 2
 414 387 389 450 312 450 c 0
 245 450 196 396 180 341 c 1
 180 49 l 1
 201 44 220 38 239 25 c 1
 239 0 l 1
 24 0 l 1
 24 25 l 1
 45 36 67 44 90 49 c 1
 90 682 l 1
 14 690 l 1
 14 716 l 1
 53 732 108 744 155 752 c 1
 180 752 l 1
 180 399 l 1
 181 399 l 1
 209 462 262 512 337 512 c 0
 445 512 504 467 504 302 c 2
 504 49 l 1
 527 44 550 38 570 25 c 1
EndSplineSet
Validated: 1
EndChar

StartChar: i
Encoding: 105 105 76
Width: 301
GlyphClass: 2
Flags: MW
HStem: 0 21G<41 263 41 41> 492 20G<172 197 197 197> 612 117<132.5 171.5>
VStem: 88 127<652 688> 107 90<49 442 442 442>
LayerCount: 2
Fore
SplineSet
263 25 m 1xc8
 263 0 l 1
 41 0 l 1
 41 25 l 1
 61 36 82 42 107 49 c 1
 107 442 l 1
 41 450 l 1
 41 476 l 1
 80 492 127 504 172 512 c 1
 197 512 l 1
 197 49 l 1
 224 42 244 36 263 25 c 1xc8
88 670 m 0x30
 88 706 113 729 152 729 c 0
 191 729 215 706 215 670 c 0
 215 634 191 612 152 612 c 0
 113 612 88 634 88 670 c 0x30
EndSplineSet
Validated: 1
EndChar

StartChar: j
Encoding: 106 106 77
Width: 288
GlyphClass: 2
Flags: MW
HStem: -212 21G<47 47> 492 20G<171 196 196 196> 612 117<131.5 170.5>
VStem: 87 127<652 688> 106 90<24 43 43 442 442 442>
LayerCount: 2
Fore
SplineSet
106 24 m 2xe8
 106 442 l 1
 40 450 l 1
 40 476 l 1
 79 495 127 505 171 512 c 1
 196 512 l 1
 196 43 l 2
 196 -145 86 -202 47 -212 c 1
 35 -193 l 1
 67 -177 106 -114 106 24 c 2xe8
87 670 m 0xf0
 87 706 112 729 151 729 c 0
 190 729 214 706 214 670 c 0
 214 634 190 612 151 612 c 0
 112 612 87 634 87 670 c 0xf0
EndSplineSet
Validated: 1
EndChar

StartChar: k
Encoding: 107 107 78
Width: 516
GlyphClass: 2
Flags: MW
HStem: 0 21G<24 245 24 24 392 516 392 392> 480 20G<300 493 493 493> 732 20G<155 180 180 180>
VStem: 90 90<49 248 49 274 274 682 682 682>
LayerCount: 2
Fore
SplineSet
300 474 m 1
 300 500 l 1
 493 500 l 1
 493 474 l 1
 468 463 444 455 417 450 c 1
 378 397 308 320 273 285 c 1
 313 232 391 126 460 49 c 1
 516 25 l 1
 516 0 l 1
 392 0 l 1
 365 24 l 1
 294 112 252 178 213 238 c 1
 180 248 l 1
 180 49 l 1
 202 45 224 37 245 25 c 1
 245 0 l 1
 24 0 l 1
 24 25 l 1
 46 36 68 44 90 49 c 1
 90 682 l 1
 14 690 l 1
 14 716 l 1
 51 733 108 743 155 752 c 1
 180 752 l 1
 180 274 l 1
 206 274 l 1
 249 322 310 395 349 450 c 1
 332 455 316 463 300 474 c 1
EndSplineSet
Validated: 1
EndChar

StartChar: l
Encoding: 108 108 79
Width: 301
GlyphClass: 2
Flags: MW
HStem: 0 21G<41 263 41 41> 732 20G<172 197 197 197>
VStem: 107 90<49 682 682 682>
LayerCount: 2
Fore
SplineSet
263 25 m 1
 263 0 l 1
 41 0 l 1
 41 25 l 1
 63 36 85 44 107 49 c 1
 107 682 l 1
 31 690 l 1
 31 716 l 1
 66 732 123 744 172 752 c 1
 197 752 l 1
 197 49 l 1
 219 44 241 36 263 25 c 1
EndSplineSet
Validated: 1
EndChar

StartChar: m
Encoding: 109 109 80
Width: 863
GlyphClass: 2
Flags: MW
HStem: 0 21G<31 246 31 31 334 548 334 334 630 630 630 845> 450 62<300 340.5 594 635.5>
VStem: 97 90<49 343 49 399 399 442 442 442> 393 90<49 280 280 333 49 334> 689 90<49 298 298 300 49 345.5>
CounterMasks: 1 38
LayerCount: 2
Fore
SplineSet
548 25 m 1
 548 0 l 1
 334 0 l 1
 334 25 l 1
 347 33 366 42 393 49 c 1
 393 280 l 2
 393 388 379 450 302 450 c 0
 244 450 203 398 187 343 c 1
 187 49 l 1
 208 42 227 36 246 25 c 1
 246 0 l 1
 31 0 l 1
 31 25 l 1
 50 34 73 42 97 49 c 1
 97 442 l 1
 31 450 l 1
 31 476 l 1
 74 495 119 505 162 512 c 1
 187 512 l 1
 187 399 l 1
 188 399 l 1
 209 462 262 512 338 512 c 0
 402 512 460 490 476 389 c 1
 500 462 554 512 634 512 c 0
 734 512 779 468 779 300 c 2
 779 49 l 1
 802 45 824 37 845 25 c 1
 845 0 l 1
 630 0 l 1
 630 25 l 1
 650 36 670 44 689 49 c 1
 689 298 l 2
 689 393 675 450 596 450 c 0
 532 450 499 401 483 333 c 1
 483 49 l 1
 506 42 528 34 548 25 c 1
EndSplineSet
Validated: 1
EndChar

StartChar: n
Encoding: 110 110 81
Width: 594
GlyphClass: 2
Flags: MW
HStem: 0 21G<31 247 31 31 362 577 362 362> 450 62<306.5 357.5>
VStem: 97 90<49 341 49 400 400 442 442 442> 421 90<49 286 286 302 49 336.5>
LayerCount: 2
Fore
SplineSet
577 25 m 1
 577 0 l 1
 362 0 l 1
 362 25 l 1
 380 34 400 42 421 49 c 1
 421 286 l 2
 421 387 396 450 319 450 c 0
 251 450 206 397 187 341 c 1
 187 49 l 1
 208 45 228 37 247 25 c 1
 247 0 l 1
 31 0 l 1
 31 25 l 1
 48 34 70 42 97 49 c 1
 97 442 l 1
 31 450 l 1
 31 476 l 1
 66 491 113 503 162 512 c 1
 187 512 l 1
 187 400 l 1
 188 400 l 1
 216 461 269 512 344 512 c 0
 452 512 511 467 511 302 c 2
 511 49 l 1
 538 44 560 36 577 25 c 1
EndSplineSet
Validated: 1
EndChar

StartChar: o
Encoding: 111 111 82
Width: 553
GlyphClass: 2
Flags: MW
HStem: -12 44<236.5 329 236.5 348> 468 44<228.5 320>
VStem: 41 96<189.5 324.5 189.5 333.5> 416 96<175.5 311>
LayerCount: 2
Fore
SplineSet
41 250 m 0
 41 417 134 512 276 512 c 0
 442 512 512 406 512 250 c 0
 512 82 420 -12 276 -12 c 0
 117 -12 41 92 41 250 c 0
137 250 m 0
 137 129 180 32 293 32 c 0
 365 32 416 101 416 250 c 0
 416 372 372 468 268 468 c 0
 189 468 137 399 137 250 c 0
EndSplineSet
Validated: 1
EndChar

StartChar: p
Encoding: 112 112 83
Width: 566
GlyphClass: 2
Flags: MW
HStem: -200 232<31 330 31 330> -12 44<266.5 330 262 362> 450 62<299.5 351.5>
VStem: 97 90<-151 8 -151 54 54 334 400 442 442 442> 429 96<195 315.5>
LayerCount: 2
Fore
SplineSet
253 -175 m 1x78
 253 -200 l 1
 31 -200 l 1xb8
 31 -175 l 1
 54 -164 76 -156 97 -151 c 1
 97 442 l 1
 31 450 l 1
 31 476 l 1
 74 495 119 505 162 512 c 1
 187 512 l 1
 187 400 l 1
 188 400 l 1
 215 468 261 512 338 512 c 0
 457 512 525 438 525 261 c 0
 525 92 433 -12 291 -12 c 0
 242 -12 220 -7 187 8 c 1
 187 -151 l 1
 208 -154 229 -160 253 -175 c 1x78
306 450 m 0
 241 450 203 406 187 334 c 1
 187 54 l 1
 211 39 238 32 286 32 c 0
 374 32 429 129 429 261 c 0
 429 370 397 450 306 450 c 0
EndSplineSet
Validated: 1
EndChar

StartChar: q
Encoding: 113 113 84
Width: 548
GlyphClass: 2
Flags: MW
HStem: -200 250<212.5 532 212.5 310> -12 62<212.5 270> 465 44<232.5 298.5>
VStem: 41 96<193.5 323.5 193.5 333.5> 376 90<-151 89 89 89 164 451 451 451>
LayerCount: 2
Fore
SplineSet
376 89 m 1xb8
 372 89 l 1
 353 36 306 -12 234 -12 c 0x78
 106 -12 41 71 41 247 c 0
 41 420 130 509 291 509 c 0
 363 509 435 493 466 478 c 1
 466 -151 l 1
 489 -155 509 -162 532 -175 c 1
 532 -200 l 1
 310 -200 l 1
 310 -175 l 1
 331 -164 353 -156 376 -151 c 1
 376 89 l 1xb8
258 50 m 0
 323 50 360 95 376 164 c 1
 376 451 l 1
 352 459 320 465 277 465 c 0
 188 465 137 398 137 249 c 0
 137 138 167 50 258 50 c 0
EndSplineSet
Validated: 1
EndChar

StartChar: r
Encoding: 114 114 85
Width: 384
GlyphClass: 2
Flags: MW
HStem: 0 21G<31 267 31 31> 492 20G<162 187 187 187>
VStem: 97 90<49 346 49 406 406 442 442 442>
LayerCount: 2
Fore
SplineSet
377 425 m 1
 244 425 l 1
 229 417 204 394 187 346 c 1
 187 49 l 1
 214 46 240 40 267 25 c 1
 267 0 l 1
 31 0 l 1
 31 25 l 1
 55 38 76 44 97 49 c 1
 97 442 l 1
 31 450 l 1
 31 476 l 1
 74 495 121 505 162 512 c 1
 187 512 l 1
 187 406 l 1
 191 406 l 1
 215 459 282 520 354 512 c 1
 363 495 370 474 377 451 c 1
 377 425 l 1
EndSplineSet
Validated: 33
EndChar

StartChar: s
Encoding: 115 115 86
Width: 433
GlyphClass: 2
Flags: MW
HStem: -12 44<188.5 226.5 188.5 250.5> 468 44<196.5 230.5>
VStem: 56 90<342 413.5 342 423> 295 90<91.5 169.5>
LayerCount: 2
Fore
SplineSet
295 114 m 0
 295 225 56 224 56 387 c 0
 56 459 127 512 211 512 c 0
 283 512 323 504 366 489 c 1
 361 446 354 403 341 358 c 1
 316 358 l 1
 278 460 l 1
 262 467 241 468 220 468 c 0
 173 468 146 431 146 396 c 0
 146 288 385 284 385 135 c 0
 385 45 301 -12 200 -12 c 0
 143 -12 98 -2 46 17 c 1
 49 65 58 110 73 151 c 1
 98 151 l 1
 142 42 l 1
 157 31 180 32 197 32 c 0
 256 32 295 69 295 114 c 0
EndSplineSet
Validated: 33
EndChar

StartChar: t
Encoding: 116 116 87
Width: 371
GlyphClass: 2
Flags: MW
HStem: -12 62<235.5 248.5> 450 50<185 335 185 335> 611 20G<160 185 185 185>
VStem: 95 90<132 160 160 450 510 595 595 595>
LayerCount: 2
Fore
SplineSet
15 450 m 1
 15 476 l 1
 40 492 67 503 95 510 c 1
 95 595 l 1
 112 610 137 620 160 631 c 1
 185 631 l 1
 185 500 l 1
 335 500 l 1
 335 450 l 1
 185 450 l 1
 185 160 l 2
 185 80 210 50 261 50 c 0
 285 50 327 53 352 62 c 1
 359 47 l 1
 338 24 279 -12 218 -12 c 0
 138 -12 95 31 95 132 c 2
 95 450 l 1
 15 450 l 1
EndSplineSet
Validated: 1
EndChar

StartChar: u
Encoding: 117 117 88
Width: 574
GlyphClass: 2
Flags: MW
HStem: -12 62<228.5 282.5> -10 21G<404 429 404 404> 492 20G<148 173 173 173 458 483 483 483>
VStem: 77 90<164 240> 393 90<109 109 167 442 442 442>
LayerCount: 2
Fore
SplineSet
77 198 m 0xb8
 77 282 83 362 83 442 c 1
 17 450 l 1
 17 476 l 1
 60 492 105 504 148 512 c 1
 173 512 l 1
 173 412 167 313 167 216 c 0
 167 112 187 50 270 50 c 0xb8
 330 50 370 98 393 167 c 1
 393 442 l 1
 328 450 l 1
 328 476 l 1
 369 492 415 504 458 512 c 1
 483 512 l 1
 483 57 l 1
 549 49 l 1
 549 28 l 1
 510 11 472 -3 429 -10 c 1
 404 -10 l 1x78
 397 109 l 1
 393 109 l 1
 380 53 323 -12 242 -12 c 0
 136 -12 77 33 77 198 c 0xb8
EndSplineSet
Validated: 1
EndChar

StartChar: v
Encoding: 118 118 89
Width: 449
GlyphClass: 2
Flags: MW
HStem: -12 21G<238 238> 480 20G<-10 199 199 199 347 517 517 517>
LayerCount: 2
Fore
SplineSet
283 0 m 1
 238 -12 l 1
 43 450 l 1
 24 457 6 465 -10 474 c 1
 -10 500 l 1
 199 500 l 1
 199 475 l 1
 182 466 165 457 142 450 c 1
 258 149 l 1
 278 87 l 1
 280 87 l 1
 295 150 l 1
 402 450 l 1
 381 455 363 463 347 474 c 1
 347 500 l 1
 517 500 l 1
 517 474 l 1
 504 465 484 457 460 450 c 1
 283 0 l 1
EndSplineSet
Validated: 1
EndChar

StartChar: w
Encoding: 119 119 90
Width: 728
GlyphClass: 2
Flags: MW
HStem: -12 21G<200 200 486 486> 480 20G<-10 198 198 198 396 396 568 738 738 738>
LayerCount: 2
Fore
SplineSet
252 0 m 1
 200 -12 l 1
 43 450 l 1
 24 457 6 463 -10 474 c 1
 -10 500 l 1
 198 500 l 1
 198 475 l 1
 179 464 161 455 141 450 c 1
 228 158 l 1
 241 86 l 1
 243 86 l 1
 258 160 l 1
 366 490 l 1
 396 500 l 1
 511 159 l 1
 529 86 l 1
 531 86 l 1
 546 159 l 1
 623 450 l 1
 608 453 588 461 568 474 c 1
 568 500 l 1
 738 500 l 1
 738 474 l 1
 724 465 705 457 681 450 c 1
 539 0 l 1
 486 -12 l 1
 387 271 l 1
 368 354 l 1
 365 354 l 1
 342 271 l 1
 252 0 l 1
EndSplineSet
Validated: 1
EndChar

StartChar: x
Encoding: 120 120 91
Width: 519
GlyphClass: 2
Flags: MW
HStem: 0 21G<10 181 10 10 304 509 304 304> 480 20G<16 217 217 217 324 491 491 491>
LayerCount: 2
Fore
SplineSet
435 450 m 1
 298 268 l 1
 456 49 l 1
 475 42 493 36 509 25 c 1
 509 0 l 1
 304 0 l 1
 304 24 l 1
 323 35 338 44 354 49 c 1
 243 213 l 1
 131 49 l 1
 150 42 165 34 181 25 c 1
 181 0 l 1
 10 0 l 1
 10 25 l 1
 29 36 47 44 66 49 c 1
 215 248 l 1
 65 450 l 1
 46 457 32 463 16 474 c 1
 16 500 l 1
 217 500 l 1
 217 475 l 1
 201 464 187 455 168 450 c 1
 272 300 l 1
 374 450 l 1
 351 457 335 465 324 474 c 1
 324 500 l 1
 491 500 l 1
 491 474 l 1
 478 465 460 457 435 450 c 1
EndSplineSet
Validated: 1
EndChar

StartChar: y
Encoding: 121 121 92
Width: 505
GlyphClass: 2
Flags: MW
HStem: -215 21G 480 20G<-11 198 198 198 345 516 516 516>
LayerCount: 2
Fore
SplineSet
250 0 m 1
 42 450 l 1
 22 455 6 463 -11 474 c 1
 -11 500 l 1
 198 500 l 1
 198 475 l 1
 184 466 165 457 141 450 c 1
 269 154 l 1
 288 92 l 1
 290 92 l 1
 305 155 l 1
 400 450 l 1
 380 454 362 462 345 474 c 1
 345 500 l 1
 516 500 l 1
 516 474 l 1
 502 465 483 457 459 450 c 1
 303 0 l 1
 239 -170 191 -202 122 -215 c 1
 107 -190 96 -157 88 -129 c 1
 101 -105 l 1
 205 -105 l 1
 221 -84 228 -70 250 0 c 1
EndSplineSet
Validated: 1
EndChar

StartChar: z
Encoding: 122 122 93
Width: 488
GlyphClass: 2
Flags: MW
HStem: 0 44<149 344 149 435> 456 44<139 328 139 139>
LayerCount: 2
Fore
SplineSet
398 171 m 1
 423 171 l 1
 432 115 438 59 435 0 c 1
 43 0 l 1
 43 25 l 1
 328 456 l 1
 139 456 l 1
 95 338 l 1
 70 338 l 1
 59 395 59 452 59 500 c 1
 435 500 l 1
 435 474 l 1
 149 44 l 1
 344 44 l 1
 398 171 l 1
EndSplineSet
Validated: 33
EndChar

StartChar: braceleft
Encoding: 123 123 94
Width: 348
GlyphClass: 2
Flags: MW
HStem: -230 41<274 321 274 321> 220 30<55 80.5> 658 42<255 273 273 321>
VStem: 135 86<-125 105 355 365 365 594 594 598> 135 186<-230 111>
LayerCount: 2
Fore
SplineSet
135 -125 m 2xe8
 135 111 l 2
 135 179 106 220 55 220 c 1
 55 250 l 1
 106 250 135 296 135 355 c 2
 135 594 l 2
 135 658 167 700 231 700 c 2
 321 700 l 1
 321 658 l 1xe8
 273 658 l 2
 237 658 221 641 221 598 c 2
 221 365 l 2
 221 277 158 245 111 240 c 1
 111 234 l 1
 157 229 221 191 221 105 c 2
 221 -129 l 2xf0
 221 -170 235 -189 274 -189 c 2
 321 -189 l 1
 321 -230 l 1
 231 -230 l 2
 171 -230 135 -194 135 -125 c 2xe8
EndSplineSet
Validated: 1
EndChar

StartChar: bar
Encoding: 124 124 95
Width: 237
GlyphClass: 2
Flags: MW
HStem: -130 21G<93 93 93 145> 680 20G<93 145 145 145>
VStem: 93 52<-130 700 -130 700>
LayerCount: 2
Fore
SplineSet
93 -130 m 1
 93 700 l 1
 145 700 l 1
 145 -130 l 1
 93 -130 l 1
EndSplineSet
Validated: 1
EndChar

StartChar: braceright
Encoding: 125 125 96
Width: 348
GlyphClass: 2
Flags: MW
HStem: -230 41<52 101 101 119 52 142 52 101> 221 30<292.5 318> 658 42<52 100 52 143>
VStem: 52 186<-230 -124 -189 -124> 153 85<-129 -124 -124 106 106 116 366 595>
LayerCount: 2
Fore
SplineSet
238 595 m 2xf0
 238 360 l 2
 238 292 267 251 318 251 c 1
 318 221 l 1
 267 221 238 175 238 116 c 2
 238 -124 l 2
 238 -188 206 -230 142 -230 c 2
 52 -230 l 1
 52 -189 l 1xf0
 101 -189 l 2
 137 -189 153 -172 153 -129 c 2
 153 106 l 2
 153 194 206 226 253 231 c 1
 253 237 l 1
 207 242 153 280 153 366 c 2
 153 598 l 2xe8
 153 639 139 658 100 658 c 2
 52 658 l 1
 52 700 l 1
 143 700 l 2
 203 700 238 664 238 595 c 2xf0
EndSplineSet
Validated: 1
EndChar

StartChar: asciitilde
Encoding: 126 126 97
Width: 530
GlyphClass: 2
Flags: MW
HStem: 285 64<347.5 376> 353 64<170 195.5>
LayerCount: 2
Fore
SplineSet
73 298 m 1
 58 322 l 1
 106 394 150 417 190 417 c 0
 258 417 314 349 381 349 c 0
 405 349 431 358 458 383 c 1
 471 362 l 1
 432 306 394 285 358 285 c 0
 289 285 228 353 163 353 c 0
 134 353 104 339 73 298 c 1
EndSplineSet
Validated: 1
EndChar

StartChar: exclamdown
Encoding: 161 161 99
Width: 327
GlyphClass: 2
Flags: MW
HStem: 381 131<119.5 160>
VStem: 71 137<426.5 466> 95 90<-186 110 -186 110>
LayerCount: 2
Fore
SplineSet
127 286 m 1xa0
 153 286 l 1
 185 110 l 1
 185 -186 l 1
 157 -201 123 -201 95 -186 c 1
 95 110 l 1
 127 286 l 1xa0
208 446 m 0xc0
 208 407 180 381 140 381 c 0
 99 381 71 407 71 446 c 0
 71 486 99 512 140 512 c 0
 180 512 208 486 208 446 c 0xc0
EndSplineSet
Validated: 33
EndChar

StartChar: cent
Encoding: 162 162 100
Width: 533
GlyphClass: 2
Flags: MW
HStem: -170 21G<273 326 273 273> -12 62<326 384.5> 492 20G<326 358> 640 20G<273 326 326 326>
VStem: 62 96<213 313 213 324> 274 51<67 460 460 460>
LayerCount: 2
Fore
SplineSet
466 84 m 1
 480 70 l 1
 453 22 398 -11 326 -12 c 1
 326 -170 l 1
 273 -170 l 1
 273 -8 l 1
 133 12 62 109 62 250 c 0
 62 398 149 487 273 508 c 1
 273 660 l 1
 326 660 l 1
 326 512 l 1
 390 512 442 500 478 481 c 1
 474 437 462 375 446 339 c 1
 421 339 l 1
 380 458 l 1
 371 465 362 468 335 468 c 2
 325 468 l 1
 325 53 l 1
 337 51 349 50 361 50 c 0
 408 50 442 65 466 84 c 1
158 251 m 0
 158 175 198 100 274 67 c 1
 274 460 l 1
 203 439 158 375 158 251 c 0
EndSplineSet
Validated: 1
EndChar

StartChar: sterling
Encoding: 163 163 101
Width: 533
GlyphClass: 2
Flags: MW
HStem: 0 82<209 408 209 493> 330 51<30 115 30 115 30 138 227 227 227 365> 487 20G<427 452 427 427> 660 52<257 303.5>
VStem: 78 92<549 557 549 588.5> 161 79
LayerCount: 2
Fore
SplineSet
30 330 m 1xf4
 30 381 l 1
 115 381 l 1
 95 424 78 466 78 534 c 0
 78 643 161 712 285 712 c 0
 366 712 438 697 477 678 c 1
 474 635 463 553 452 507 c 1
 427 507 l 1
 387 644 l 1
 362 655 324 660 283 660 c 0
 231 660 193 636 178 595 c 0
 173 580 170 565 170 549 c 0xf8
 171 481 190 430 209 381 c 1
 365 381 l 1
 365 330 l 1
 227 330 l 1
 236 297 243 266 240 227 c 0
 239 182 223 139 186 108 c 2
 153 80 l 1
 153 76 l 1
 209 82 l 1
 408 82 l 1
 457 194 l 1
 482 194 l 1
 487 136 493 48 493 0 c 1
 33 0 l 1
 33 31 l 1
 118 68 160 117 161 198 c 0
 161 213 160 225 159 238 c 0
 155 274 148 305 138 330 c 1
 30 330 l 1xf4
EndSplineSet
Validated: 33
EndChar

StartChar: currency
Encoding: 164 164 102
Width: 533
GlyphClass: 2
Flags: MW
HStem: 115 21G<443 443> 207 57<251 283> 429 58<251 291> 557 20G<91 91>
VStem: 128 54<330 361.5> 352 53<346 362.5 346 370>
LayerCount: 2
Fore
SplineSet
90 116 m 1
 36 170 l 1
 119 252 l 1
 154 263 l 1
 135 286 128 314 128 346 c 0
 128 377 135 406 154 429 c 1
 119 440 l 1
 37 523 l 1
 91 577 l 1
 173 494 l 1
 185 460 l 1
 208 477 235 487 267 487 c 0
 299 486 328 477 349 460 c 1
 362 494 l 1
 444 576 l 1
 497 522 l 1
 414 440 l 1
 382 429 l 1
 397 406 405 379 405 346 c 0
 406 315 398 287 382 262 c 1
 414 252 l 1
 496 169 l 1
 443 115 l 1
 361 197 l 1
 349 231 l 1
 328 216 299 207 267 207 c 0
 235 207 208 216 183 231 c 1
 173 198 l 1
 90 116 l 1
267 264 m 0
 315 264 352 298 352 346 c 0
 352 394 315 429 267 429 c 0
 219 430 182 394 182 346 c 0
 182 298 219 264 267 264 c 0
EndSplineSet
Validated: 33
EndChar

StartChar: yen
Encoding: 165 165 103
Width: 533
GlyphClass: 2
Flags: MW
HStem: 0 220<146 228 324 400 146 146> 168 52<65 228 65 228 324 487> 283 52<65 207 65 228 65 207 343 487> 680 20G<-45 220 220 220 359 579 579 579>
VStem: 228 96<53 168 53 168 220 283>
LayerCount: 2
Fore
SplineSet
359 671 m 1xb8
 359 700 l 1
 579 700 l 1
 579 671 l 1
 552 658 527 650 503 646 c 1
 343 335 l 1
 487 335 l 1
 487 283 l 1
 324 283 l 1
 324 220 l 1
 487 220 l 1
 487 168 l 1
 324 168 l 1x78
 324 53 l 1
 350 50 375 42 400 29 c 1
 400 0 l 1
 146 0 l 1xb8
 146 29 l 1
 170 41 197 49 228 53 c 1
 228 168 l 1
 65 168 l 1x78
 65 220 l 1
 228 220 l 1
 228 283 l 1
 65 283 l 1
 65 335 l 1
 207 335 l 1
 36 646 l 1
 5 651 -20 660 -45 671 c 1
 -45 700 l 1
 220 700 l 1
 220 671 l 1
 200 663 175 654 143 646 c 1
 297 351 l 1
 441 646 l 1
 410 653 383 662 359 671 c 1xb8
EndSplineSet
Validated: 1
EndChar

StartChar: brokenbar
Encoding: 166 166 104
Width: 237
GlyphClass: 2
Flags: MW
HStem: -130 21G<93 93 93 145> 680 20G<93 145 145 145>
VStem: 93 52<-130 190 -130 190 380 700>
LayerCount: 2
Fore
SplineSet
93 -130 m 1
 93 190 l 1
 145 190 l 1
 145 -130 l 1
 93 -130 l 1
145 700 m 1
 145 380 l 1
 93 380 l 1
 93 700 l 1
 145 700 l 1
EndSplineSet
Validated: 1
EndChar

StartChar: section
Encoding: 167 167 105
Width: 527
GlyphClass: 2
Flags: MW
HStem: -82 44<230.5 272 230.5 301.5> 668 44<234.5 273.5>
VStem: 59 90<291 337.5> 90 90<549.5 613.5 536 623> 347 90<21.5 98.5 21.5 104.5> 378 90<298.5 345.5>
LayerCount: 2
Fore
SplineSet
347 44 m 0xe8
 347 165 59 117 59 304 c 0xe8
 59 371 117 418 190 449 c 1
 135 475 90 512 90 587 c 0
 90 659 156 712 254 712 c 0
 326 712 375 705 418 689 c 1
 413 647 407 631 393 588 c 1
 368 588 l 1
 312 660 l 1
 296 667 284 668 263 668 c 0
 206 668 180 631 180 596 c 0
 180 476 468 502 468 337 c 0xd4
 468 260 396 211 339 184 c 1
 393 160 437 129 437 68 c 0
 437 -25 361 -82 242 -82 c 0
 187 -82 133 -72 80 -53 c 1
 83 -6 92 10 105 52 c 1
 130 52 l 1
 194 -27 l 1
 209 -39 221 -38 240 -38 c 0
 304 -38 347 -1 347 44 c 0xe8
378 313 m 0xe4
 378 378 308 400 236 429 c 1
 191 408 149 369 149 326 c 0
 149 256 221 229 294 202 c 1
 339 228 378 278 378 313 c 0xe4
EndSplineSet
Validated: 33
EndChar

StartChar: dieresis
Encoding: 168 168 106
Width: 450
GlyphClass: 2
Flags: MW
HStem: 612 104<98 130 320 352>
VStem: 60 108<647.5 679> 282 108<647.5 679>
LayerCount: 2
Fore
SplineSet
60 663 m 0
 60 695 82 716 114 716 c 0
 146 716 168 695 168 663 c 0
 168 632 146 612 114 612 c 0
 82 612 60 632 60 663 c 0
282 663 m 0
 282 695 304 716 336 716 c 0
 368 716 390 695 390 663 c 0
 390 632 368 612 336 612 c 0
 304 612 282 632 282 663 c 0
EndSplineSet
Validated: 1
EndChar

StartChar: copyright
Encoding: 169 169 107
Width: 807
GlyphClass: 2
Flags: MW
HStem: -62 47<321 487 321 495.5> 82 41<386 446.5 386 447> 458 42<385 432.5> 595 47<316 482>
VStem: 51 52<198 381.5 198 400.5> 207 96<246.5 343 246.5 360> 704 52<198 382>
LayerCount: 2
Fore
SplineSet
51 290 m 0
 51 511 221 642 404 642 c 0
 587 642 756 511 756 290 c 0
 756 69 587 -62 404 -62 c 0
 211 -62 51 69 51 290 c 0
103 290 m 0
 103 106 238 -15 404 -15 c 0
 570 -15 704 106 704 290 c 0
 704 474 560 595 404 595 c 0
 228 595 103 473 103 290 c 0
482 135 m 2
 510 206 l 1
 535 206 l 1
 540 186 544 138 540 106 c 1
 516 87 465 82 429 82 c 0
 299 82 207 155 207 291 c 0
 207 429 315 500 416 500 c 0
 468 500 510 492 537 479 c 1
 540 455 537 396 529 369 c 1
 504 369 l 1
 474 452 l 1
 465 459 442 458 423 458 c 0
 347 458 303 395 303 291 c 0
 303 202 339 123 433 123 c 0
 460 123 477 130 482 135 c 2
EndSplineSet
Validated: 33
EndChar

StartChar: ordfeminine
Encoding: 170 170 108
Width: 430
GlyphClass: 2
Flags: MW
HStem: 376 46<164.5 190> 539 33<204.5 237.5> 670 38<194 231>
VStem: 49 80<462.5 498.5 462.5 512> 273 72<599.5 620.5>
LayerCount: 2
Fore
SplineSet
126 605 m 1
 99 605 l 1
 86 620 75 648 74 676 c 1
 107 693 151 708 234 708 c 0
 319 708 345 672 345 607 c 0
 345 555 342 484 342 442 c 1
 392 432 l 1
 392 406 l 1
 367 391 338 381 307 378 c 2
 290 378 l 1
 281 401 278 422 277 445 c 1
 273 445 l 1
 260 421 226 376 154 376 c 0
 93 376 49 412 49 471 c 0
 49 553 138 572 245 572 c 0
 254 572 263 571 272 571 c 1
 273 579 273 596 273 603 c 0
 273 638 260 670 202 670 c 0
 186 670 167 668 148 661 c 1
 126 605 l 1
182 422 m 0
 237 422 262 463 272 486 c 1
 272 538 l 1
 257 539 244 539 231 539 c 0
 178 539 129 521 129 476 c 0
 129 449 147 422 182 422 c 0
EndSplineSet
Validated: 1
EndChar

StartChar: guillemotleft
Encoding: 171 171 109
Width: 471
GlyphClass: 2
Flags: MW
HStem: 55 21G 446 20G
LayerCount: 2
Fore
SplineSet
394 57 m 1
 218 259 l 1
 387 464 l 1
 412 445 l 1
 306 266 l 1
 418 77 l 1
 394 57 l 1
243 55 m 1
 24 259 l 1
 237 466 l 1
 263 446 l 1
 123 265 l 1
 269 76 l 1
 243 55 l 1
EndSplineSet
Validated: 1
EndChar

StartChar: logicalnot
Encoding: 172 172 110
Width: 510
GlyphClass: 2
Flags: MW
HStem: 198 189<406 468 406 406> 324 63<43 468 43 406>
VStem: 406 62<198 324 324 324>
LayerCount: 2
Fore
SplineSet
43 324 m 1x60
 43 387 l 1
 468 387 l 1
 468 198 l 1
 406 198 l 1xa0
 406 324 l 1
 43 324 l 1x60
EndSplineSet
Validated: 1
EndChar

StartChar: uni00AD
Encoding: 173 173 111
Width: 425
GlyphClass: 2
Flags: MW
HStem: 250 63<71 353 71 353>
LayerCount: 2
Fore
SplineSet
71 250 m 1
 71 313 l 1
 353 313 l 1
 353 250 l 1
 71 250 l 1
EndSplineSet
Validated: 1
EndChar

StartChar: registered
Encoding: 174 174 112
Width: 700
GlyphClass: 2
Flags: MW
HStem: 184 42<290 413 290 422> 309 163<316 348 348 353 229 348 316 446 316 496> 580 32<340.5 363.5> 675 42<350 350>
VStem: 83 47<381.5 519.5 381.5 536.5> 264 52<342 443 342 472 472 575 575 575> 406 58<528 528> 570 47<381 519.5>
LayerCount: 2
Fore
SplineSet
83 451 m 0
 83 622 206 717 350 717 c 0
 498 717 617 622 617 451 c 0
 617 279 494 184 350 184 c 0
 202 184 83 279 83 451 c 0
130 451 m 0
 130 312 230 226 350 226 c 0
 476 226 570 311 570 451 c 0
 570 588 470 678 350 675 c 1
 223 678 130 588 130 451 c 0
316 443 m 1
 316 342 l 1
 333 341 344 337 353 333 c 1
 353 309 l 1
 229 309 l 1
 229 333 l 1
 240 337 252 340 264 342 c 1
 264 575 l 1
 249 576 240 579 229 586 c 1
 229 608 l 1
 267 608 l 2
 291 608 330 612 351 612 c 0
 411 612 464 588 464 528 c 0
 464 487 430 464 393 452 c 1
 417 413 434 377 473 342 c 1
 496 330 l 1
 496 309 l 1
 446 309 l 1
 418 320 l 1
 385 360 367 404 352 443 c 1
 316 443 l 1
346 580 m 0
 331 580 324 580 316 577 c 1
 316 472 l 1
 348 472 l 2
 388 472 407 491 406 528 c 0
 405 563 381 580 346 580 c 0
EndSplineSet
Validated: 33
EndChar

StartChar: macron
Encoding: 175 175 113
Width: 373
GlyphClass: 2
Flags: MW
HStem: 637 52<60 313 60 313>
LayerCount: 2
Fore
SplineSet
313 637 m 1
 60 637 l 1
 60 689 l 1
 313 689 l 1
 313 637 l 1
EndSplineSet
Validated: 1
EndChar

StartChar: degree
Encoding: 176 176 114
Width: 424
GlyphClass: 2
Flags: MW
HStem: 430 49<201.5 250.5 201.5 264> 663 49<199.5 250.5>
VStem: 83 56<543.5 599 543.5 612.5> 311 55<541.5 599>
LayerCount: 2
Fore
SplineSet
83 571 m 0
 83 654 147 712 225 712 c 0
 303 712 366 664 366 571 c 0
 366 483 303 430 225 430 c 0
 147 430 83 483 83 571 c 0
139 571 m 0
 139 516 178 479 225 479 c 0
 276 479 311 512 311 571 c 0
 311 627 276 663 225 663 c 0
 174 663 139 627 139 571 c 0
EndSplineSet
Validated: 1
EndChar

StartChar: plusminus
Encoding: 177 177 115
Width: 533
GlyphClass: 2
Flags: MW
HStem: 83 53<42 491 42 491> 437 53<42 240 42 240 293 491> 680 20G<240 293 293 293>
VStem: 240 53<237 437 237 437 490 700>
LayerCount: 2
Fore
SplineSet
42 437 m 1
 42 490 l 1
 240 490 l 1
 240 700 l 1
 293 700 l 1
 293 490 l 1
 491 490 l 1
 491 437 l 1
 293 437 l 1
 293 237 l 1
 240 237 l 1
 240 437 l 1
 42 437 l 1
42 83 m 1
 42 136 l 1
 491 136 l 1
 491 83 l 1
 42 83 l 1
EndSplineSet
Validated: 1
EndChar

StartChar: twosuperior
Encoding: 178 178 116
Width: 431
GlyphClass: 2
Flags: MW
HStem: 386 63<170 307 170 382> 765 48<179.5 225.5>
VStem: 276 84<653.5 709.5>
LayerCount: 2
Fore
SplineSet
129 750 m 1
 109 639 l 1
 86 639 l 1
 68 665 43 739 40 765 c 1
 83 789 142 813 209 813 c 0
 326 813 360 760 360 697 c 0
 360 610 267 515 139 448 c 1
 139 442 l 1
 170 449 l 1
 307 449 l 1
 351 516 l 1
 373 516 l 1
 378 480 382 415 382 386 c 1
 43 386 l 1
 43 419 l 1
 152 480 276 595 276 684 c 0
 276 735 259 765 192 765 c 0
 167 765 146 760 129 750 c 1
EndSplineSet
Validated: 1
EndChar

StartChar: threesuperior
Encoding: 179 179 117
Width: 431
GlyphClass: 2
Flags: MW
HStem: 377 46<191 240> 578 47 753 51<140 229 140 140>
VStem: 298 84<481.5 527.5>
LayerCount: 2
Fore
SplineSet
207 423 m 0
 273 423 298 464 298 499 c 0
 298 556 269 578 194 578 c 2
 161 578 l 1
 161 604 l 1
 247 713 l 1
 291 755 l 1
 291 757 l 1
 229 753 l 1
 140 753 l 1
 104 661 l 1
 82 661 l 1
 67 694 54 775 54 804 c 1
 361 804 l 1
 361 768 l 1
 270 662 l 1
 231 622 l 1
 231 621 l 1
 262 625 l 1
 325 625 382 585 382 508 c 0
 382 421 307 377 195 377 c 0
 140 377 78 398 43 423 c 1
 77 515 l 1
 95 515 l 1
 108 502 131 459 144 433 c 1
 156 429 175 423 207 423 c 0
EndSplineSet
Validated: 1
EndChar

StartChar: acute
Encoding: 180 180 118
Width: 329
GlyphClass: 2
Flags: MW
HStem: 575 21G<82 82>
LayerCount: 2
Fore
SplineSet
60 593 m 1
 177 767 l 1
 198 770 253 758 269 745 c 1
 269 726 l 1
 82 575 l 1
 60 593 l 1
EndSplineSet
Validated: 33
EndChar

StartChar: mu
Encoding: 181 181 119
Width: 574
GlyphClass: 2
Flags: MW
HStem: -12 62<228.5 283.5> -10 21G<404 429 404 404> 492 20G<148 173 173 173 459 484 484 484>
VStem: 77 90<164 264.5 164 442> 394 90<167 442 442 442>
LayerCount: 2
Fore
SplineSet
140 15 m 1xb8
 134 15 l 1
 169 -175 l 1
 169 -200 l 1
 137 -209 106 -209 77 -200 c 1
 77 442 l 1
 17 450 l 1
 17 476 l 1
 60 492 105 504 148 512 c 1
 173 512 l 1
 173 412 167 313 167 216 c 0
 167 112 187 50 270 50 c 0xb8
 330 50 371 98 394 167 c 1
 394 442 l 1
 328 450 l 1
 328 476 l 1
 369 492 416 504 459 512 c 1
 484 512 l 1
 484 57 l 1
 550 49 l 1
 550 28 l 1
 511 11 472 -3 429 -10 c 1
 404 -10 l 1x78
 397 109 l 1
 393 109 l 1
 380 53 324 -12 243 -12 c 0
 200 -12 167 -5 140 15 c 1xb8
EndSplineSet
Validated: 33
EndChar

StartChar: paragraph
Encoding: 182 182 120
Width: 511
GlyphClass: 2
Flags: MW
HStem: -212 21G<148 148> 680 20G<261 451 451 451>
VStem: 60 225<430 556> 238 47<24 310 310 310> 329 47<94 646 94 651 94 651>
LayerCount: 2
Fore
SplineSet
376 646 m 1xe8
 376 94 l 2
 373 -85 325 -123 247 -139 c 1
 220 -182 183 -201 148 -212 c 1
 136 -192 l 1
 196 -168 238 -115 238 24 c 2
 238 310 l 1xd8
 154 310 60 360 60 500 c 0
 60 612 125 700 261 700 c 2
 451 700 l 1
 451 670 l 1
 428 659 407 651 376 646 c 1xe8
259 -116 m 1
 315 -93 329 -25 329 94 c 2
 329 651 l 1
 285 651 l 1
 285 24 l 2
 285 -29 278 -81 259 -116 c 1
EndSplineSet
Validated: 1
EndChar

StartChar: periodcentered
Encoding: 183 183 121
Width: 240
GlyphClass: 2
Flags: MW
HStem: 242 131<101 141.5>
VStem: 53 137<287.5 327>
LayerCount: 2
Fore
SplineSet
53 307 m 0
 53 347 81 373 121 373 c 0
 162 373 190 347 190 307 c 0
 190 268 162 242 121 242 c 0
 81 242 53 268 53 307 c 0
EndSplineSet
Validated: 1
EndChar

StartChar: cedilla
Encoding: 184 184 122
Width: 284
GlyphClass: 2
Flags: MW
HStem: -251 183<60 117> -105 37 -19 20G<98 143 143 143>
VStem: 143 80
LayerCount: 2
Fore
SplineSet
143 1 m 1x70
 117 -68 l 1
 190 -71 222 -96 223 -139 c 0
 226 -216 131 -254 60 -251 c 1xb0
 60 -221 l 1
 111 -214 144 -196 143 -155 c 0
 143 -122 117 -109 61 -105 c 1
 98 1 l 1
 143 1 l 1x70
EndSplineSet
Validated: 33
EndChar

StartChar: onesuperior
Encoding: 185 185 123
Width: 431
GlyphClass: 2
Flags: MW
HStem: 386 21G<85 365 85 85> 793 20G<234 265 265 265>
VStem: 186 79<441 688 688 688>
LayerCount: 2
Fore
SplineSet
365 407 m 1
 365 386 l 1
 85 386 l 1
 85 407 l 1
 121 422 153 434 186 441 c 1
 186 688 l 1
 190 733 l 1
 158 724 117 721 78 722 c 1
 78 751 l 1
 134 763 186 786 234 813 c 1
 265 813 l 1
 265 441 l 1
 300 433 334 423 365 407 c 1
EndSplineSet
Validated: 33
EndChar

StartChar: ordmasculine
Encoding: 186 186 124
Width: 435
GlyphClass: 2
Flags: MW
HStem: 372 37<187.5 247 187.5 267.5> 674 38<187 247>
VStem: 43 84<502 586 502 593.5> 307 84<497.5 586>
LayerCount: 2
Fore
SplineSet
43 542 m 0
 43 645 117 712 217 712 c 0
 318 712 391 657 391 542 c 0
 391 438 318 372 217 372 c 0
 117 372 43 427 43 542 c 0
127 542 m 0
 127 462 158 409 217 409 c 0
 277 409 307 453 307 542 c 0
 307 630 277 674 217 674 c 0
 157 674 127 630 127 542 c 0
EndSplineSet
Validated: 1
EndChar

StartChar: guillemotright
Encoding: 187 187 125
Width: 471
GlyphClass: 2
Flags: MW
HStem: 55 21G 446 20G
LayerCount: 2
Fore
SplineSet
253 259 m 1
 77 57 l 1
 53 77 l 1
 165 261 l 1
 58 445 l 1
 83 464 l 1
 253 259 l 1
446 259 m 1
 228 55 l 1
 202 76 l 1
 347 260 l 1
 207 446 l 1
 233 466 l 1
 446 259 l 1
EndSplineSet
Validated: 1
EndChar

StartChar: onequarter
Encoding: 188 188 126
Width: 938
GlyphClass: 2
Flags: MW
HStem: -7 21G<203 203> 0 164<625 698 777 836 625 625> 117 47<586 698 586 698 777 871> 689 20G<216 247 247 247> 690 20G<753 753>
VStem: 168 79<337 584 584 584> 698 79<45 117 45 117 164 294 294 294>
LayerCount: 2
Fore
SplineSet
347 303 m 1xb6
 347 282 l 1
 67 282 l 1
 67 303 l 1
 103 318 135 330 168 337 c 1
 168 584 l 1
 172 629 l 1
 140 620 99 617 60 618 c 1
 60 647 l 1
 116 659 168 682 216 709 c 1
 247 709 l 1
 247 337 l 1
 282 329 316 319 347 303 c 1xb6
169 25 m 1
 753 710 l 1xae
 788 679 l 1
 203 -7 l 1
 169 25 l 1
836 21 m 1
 836 0 l 1
 625 0 l 1x56
 625 21 l 1
 648 32 671 40 698 45 c 1
 698 117 l 1
 454 117 l 1
 454 141 l 1
 741 427 l 1
 777 427 l 1
 777 164 l 1
 871 164 l 1
 871 117 l 1
 777 117 l 1
 777 45 l 1
 796 41 813 36 836 21 c 1
698 164 m 1
 698 294 l 1
 708 337 l 1
 705 337 l 1
 670 294 l 1
 559 180 l 1
 523 157 l 1
 586 164 l 1
 698 164 l 1
EndSplineSet
Validated: 33
EndChar

StartChar: onehalf
Encoding: 189 189 127
Width: 1004
GlyphClass: 2
Flags: MW
HStem: -7 21G<203 203> 0 63<723 860 723 935> 379 48<732.5 778.5> 689 20G<216 247 247 247> 690 20G<753 753>
VStem: 168 79<337 584 584 584> 829 84<267.5 323.5>
LayerCount: 2
Fore
SplineSet
347 303 m 1xb6
 347 282 l 1
 67 282 l 1
 67 303 l 1
 103 318 135 330 168 337 c 1
 168 584 l 1
 172 629 l 1
 140 620 99 617 60 618 c 1
 60 647 l 1
 116 659 168 682 216 709 c 1
 247 709 l 1
 247 337 l 1
 282 329 316 319 347 303 c 1xb6
169 25 m 1
 753 710 l 1x6e
 788 679 l 1
 203 -7 l 1
 169 25 l 1
682 364 m 1
 662 253 l 1
 639 253 l 1
 621 279 596 353 593 379 c 1
 636 403 695 427 762 427 c 0
 879 427 913 374 913 311 c 0
 913 224 820 129 692 62 c 1
 692 56 l 1
 723 63 l 1
 860 63 l 1
 904 130 l 1
 926 130 l 1
 931 94 935 29 935 0 c 1
 596 0 l 1
 596 33 l 1
 705 94 829 209 829 298 c 0
 829 349 812 379 745 379 c 0
 720 379 699 374 682 364 c 1
EndSplineSet
Validated: 33
EndChar

StartChar: threequarters
Encoding: 190 190 128
Width: 991
GlyphClass: 2
Flags: MW
HStem: -7 21G<255 255> 0 164<677 750 829 888 677 677> 117 47<638 750 638 750 829 923> 273 46<216 265> 474 47 649 51<165 254 165 165> 690 20G<805 805>
VStem: 323 84<377.5 423.5> 750 79<45 117 45 117 164 294 294 294>
LayerCount: 2
Fore
SplineSet
221 25 m 1xbb80
 805 710 l 1
 840 679 l 1
 255 -7 l 1
 221 25 l 1xbb80
888 21 m 1
 888 0 l 1
 677 0 l 1x5d80
 677 21 l 1
 700 32 723 40 750 45 c 1
 750 117 l 1
 506 117 l 1
 506 141 l 1
 793 427 l 1
 829 427 l 1
 829 164 l 1
 923 164 l 1
 923 117 l 1
 829 117 l 1
 829 45 l 1
 848 41 865 36 888 21 c 1
750 164 m 1
 750 294 l 1
 760 337 l 1
 757 337 l 1
 722 294 l 1
 611 180 l 1
 575 157 l 1
 638 164 l 1
 750 164 l 1
232 319 m 0
 298 319 323 360 323 395 c 0
 323 452 294 474 219 474 c 2
 186 474 l 1
 186 500 l 1
 272 609 l 1
 316 651 l 1
 316 653 l 1
 254 649 l 1
 165 649 l 1
 129 557 l 1
 107 557 l 1
 92 590 79 671 79 700 c 1
 386 700 l 1
 386 664 l 1
 295 558 l 1
 256 518 l 1
 256 517 l 1
 287 521 l 1
 350 521 407 481 407 404 c 0
 407 317 332 273 220 273 c 0
 165 273 103 294 68 319 c 1
 102 411 l 1
 120 411 l 1
 133 398 156 355 169 329 c 1
 181 325 200 319 232 319 c 0
EndSplineSet
Validated: 1
EndChar

StartChar: questiondown
Encoding: 191 191 129
Width: 473
GlyphClass: 2
Flags: MW
HStem: -208 52<202.5 257> 381 131<242.5 283>
VStem: 35 96<-64.5 35.5 -64.5 46> 194 136<426.5 466>
LayerCount: 2
Fore
SplineSet
323 -138 m 1
 346 -15 l 1
 371 -15 l 1
 382 -51 398 -114 403 -166 c 1
 352 -197 299 -208 215 -208 c 0
 96 -208 35 -138 35 -45 c 0
 35 137 258 155 258 323 c 1
 278 323 l 1
 326 131 131 106 131 -35 c 0
 131 -94 162 -156 243 -156 c 0
 286 -156 312 -149 323 -138 c 1
330 446 m 0
 330 407 303 381 263 381 c 0
 222 381 194 407 194 446 c 0
 194 486 222 512 263 512 c 0
 303 512 330 486 330 446 c 0
EndSplineSet
Validated: 33
EndChar

StartChar: Agrave
Encoding: 192 192 130
Width: 683
GlyphClass: 2
Flags: MW
HStem: 0 21G<0 222 0 0 427 427 427 683> 236 52<222 424 222 441 202 424> 692 20G<325 354 354 354>
LayerCount: 2
Fore
SplineSet
222 29 m 1
 222 0 l 1
 0 0 l 1
 0 29 l 1
 24 40 48 48 72 53 c 1
 325 712 l 1
 354 712 l 1
 607 53 l 1
 634 48 660 42 683 29 c 1
 683 0 l 1
 427 0 l 1
 427 29 l 1
 454 40 482 48 509 53 c 1
 441 236 l 1
 202 236 l 1
 136 53 l 1
 164 49 193 41 222 29 c 1
299 498 m 1
 222 288 l 1
 424 288 l 1
 345 500 l 1
 326 586 l 1
 324 586 l 1
 299 498 l 1
225 893 m 1
 370 769 l 1
 352 750 l 1
 127 841 l 1
 127 861 l 1
 144 880 203 896 225 893 c 1
EndSplineSet
Validated: 33
EndChar

StartChar: Aacute
Encoding: 193 193 131
Width: 683
GlyphClass: 2
Flags: MW
HStem: 0 21G<0 222 0 0 427 427 427 683> 236 52<222 424 222 441 202 424> 692 20G<325 354 354 354>
LayerCount: 2
Fore
SplineSet
222 29 m 1
 222 0 l 1
 0 0 l 1
 0 29 l 1
 24 40 48 48 72 53 c 1
 325 712 l 1
 354 712 l 1
 607 53 l 1
 634 48 660 42 683 29 c 1
 683 0 l 1
 427 0 l 1
 427 29 l 1
 454 40 482 48 509 53 c 1
 441 236 l 1
 202 236 l 1
 136 53 l 1
 164 49 193 41 222 29 c 1
299 498 m 1
 222 288 l 1
 424 288 l 1
 345 500 l 1
 326 586 l 1
 324 586 l 1
 299 498 l 1
305 769 m 1
 451 893 l 1
 475 896 531 880 548 861 c 1
 548 841 l 1
 322 750 l 1
 305 769 l 1
EndSplineSet
Validated: 33
EndChar

StartChar: Acircumflex
Encoding: 194 194 132
Width: 683
GlyphClass: 2
Flags: MW
HStem: 0 21G<0 222 0 0 427 427 427 683> 236 52<222 424 222 441 202 424> 692 20G<325 354 354 354>
LayerCount: 2
Fore
SplineSet
222 29 m 1
 222 0 l 1
 0 0 l 1
 0 29 l 1
 24 40 48 48 72 53 c 1
 325 712 l 1
 354 712 l 1
 607 53 l 1
 634 48 660 42 683 29 c 1
 683 0 l 1
 427 0 l 1
 427 29 l 1
 454 40 482 48 509 53 c 1
 441 236 l 1
 202 236 l 1
 136 53 l 1
 164 49 193 41 222 29 c 1
299 498 m 1
 222 288 l 1
 424 288 l 1
 345 500 l 1
 326 586 l 1
 324 586 l 1
 299 498 l 1
338 809 m 1
 216 752 l 1
 202 771 l 1
 329 883 l 2
 336 887 347 888 355 883 c 2
 480 774 l 1
 465 753 l 1
 338 809 l 1
EndSplineSet
Validated: 1
EndChar

StartChar: Atilde
Encoding: 195 195 133
Width: 683
GlyphClass: 2
Flags: MW
HStem: 0 21G<0 222 0 0 427 427 427 683> 236 52<222 424 222 441 202 424> 692 20G<325 354 354 354> 765 65<366 440.5> 799 31 799 63<251.5 329.5>
LayerCount: 2
Fore
SplineSet
222 29 m 1xe8
 222 0 l 1
 0 0 l 1
 0 29 l 1
 24 40 48 48 72 53 c 1
 325 712 l 1
 354 712 l 1
 607 53 l 1
 634 48 660 42 683 29 c 1
 683 0 l 1
 427 0 l 1
 427 29 l 1
 454 40 482 48 509 53 c 1
 441 236 l 1
 202 236 l 1
 136 53 l 1
 164 49 193 41 222 29 c 1xe8
299 498 m 1
 222 288 l 1
 424 288 l 1
 345 500 l 1
 326 586 l 1
 324 586 l 1
 299 498 l 1
488 850 m 1
 501 821 l 1
 458 778 424 765 391 765 c 0xf0
 341 765 303 799 261 799 c 0
 242 799 223 793 202 774 c 1
 183 803 l 1
 234 848 272 862 305 862 c 0xe4
 354 862 389 830 432 830 c 0
 449 830 467 835 488 850 c 1
EndSplineSet
Validated: 1
EndChar

StartChar: Adieresis
Encoding: 196 196 134
Width: 683
GlyphClass: 2
Flags: MW
HStem: 0 21G<0 222 0 0 427 427 427 683> 236 52<222 424 222 441 202 424> 692 20G<325 354 354 354> 742 95<214.5 247 437 469.5>
VStem: 174 113<773.5 805> 397 113<773.5 805>
LayerCount: 2
Fore
SplineSet
222 29 m 1
 222 0 l 1
 0 0 l 1
 0 29 l 1
 24 40 48 48 72 53 c 1
 325 712 l 1
 354 712 l 1
 607 53 l 1
 634 48 660 42 683 29 c 1
 683 0 l 1
 427 0 l 1
 427 29 l 1
 454 40 482 48 509 53 c 1
 441 236 l 1
 202 236 l 1
 136 53 l 1
 164 49 193 41 222 29 c 1
299 498 m 1
 222 288 l 1
 424 288 l 1
 345 500 l 1
 326 586 l 1
 324 586 l 1
 299 498 l 1
174 789 m 0
 174 821 198 837 231 837 c 0
 263 837 287 821 287 789 c 0
 287 758 263 742 231 742 c 0
 198 742 174 758 174 789 c 0
397 789 m 0
 397 821 421 837 453 837 c 0
 486 837 510 821 510 789 c 0
 510 758 486 742 453 742 c 0
 421 742 397 758 397 789 c 0
EndSplineSet
Validated: 1
EndChar

StartChar: Aring
Encoding: 197 197 135
Width: 683
GlyphClass: 2
Flags: MW
HStem: 0 21G<0 222 0 0 427 683 427 427> 236 52<222 424 222 441 202 424> 709 41<355 355> 833 41<326.5 355.5>
VStem: 230 56<774.5 805.5 774.5 814.5> 398 56<774.5 804.5>
LayerCount: 2
Fore
SplineSet
230 788 m 0
 230 841 282 874 345 874 c 0
 397 874 454 849 454 791 c 0
 454 742 408 713 355 709 c 1
 607 53 l 1
 634 48 660 42 683 29 c 1
 683 0 l 1
 427 0 l 1
 427 29 l 1
 454 40 482 48 509 53 c 1
 441 236 l 1
 202 236 l 1
 136 53 l 1
 164 49 193 41 222 29 c 1
 222 0 l 1
 0 0 l 1
 0 29 l 1
 24 40 48 48 72 53 c 1
 324 710 l 1
 268 715 230 743 230 788 c 0
299 498 m 1
 222 288 l 1
 424 288 l 1
 345 500 l 1
 326 586 l 1
 324 586 l 1
 299 498 l 1
286 788 m 0
 286 761 315 750 340 750 c 0
 375 750 398 762 398 787 c 0
 398 822 368 833 343 833 c 0
 310 833 286 823 286 788 c 0
EndSplineSet
Validated: 1
EndChar

StartChar: AE
Encoding: 198 198 136
Width: 921
GlyphClass: 2
Flags: MW
HStem: 0 52<547 777 547 862> 256 52<285 451 285 451 255 451> 331 52<547 709 547 709> 648 52<547 764 547 547>
VStem: 451 96<53 256 256 256 308 331 383 611 611 611>
LayerCount: 2
Fore
SplineSet
368 700 m 1
 842 700 l 1
 841 647 839 593 831 538 c 1
 806 538 l 1
 764 648 l 1
 547 648 l 1
 547 383 l 1
 709 383 l 1
 749 457 l 1
 773 457 l 1
 778 391 778 324 773 255 c 1
 749 255 l 1
 709 331 l 1
 547 331 l 1
 547 52 l 1
 777 52 l 1
 825 172 l 1
 851 172 l 1
 859 116 865 59 862 0 c 1
 369 0 l 1
 369 29 l 1
 392 40 420 48 451 53 c 1
 451 256 l 1
 255 256 l 1
 139 53 l 1
 166 49 195 41 224 29 c 1
 224 0 l 1
 0 0 l 1
 0 29 l 1
 24 40 48 48 72 53 c 1
 426 652 l 1
 407 657 387 663 368 671 c 1
 368 700 l 1
408 518 m 1
 285 308 l 1
 451 308 l 1
 451 611 l 1
 449 611 l 1
 408 518 l 1
EndSplineSet
Validated: 33
EndChar

StartChar: Ccedilla
Encoding: 199 199 137
Width: 644
GlyphClass: 2
Flags: MW
HStem: -272 197<304 368> -116 41 -12 52<392 422.5> 486 20G<537 563 537 537> 660 52<332 414.5>
VStem: 53 99<255 456 255 480> 397 88
LayerCount: 2
Fore
SplineSet
500 58 m 1x7e
 547 182 l 1
 573 182 l 1
 580 145 587 82 584 29 c 1
 539 -6 453 -12 392 -12 c 1
 368 -75 l 1
 448 -76 485 -107 485 -154 c 0
 485 -234 381 -272 304 -272 c 1xbe
 304 -239 l 1
 357 -231 398 -211 397 -172 c 0
 396 -135 367 -120 307 -116 c 1
 343 -8 l 1
 159 12 53 123 53 350 c 0
 53 610 208 712 388 712 c 0
 476 712 533 701 578 678 c 1
 578 636 571 556 563 506 c 1
 537 506 l 1
 485 650 l 1
 470 658 431 660 398 660 c 0
 266 660 152 562 152 350 c 0
 152 160 251 40 416 40 c 0
 460 40 491 47 500 58 c 1x7e
EndSplineSet
Validated: 33
EndChar

StartChar: Egrave
Encoding: 200 200 138
Width: 582
GlyphClass: 2
Flags: MW
HStem: 0 52<207 437 207 522> 331 52<207 370 207 370> 648 52<207 425 207 207>
VStem: 111 96<53 331 383 646 646 646>
LayerCount: 2
Fore
SplineSet
29 700 m 1
 503 700 l 1
 502 647 499 593 492 538 c 1
 466 538 l 1
 425 648 l 1
 207 648 l 1
 207 383 l 1
 370 383 l 1
 409 457 l 1
 434 457 l 1
 438 391 438 324 434 255 c 1
 409 255 l 1
 370 331 l 1
 207 331 l 1
 207 52 l 1
 437 52 l 1
 486 172 l 1
 511 172 l 1
 520 116 525 59 522 0 c 1
 29 0 l 1
 29 29 l 1
 52 40 80 48 111 53 c 1
 111 646 l 1
 84 651 56 660 29 671 c 1
 29 700 l 1
211 893 m 1
 356 769 l 1
 338 750 l 1
 113 841 l 1
 113 861 l 1
 130 880 189 896 211 893 c 1
EndSplineSet
Validated: 33
EndChar

StartChar: Eacute
Encoding: 201 201 139
Width: 582
GlyphClass: 2
Flags: MW
HStem: 0 52<207 437 207 522> 331 52<207 370 207 370> 648 52<207 425 207 207>
VStem: 111 96<53 331 383 646 646 646>
LayerCount: 2
Fore
SplineSet
29 700 m 1
 503 700 l 1
 502 647 499 593 492 538 c 1
 466 538 l 1
 425 648 l 1
 207 648 l 1
 207 383 l 1
 370 383 l 1
 409 457 l 1
 434 457 l 1
 438 391 438 324 434 255 c 1
 409 255 l 1
 370 331 l 1
 207 331 l 1
 207 52 l 1
 437 52 l 1
 486 172 l 1
 511 172 l 1
 520 116 525 59 522 0 c 1
 29 0 l 1
 29 29 l 1
 52 40 80 48 111 53 c 1
 111 646 l 1
 84 651 56 660 29 671 c 1
 29 700 l 1
215 769 m 1
 361 893 l 1
 385 896 441 880 458 861 c 1
 458 841 l 1
 232 750 l 1
 215 769 l 1
EndSplineSet
Validated: 33
EndChar

StartChar: Ecircumflex
Encoding: 202 202 140
Width: 582
GlyphClass: 2
Flags: MW
HStem: 0 52<207 437 207 522> 331 52<207 370 207 370> 648 52<207 425 207 207>
VStem: 111 96<53 331 383 646 646 646>
LayerCount: 2
Fore
SplineSet
29 700 m 1
 503 700 l 1
 502 647 499 593 492 538 c 1
 466 538 l 1
 425 648 l 1
 207 648 l 1
 207 383 l 1
 370 383 l 1
 409 457 l 1
 434 457 l 1
 438 391 438 324 434 255 c 1
 409 255 l 1
 370 331 l 1
 207 331 l 1
 207 52 l 1
 437 52 l 1
 486 172 l 1
 511 172 l 1
 520 116 525 59 522 0 c 1
 29 0 l 1
 29 29 l 1
 52 40 80 48 111 53 c 1
 111 646 l 1
 84 651 56 660 29 671 c 1
 29 700 l 1
297 809 m 1
 175 752 l 1
 161 771 l 1
 288 883 l 2
 295 887 306 888 314 883 c 2
 439 774 l 1
 424 753 l 1
 297 809 l 1
EndSplineSet
Validated: 33
EndChar

StartChar: Edieresis
Encoding: 203 203 141
Width: 582
GlyphClass: 2
Flags: MW
HStem: 0 52<207 437 207 522> 331 52<207 370 207 370> 648 52<207 425 207 207> 742 95<159.5 192 382 414.5>
VStem: 111 96<53 331 383 646 646 646> 111 121 342 113<773.5 805>
LayerCount: 2
Fore
SplineSet
29 700 m 1xfa
 503 700 l 1
 502 647 499 593 492 538 c 1
 466 538 l 1
 425 648 l 1
 207 648 l 1
 207 383 l 1
 370 383 l 1
 409 457 l 1
 434 457 l 1
 438 391 438 324 434 255 c 1
 409 255 l 1
 370 331 l 1
 207 331 l 1
 207 52 l 1
 437 52 l 1
 486 172 l 1
 511 172 l 1
 520 116 525 59 522 0 c 1
 29 0 l 1
 29 29 l 1
 52 40 80 48 111 53 c 1
 111 646 l 1
 84 651 56 660 29 671 c 1
 29 700 l 1xfa
119 789 m 0
 119 821 143 837 176 837 c 0
 208 837 232 821 232 789 c 0xf6
 232 758 208 742 176 742 c 0
 143 742 119 758 119 789 c 0
342 789 m 0
 342 821 366 837 398 837 c 0
 431 837 455 821 455 789 c 0
 455 758 431 742 398 742 c 0
 366 742 342 758 342 789 c 0
EndSplineSet
Validated: 33
EndChar

StartChar: Igrave
Encoding: 204 204 142
Width: 352
GlyphClass: 2
Flags: MW
HStem: 0 21G<48 304 48 48> 680 20G<48 304 304 304>
VStem: 128 96<53 646 53 646>
LayerCount: 2
Fore
SplineSet
304 29 m 1
 304 0 l 1
 48 0 l 1
 48 29 l 1
 74 41 101 49 128 53 c 1
 128 646 l 1
 101 651 75 660 48 671 c 1
 48 700 l 1
 304 700 l 1
 304 671 l 1
 280 660 251 651 224 646 c 1
 224 53 l 1
 252 48 281 40 304 29 c 1
134 893 m 1
 279 769 l 1
 261 750 l 1
 36 841 l 1
 36 861 l 1
 53 880 112 896 134 893 c 1
EndSplineSet
Validated: 33
EndChar

StartChar: Iacute
Encoding: 205 205 143
Width: 352
GlyphClass: 2
Flags: MW
HStem: 0 21G<48 304 48 48> 680 20G<48 304 304 304>
VStem: 128 96<53 646 53 646>
LayerCount: 2
Fore
SplineSet
304 29 m 1
 304 0 l 1
 48 0 l 1
 48 29 l 1
 74 41 101 49 128 53 c 1
 128 646 l 1
 101 651 75 660 48 671 c 1
 48 700 l 1
 304 700 l 1
 304 671 l 1
 280 660 251 651 224 646 c 1
 224 53 l 1
 252 48 281 40 304 29 c 1
94 769 m 1
 240 893 l 1
 264 896 320 880 337 861 c 1
 337 841 l 1
 111 750 l 1
 94 769 l 1
EndSplineSet
Validated: 33
EndChar

StartChar: Icircumflex
Encoding: 206 206 144
Width: 352
GlyphClass: 2
Flags: MW
HStem: 0 21G<48 304 48 48> 680 20G<48 304 304 304>
VStem: 128 96<53 646 53 646>
LayerCount: 2
Fore
SplineSet
304 29 m 1
 304 0 l 1
 48 0 l 1
 48 29 l 1
 74 41 101 49 128 53 c 1
 128 646 l 1
 101 651 75 660 48 671 c 1
 48 700 l 1
 304 700 l 1
 304 671 l 1
 280 660 251 651 224 646 c 1
 224 53 l 1
 252 48 281 40 304 29 c 1
174 809 m 1
 52 752 l 1
 38 771 l 1
 165 883 l 2
 172 887 183 888 191 883 c 2
 316 774 l 1
 301 753 l 1
 174 809 l 1
EndSplineSet
Validated: 1
EndChar

StartChar: Idieresis
Encoding: 207 207 145
Width: 352
GlyphClass: 2
Flags: MW
HStem: 0 21G<48 304 48 48> 680 20G<48 304 304 304> 742 95<49.5 82 272 304.5>
VStem: 9 113<773.5 805> 128 96<53 646 53 646> 232 113<773.5 805>
LayerCount: 2
Fore
SplineSet
304 29 m 1
 304 0 l 1
 48 0 l 1
 48 29 l 1
 74 41 101 49 128 53 c 1
 128 646 l 1
 101 651 75 660 48 671 c 1
 48 700 l 1
 304 700 l 1
 304 671 l 1
 280 660 251 651 224 646 c 1
 224 53 l 1
 252 48 281 40 304 29 c 1
9 789 m 0
 9 821 33 837 66 837 c 0
 98 837 122 821 122 789 c 0
 122 758 98 742 66 742 c 0
 33 742 9 758 9 789 c 0
232 789 m 0
 232 821 256 837 288 837 c 0
 321 837 345 821 345 789 c 0
 345 758 321 742 288 742 c 0
 256 742 232 758 232 789 c 0
EndSplineSet
Validated: 1
EndChar

StartChar: Eth
Encoding: 208 208 146
Width: 709
GlyphClass: 2
Flags: MW
HStem: -9 52<288.5 387.5 288.5 410> 0 21G<29 125 29 29> 332 52<22 111 22 111 201 368> 656 52<283 386> 680 20G<29 131 131 153>
VStem: 111 90<53 332 46 332 384 646 646 646> 549 107<275.5 424.5>
LayerCount: 2
Fore
SplineSet
22 332 m 1x76
 22 384 l 1
 111 384 l 1
 111 646 l 1
 80 653 52 662 29 671 c 1
 29 700 l 1
 131 700 l 2xae
 175 700 263 708 303 708 c 0
 529 708 656 580 656 359 c 0
 656 148 538 -9 282 -9 c 0xb6
 244 -9 175 0 125 0 c 2
 29 0 l 1
 29 29 l 1
 52 40 80 48 111 53 c 1
 111 332 l 1
 22 332 l 1x76
289 656 m 0xb6
 254 656 220 656 201 652 c 1
 201 384 l 1
 368 384 l 1
 368 332 l 1
 201 332 l 1
 201 46 l 1
 215 43 281 43 296 43 c 0
 479 43 549 192 549 359 c 0
 549 490 483 656 289 656 c 0xb6
EndSplineSet
Validated: 1
EndChar

StartChar: Ntilde
Encoding: 209 209 147
Width: 732
GlyphClass: 2
Flags: MW
HStem: -12 21G<564 621 564 564> 0 21G<29 245 29 29> 680 20G<35 204 204 204 487 703 703 703> 765 65<390 464.5> 799 31 799 63<275.5 353.5>
VStem: 111 57<64 539 64 637> 564 57<-12 631 225 631 -12 631>
LayerCount: 2
Fore
SplineSet
487 671 m 1x73
 487 700 l 1
 703 700 l 1
 703 671 l 1
 675 652 648 639 621 631 c 1
 621 -12 l 1
 564 -12 l 1xab
 201 539 l 1
 162 617 l 1
 159 617 l 1
 168 539 l 1
 168 64 l 1
 195 57 221 45 245 29 c 1
 245 0 l 1
 29 0 l 1
 29 29 l 1
 53 44 80 55 111 64 c 1
 111 637 l 1
 84 648 58 660 35 672 c 1
 35 700 l 1
 204 700 l 1
 519 225 l 1
 565 139 l 1
 569 139 l 1
 564 225 l 1
 564 631 l 1
 536 643 510 656 487 671 c 1x73
512 850 m 1
 525 821 l 1
 482 778 448 765 415 765 c 0x73
 365 765 327 799 285 799 c 0
 266 799 247 793 226 774 c 1
 207 803 l 1
 258 848 296 862 329 862 c 0x67
 378 862 413 830 456 830 c 0
 473 830 491 835 512 850 c 1
EndSplineSet
Validated: 1
EndChar

StartChar: Ograve
Encoding: 210 210 148
Width: 740
GlyphClass: 2
Flags: MW
HStem: -12 52<305 447 305 470> 660 52<288.5 436.5>
VStem: 53 107<264.5 435.5 264.5 454.5> 580 107<264.5 435.5>
LayerCount: 2
Fore
SplineSet
53 350 m 0
 53 559 170 712 370 712 c 0
 570 712 687 559 687 350 c 0
 687 141 570 -12 370 -12 c 0
 170 -12 53 141 53 350 c 0
160 350 m 0
 160 179 231 40 379 40 c 0
 515 40 580 179 580 350 c 0
 580 521 511 660 362 660 c 0
 215 660 160 521 160 350 c 0
293 893 m 1
 438 769 l 1
 420 750 l 1
 195 841 l 1
 195 861 l 1
 212 880 271 896 293 893 c 1
EndSplineSet
Validated: 33
EndChar

StartChar: Oacute
Encoding: 211 211 149
Width: 740
GlyphClass: 2
Flags: MW
HStem: -12 52<305 447 305 470> 660 52<288.5 436.5>
VStem: 53 107<264.5 435.5 264.5 454.5> 580 107<264.5 435.5>
LayerCount: 2
Fore
SplineSet
53 350 m 0
 53 559 170 712 370 712 c 0
 570 712 687 559 687 350 c 0
 687 141 570 -12 370 -12 c 0
 170 -12 53 141 53 350 c 0
160 350 m 0
 160 179 231 40 379 40 c 0
 515 40 580 179 580 350 c 0
 580 521 511 660 362 660 c 0
 215 660 160 521 160 350 c 0
276 769 m 1
 422 893 l 1
 446 896 502 880 519 861 c 1
 519 841 l 1
 293 750 l 1
 276 769 l 1
EndSplineSet
Validated: 33
EndChar

StartChar: Ocircumflex
Encoding: 212 212 150
Width: 740
GlyphClass: 2
Flags: MW
HStem: -12 52<305 447 305 470> 660 52<288.5 436.5>
VStem: 53 107<264.5 435.5 264.5 454.5> 580 107<264.5 435.5>
LayerCount: 2
Fore
SplineSet
53 350 m 0
 53 559 170 712 370 712 c 0
 570 712 687 559 687 350 c 0
 687 141 570 -12 370 -12 c 0
 170 -12 53 141 53 350 c 0
160 350 m 0
 160 179 231 40 379 40 c 0
 515 40 580 179 580 350 c 0
 580 521 511 660 362 660 c 0
 215 660 160 521 160 350 c 0
367 809 m 1
 245 752 l 1
 231 771 l 1
 358 883 l 2
 365 887 376 888 384 883 c 2
 509 774 l 1
 494 753 l 1
 367 809 l 1
EndSplineSet
Validated: 1
EndChar

StartChar: Otilde
Encoding: 213 213 151
Width: 740
GlyphClass: 2
Flags: MW
HStem: -12 52<305 447 305 470> 660 52<288.5 436.5> 765 65<394 468.5> 799 31 799 63<279.5 357.5>
VStem: 53 107<264.5 435.5 264.5 454.5> 580 107<264.5 435.5>
LayerCount: 2
Fore
SplineSet
53 350 m 0xd6
 53 559 170 712 370 712 c 0
 570 712 687 559 687 350 c 0
 687 141 570 -12 370 -12 c 0
 170 -12 53 141 53 350 c 0xd6
160 350 m 0
 160 179 231 40 379 40 c 0
 515 40 580 179 580 350 c 0
 580 521 511 660 362 660 c 0
 215 660 160 521 160 350 c 0
516 850 m 1
 529 821 l 1
 486 778 452 765 419 765 c 0xe6
 369 765 331 799 289 799 c 0
 270 799 251 793 230 774 c 1
 211 803 l 1
 262 848 300 862 333 862 c 0xce
 382 862 417 830 460 830 c 0
 477 830 495 835 516 850 c 1
EndSplineSet
Validated: 1
EndChar

StartChar: Odieresis
Encoding: 214 214 152
Width: 740
GlyphClass: 2
Flags: MW
HStem: -12 52<305 447 305 470> 660 52<288.5 436.5> 742 95<242.5 275 465 497.5>
VStem: 53 107<264.5 435.5 264.5 454.5> 202 113<773.5 805> 425 113<773.5 805> 580 107<264.5 435.5>
LayerCount: 2
Fore
SplineSet
53 350 m 0
 53 559 170 712 370 712 c 0
 570 712 687 559 687 350 c 0
 687 141 570 -12 370 -12 c 0
 170 -12 53 141 53 350 c 0
160 350 m 0
 160 179 231 40 379 40 c 0
 515 40 580 179 580 350 c 0
 580 521 511 660 362 660 c 0
 215 660 160 521 160 350 c 0
202 789 m 0
 202 821 226 837 259 837 c 0
 291 837 315 821 315 789 c 0
 315 758 291 742 259 742 c 0
 226 742 202 758 202 789 c 0
425 789 m 0
 425 821 449 837 481 837 c 0
 514 837 538 821 538 789 c 0
 538 758 514 742 481 742 c 0
 449 742 425 758 425 789 c 0
EndSplineSet
Validated: 1
EndChar

StartChar: multiply
Encoding: 215 215 153
Width: 533
GlyphClass: 2
Flags: MW
HStem: 164 21G<408 408> 502 20G<406 406>
LayerCount: 2
Fore
SplineSet
125 167 m 1
 88 204 l 1
 228 344 l 1
 90 483 l 1
 127 520 l 1
 266 382 l 1
 406 522 l 1
 443 485 l 1
 303 345 l 1
 446 202 l 1
 408 164 l 1
 265 307 l 1
 125 167 l 1
EndSplineSet
Validated: 1
EndChar

StartChar: Oslash
Encoding: 216 216 154
Width: 740
GlyphClass: 2
Flags: MW
HStem: -13 21G<176 176> -12 52<350.5 447 350.5 470> 660 52<288.5 390> 693 20G<565 565>
VStem: 53 107<310 435.5 310 454.5> 580 107<264.5 390>
LayerCount: 2
Fore
SplineSet
53 350 m 0xac
 53 559 170 712 370 712 c 0x6c
 435 712 490 695 537 667 c 1
 565 713 l 1
 616 684 l 1
 582 631 l 1
 650 566 687 467 687 350 c 0
 687 141 570 -12 370 -12 c 0x5c
 306 -12 251 4 204 31 c 1
 176 -13 l 1
 129 16 l 1
 159 65 l 1
 90 130 53 230 53 350 c 0xac
160 350 m 0
 160 270 176 198 208 143 c 1
 498 606 l 1
 463 641 418 660 362 660 c 0
 215 660 160 521 160 350 c 0
580 350 m 0
 580 430 565 499 533 554 c 1
 244 93 l 1
 279 58 322 40 379 40 c 0
 515 40 580 179 580 350 c 0
EndSplineSet
Validated: 1
EndChar

StartChar: Ugrave
Encoding: 217 217 155
Width: 672
GlyphClass: 2
Flags: MW
HStem: -9 60<306 413.5 306 419.5> 680 20G<10 264 264 264 449 662 662 662>
VStem: 92 96<221 237 237 646> 528 56<238 637>
LayerCount: 2
Fore
SplineSet
10 671 m 1
 10 700 l 1
 264 700 l 1
 264 671 l 1
 239 660 213 653 188 646 c 1
 188 237 l 2
 188 97 251 51 361 51 c 0
 466 51 528 105 528 238 c 2
 528 637 l 1
 497 648 470 659 449 671 c 1
 449 700 l 1
 662 700 l 1
 662 671 l 1
 637 656 611 644 584 637 c 1
 584 236 l 2
 584 66 490 -9 349 -9 c 0
 182 -9 92 65 92 221 c 2
 92 646 l 1
 65 650 37 658 10 671 c 1
256 893 m 1
 401 769 l 1
 383 750 l 1
 158 841 l 1
 158 861 l 1
 175 880 234 896 256 893 c 1
EndSplineSet
Validated: 33
EndChar

StartChar: Uacute
Encoding: 218 218 156
Width: 672
GlyphClass: 2
Flags: MW
HStem: -9 60<306 413.5 306 419.5> 680 20G<10 264 264 264 449 662 662 662>
VStem: 92 96<221 237 237 646> 528 56<238 637>
LayerCount: 2
Fore
SplineSet
10 671 m 1
 10 700 l 1
 264 700 l 1
 264 671 l 1
 239 660 213 653 188 646 c 1
 188 237 l 2
 188 97 251 51 361 51 c 0
 466 51 528 105 528 238 c 2
 528 637 l 1
 497 648 470 659 449 671 c 1
 449 700 l 1
 662 700 l 1
 662 671 l 1
 637 656 611 644 584 637 c 1
 584 236 l 2
 584 66 490 -9 349 -9 c 0
 182 -9 92 65 92 221 c 2
 92 646 l 1
 65 650 37 658 10 671 c 1
319 769 m 1
 465 893 l 1
 489 896 545 880 562 861 c 1
 562 841 l 1
 336 750 l 1
 319 769 l 1
EndSplineSet
Validated: 33
EndChar

StartChar: Ucircumflex
Encoding: 219 219 157
Width: 672
GlyphClass: 2
Flags: MW
HStem: -9 60<306 413.5 306 419.5> 680 20G<10 264 264 264 449 662 662 662>
VStem: 92 96<221 237 237 646> 528 56<238 637>
LayerCount: 2
Fore
SplineSet
10 671 m 1
 10 700 l 1
 264 700 l 1
 264 671 l 1
 239 660 213 653 188 646 c 1
 188 237 l 2
 188 97 251 51 361 51 c 0
 466 51 528 105 528 238 c 2
 528 637 l 1
 497 648 470 659 449 671 c 1
 449 700 l 1
 662 700 l 1
 662 671 l 1
 637 656 611 644 584 637 c 1
 584 236 l 2
 584 66 490 -9 349 -9 c 0
 182 -9 92 65 92 221 c 2
 92 646 l 1
 65 650 37 658 10 671 c 1
354 809 m 1
 232 752 l 1
 218 771 l 1
 345 883 l 2
 352 887 363 888 371 883 c 2
 496 774 l 1
 481 753 l 1
 354 809 l 1
EndSplineSet
Validated: 1
EndChar

StartChar: Udieresis
Encoding: 220 220 158
Width: 672
GlyphClass: 2
Flags: MW
HStem: -9 60<306 413.5 306 419.5> 680 20G<10 264 264 264 449 662 662 662> 742 95<229.5 262 452 484.5>
VStem: 92 96<221 237 237 646> 189 113<773.5 805> 412 113<773.5 805> 528 56<238 637>
LayerCount: 2
Fore
SplineSet
10 671 m 1
 10 700 l 1
 264 700 l 1
 264 671 l 1
 239 660 213 653 188 646 c 1
 188 237 l 2
 188 97 251 51 361 51 c 0
 466 51 528 105 528 238 c 2
 528 637 l 1
 497 648 470 659 449 671 c 1
 449 700 l 1
 662 700 l 1
 662 671 l 1
 637 656 611 644 584 637 c 1
 584 236 l 2
 584 66 490 -9 349 -9 c 0
 182 -9 92 65 92 221 c 2
 92 646 l 1
 65 650 37 658 10 671 c 1
189 789 m 0
 189 821 213 837 246 837 c 0
 278 837 302 821 302 789 c 0
 302 758 278 742 246 742 c 0
 213 742 189 758 189 789 c 0
412 789 m 0
 412 821 436 837 468 837 c 0
 501 837 525 821 525 789 c 0
 525 758 501 742 468 742 c 0
 436 742 412 758 412 789 c 0
EndSplineSet
Validated: 1
EndChar

StartChar: Yacute
Encoding: 221 221 159
Width: 644
GlyphClass: 2
Flags: MW
HStem: 0 21G<201 455 201 201> 680 20G<0 265 265 265 424 644 644 644>
VStem: 283 96<53 297 297 297>
LayerCount: 2
Fore
SplineSet
424 671 m 1
 424 700 l 1
 644 700 l 1
 644 671 l 1
 619 658 593 650 568 646 c 1
 379 298 l 1
 379 53 l 1
 405 50 430 42 455 29 c 1
 455 0 l 1
 201 0 l 1
 201 29 l 1
 225 41 252 49 283 53 c 1
 283 297 l 1
 81 646 l 1
 50 651 25 660 0 671 c 1
 0 700 l 1
 265 700 l 1
 265 671 l 1
 245 663 220 654 188 646 c 1
 352 352 l 1
 506 646 l 1
 475 653 448 662 424 671 c 1
319 769 m 1
 465 893 l 1
 489 896 545 880 562 861 c 1
 562 841 l 1
 336 750 l 1
 319 769 l 1
EndSplineSet
Validated: 33
EndChar

StartChar: Thorn
Encoding: 222 222 160
Width: 595
GlyphClass: 2
Flags: MW
HStem: 0 227<270 303> 175 52<277.5 324 270 353.5> 550 52<282.5 329.5> 550 150<259 287 31 329.5>
VStem: 111 96<53 179 53 231 231 544 598 647> 450 107<333.5 443>
LayerCount: 2
Fore
SplineSet
207 179 m 1x6c
 207 53 l 1
 244 48 276 39 303 28 c 1
 303 0 l 1
 29 0 l 1
 29 28 l 1
 56 43 84 48 111 53 c 1
 111 647 l 1
 84 652 57 661 31 672 c 1
 31 700 l 1
 287 700 l 1x9c
 287 672 l 1
 263 660 234 652 207 647 c 1
 207 598 l 1
 238 601 268 602 297 602 c 0
 429 602 557 551 557 391 c 0
 557 240 423 175 284 175 c 0
 271 175 221 176 207 179 c 1x6c
275 550 m 0
 243 550 226 549 207 544 c 1
 207 231 l 1
 220 226 262 227 278 227 c 0
 370 227 450 276 450 391 c 0
 450 495 384 550 275 550 c 0
EndSplineSet
Validated: 33
EndChar

StartChar: germandbls
Encoding: 223 223 161
Width: 638
GlyphClass: 2
Flags: MW
HStem: -12 44<402.5 444 402.5 473.5> 0 21G<41 197 41 41> 708 44<295.5 358>
VStem: 107 90<49 450 450 450 509 526 0 544 0 627> 271 90<376.5 463.5> 433 90 509 90<91.5 179.5>
LayerCount: 2
Fore
SplineSet
433 590 m 1xbc
 433 648 385 708 331 708 c 0
 260 708 197 689 197 526 c 2
 197 0 l 1
 41 0 l 1
 41 25 l 1
 62 37 84 45 107 49 c 1
 107 450 l 1
 31 450 l 1
 31 476 l 1
 54 491 80 502 107 509 c 1
 107 544 l 2
 107 710 238 752 325 752 c 0
 470 752 520 665 523 574 c 1x7c
 422 561 361 526 361 438 c 0
 361 315 599 304 599 138 c 0
 599 45 533 -12 414 -12 c 0
 359 -12 305 -2 252 17 c 1
 255 50 264 79 276 102 c 1
 301 102 l 1
 366 40 l 1
 381 33 393 32 412 32 c 0
 476 32 509 69 509 114 c 0xba
 509 245 271 243 271 427 c 0
 271 500 314 555 433 590 c 1xbc
EndSplineSet
Validated: 1
EndChar

StartChar: agrave
Encoding: 224 224 162
Width: 505
GlyphClass: 2
Flags: MW
HStem: -12 62<191.5 219> -10 21G<343 368 343 343> 242 38<325 325> 468 44<229.5 279> 576 21G<294 294>
VStem: 39 96<111.5 174.5 111.5 184.5> 325 90<137 390 242 390>
LayerCount: 2
Fore
SplineSet
410 131 m 0xb6
 410 102 412 83 413 59 c 1
 482 49 l 1
 482 28 l 1
 449 11 405 -3 368 -10 c 1
 343 -10 l 1x76
 330 21 329 57 328 101 c 1
 323 101 l 1
 312 47 261 -12 177 -12 c 0
 96 -12 39 42 39 122 c 0
 39 247 138 269 324 280 c 1
 335 394 319 468 239 468 c 0
 220 468 196 467 173 458 c 1
 126 338 l 1
 100 338 l 1
 87 378 76 422 73 463 c 1
 124 494 185 512 261 512 c 0
 397 512 415 427 415 353 c 0
 415 273 410 199 410 131 c 0xb6
217 50 m 0xb6
 284 50 317 111 325 137 c 1
 325 242 l 1
 170 242 135 209 135 140 c 0
 135 83 166 50 217 50 c 0xb6
210 767 m 1x08
 316 593 l 1
 294 576 l 1
 108 725 l 1
 108 745 l 1
 124 758 189 770 210 767 c 1x08
EndSplineSet
Validated: 33
EndChar

StartChar: aacute
Encoding: 225 225 163
Width: 505
GlyphClass: 2
Flags: MW
HStem: -12 62<191.5 219> -10 21G<343 368 343 343> 242 38<325 325> 468 44<229.5 279>
VStem: 39 96<111.5 174.5 111.5 184.5> 325 90<137 390 242 390>
LayerCount: 2
Fore
SplineSet
410 131 m 0xbc
 410 102 412 83 413 59 c 1
 482 49 l 1
 482 28 l 1
 449 11 405 -3 368 -10 c 1
 343 -10 l 1x7c
 330 21 329 57 328 101 c 1
 323 101 l 1
 312 47 261 -12 177 -12 c 0
 96 -12 39 42 39 122 c 0
 39 247 138 269 324 280 c 1
 335 394 319 468 239 468 c 0
 220 468 196 467 173 458 c 1
 126 338 l 1
 100 338 l 1
 87 378 76 422 73 463 c 1
 124 494 185 512 261 512 c 0
 397 512 415 427 415 353 c 0
 415 273 410 199 410 131 c 0xbc
217 50 m 0xbc
 284 50 317 111 325 137 c 1
 325 242 l 1
 170 242 135 209 135 140 c 0
 135 83 166 50 217 50 c 0xbc
188 593 m 1
 305 767 l 1
 326 770 381 758 397 745 c 1
 397 726 l 1
 210 575 l 1
 188 593 l 1
EndSplineSet
Validated: 33
EndChar

StartChar: acircumflex
Encoding: 226 226 164
Width: 505
GlyphClass: 2
Flags: MW
HStem: -12 62<191.5 219> -10 21G<343 368 343 343> 242 38<325 325> 468 44<229.5 279> 590 21G<157 157 350 350>
VStem: 39 96<111.5 174.5 111.5 184.5> 325 90<137 390 242 390>
LayerCount: 2
Fore
SplineSet
410 131 m 0xb6
 410 102 412 83 413 59 c 1
 482 49 l 1
 482 28 l 1
 449 11 405 -3 368 -10 c 1
 343 -10 l 1x76
 330 21 329 57 328 101 c 1
 323 101 l 1
 312 47 261 -12 177 -12 c 0
 96 -12 39 42 39 122 c 0
 39 247 138 269 324 280 c 1
 335 394 319 468 239 468 c 0
 220 468 196 467 173 458 c 1
 126 338 l 1
 100 338 l 1
 87 378 76 422 73 463 c 1
 124 494 185 512 261 512 c 0
 397 512 415 427 415 353 c 0
 415 273 410 199 410 131 c 0xb6
217 50 m 0xb6
 284 50 317 111 325 137 c 1
 325 242 l 1
 170 242 135 209 135 140 c 0
 135 83 166 50 217 50 c 0xb6
247 697 m 1x08
 157 590 l 1
 128 606 l 1
 238 792 l 2
 245 796 256 797 263 792 c 2
 377 607 l 1
 350 590 l 1
 247 697 l 1x08
EndSplineSet
Validated: 33
EndChar

StartChar: atilde
Encoding: 227 227 165
Width: 505
GlyphClass: 2
Flags: MW
HStem: -12 62<191.5 219> -10 21G<343 368 343 343> 242 38<325 325> 468 44<229.5 279> 615 65<264 336.5> 649 31 649 63<155.5 231>
VStem: 39 96<111.5 174.5 111.5 184.5> 325 90<137 390 242 390>
LayerCount: 2
Fore
SplineSet
410 131 m 0xb980
 410 102 412 83 413 59 c 1
 482 49 l 1
 482 28 l 1
 449 11 405 -3 368 -10 c 1
 343 -10 l 1x7980
 330 21 329 57 328 101 c 1
 323 101 l 1
 312 47 261 -12 177 -12 c 0
 96 -12 39 42 39 122 c 0
 39 247 138 269 324 280 c 1
 335 394 319 468 239 468 c 0
 220 468 196 467 173 458 c 1
 126 338 l 1
 100 338 l 1
 87 378 76 422 73 463 c 1
 124 494 185 512 261 512 c 0
 397 512 415 427 415 353 c 0
 415 273 410 199 410 131 c 0xb980
217 50 m 0xb580
 284 50 317 111 325 137 c 1
 325 242 l 1
 170 242 135 209 135 140 c 0
 135 83 166 50 217 50 c 0xb580
383 700 m 1
 396 672 l 1
 353 629 319 615 288 615 c 0xb980
 240 615 204 649 164 649 c 0
 147 649 129 644 108 625 c 1
 89 653 l 1
 138 700 176 712 207 712 c 0xb380
 255 712 287 680 328 680 c 0
 345 680 362 685 383 700 c 1
EndSplineSet
Validated: 33
EndChar

StartChar: adieresis
Encoding: 228 228 166
Width: 505
GlyphClass: 2
Flags: MW
HStem: -12 62<191.5 219> -10 21G<343 368 343 343> 242 38<325 325> 468 44<229.5 279> 612 104<115 147 337 369>
VStem: 39 96<111.5 174.5 111.5 184.5> 77 108<647.5 679> 299 108<647.5 679> 325 90<137 390 242 390>
LayerCount: 2
Fore
SplineSet
410 131 m 0xb480
 410 102 412 83 413 59 c 1
 482 49 l 1
 482 28 l 1
 449 11 405 -3 368 -10 c 1
 343 -10 l 1x7480
 330 21 329 57 328 101 c 1
 323 101 l 1
 312 47 261 -12 177 -12 c 0
 96 -12 39 42 39 122 c 0
 39 247 138 269 324 280 c 1
 335 394 319 468 239 468 c 0
 220 468 196 467 173 458 c 1
 126 338 l 1
 100 338 l 1
 87 378 76 422 73 463 c 1
 124 494 185 512 261 512 c 0
 397 512 415 427 415 353 c 0
 415 273 410 199 410 131 c 0xb480
217 50 m 0xb480
 284 50 317 111 325 137 c 1
 325 242 l 1
 170 242 135 209 135 140 c 0
 135 83 166 50 217 50 c 0xb480
77 663 m 0x0b
 77 695 99 716 131 716 c 0
 163 716 185 695 185 663 c 0
 185 632 163 612 131 612 c 0
 99 612 77 632 77 663 c 0x0b
299 663 m 0
 299 695 321 716 353 716 c 0
 385 716 407 695 407 663 c 0
 407 632 385 612 353 612 c 0
 321 612 299 632 299 663 c 0
EndSplineSet
Validated: 33
EndChar

StartChar: aring
Encoding: 229 229 167
Width: 505
GlyphClass: 2
Flags: MW
HStem: -12 62<191.5 219> -10 21G<343 368 343 343> 242 38<325 325> 468 44<229.5 279> 593 41<227.5 252.5 227.5 266.5> 739 41<224 253.5>
VStem: 39 96<111.5 174.5 111.5 184.5> 143 52<667.5 701 667.5 710.5> 284 53<665.5 700> 325 90<137 390 242 390>
LayerCount: 2
Fore
SplineSet
410 131 m 0xbf40
 410 102 412 83 413 59 c 1
 482 49 l 1
 482 28 l 1
 449 11 405 -3 368 -10 c 1
 343 -10 l 1x7f80
 330 21 329 57 328 101 c 1
 323 101 l 1
 312 47 261 -12 177 -12 c 0
 96 -12 39 42 39 122 c 0
 39 247 138 269 324 280 c 1
 335 394 319 468 239 468 c 0
 220 468 196 467 173 458 c 1
 126 338 l 1
 100 338 l 1
 87 378 76 422 73 463 c 1
 124 494 185 512 261 512 c 0
 397 512 415 427 415 353 c 0
 415 273 410 199 410 131 c 0xbf40
217 50 m 0xbf40
 284 50 317 111 325 137 c 1
 325 242 l 1
 170 242 135 209 135 140 c 0
 135 83 166 50 217 50 c 0xbf40
143 683 m 0
 143 738 186 780 243 780 c 0
 295 780 337 745 337 686 c 0xbf80
 337 631 291 593 242 593 c 0
 182 593 143 627 143 683 c 0
195 685 m 0
 195 650 216 634 239 634 c 0
 266 634 284 649 284 682 c 0
 284 718 267 739 240 739 c 0
 208 739 195 717 195 685 c 0
EndSplineSet
Validated: 33
EndChar

StartChar: ae
Encoding: 230 230 168
Width: 778
GlyphClass: 2
Flags: MW
HStem: -12 62<191.5 219.5 525 591.5> 242 38<324 324> 242 52 468 44<229.5 272.5 500.5 572>
VStem: 39 96<111.5 174.5 111.5 184.5> 327 87<194 378.5> 637 94<322.5 370.5>
LayerCount: 2
Fore
SplineSet
390 453 m 1xde
 420 486 454 512 542 512 c 0
 635 512 731 466 731 322 c 0
 731 299 729 277 724 250 c 1
 414 250 l 1
 414 138 468 50 582 50 c 0
 628 50 683 65 707 86 c 1
 722 70 l 1
 701 25 627 -12 556 -12 c 0
 485 -12 390 12 350 98 c 1
 329 37 262 -12 177 -12 c 0
 96 -12 39 42 39 122 c 0
 39 247 138 269 324 280 c 1
 326 301 327 320 327 338 c 0
 327 419 306 468 239 468 c 0
 220 468 196 467 173 458 c 1
 126 338 l 1
 100 338 l 1
 87 378 76 422 73 463 c 1
 124 494 185 512 261 512 c 0
 337 512 374 488 390 453 c 1xde
217 50 m 0
 283 50 316 108 324 134 c 1
 324 242 l 1
 168 242 135 209 135 140 c 0
 135 83 166 50 217 50 c 0
538 468 m 0
 463 468 424 423 416 294 c 1
 635 294 l 1xbe
 636 306 637 317 637 328 c 0
 637 413 606 468 538 468 c 0
EndSplineSet
Validated: 1
EndChar

StartChar: ccedilla
Encoding: 231 231 169
Width: 466
GlyphClass: 2
Flags: MW
HStem: -251 183<191 248> -105 37 -12 62<269 307> 468 44<233.5 293>
VStem: 41 96<200.5 329.5 200.5 334.5> 274 80
LayerCount: 2
Fore
SplineSet
414 84 m 1x7c
 427 70 l 1
 402 22 345 -12 269 -12 c 1
 248 -68 l 1
 321 -71 351 -96 354 -139 c 0
 357 -216 262 -254 191 -251 c 1xbc
 191 -221 l 1
 242 -214 275 -196 274 -155 c 0
 273 -122 248 -109 192 -105 c 1
 226 -8 l 1
 102 11 41 109 41 250 c 0
 41 419 129 512 272 512 c 0
 337 512 389 500 425 481 c 1
 421 437 410 375 394 339 c 1
 367 339 l 1
 325 458 l 1
 316 465 307 468 279 468 c 0
 188 468 137 408 137 251 c 0
 137 150 193 50 309 50 c 0
 356 50 390 65 414 84 c 1x7c
EndSplineSet
Validated: 33
EndChar

StartChar: egrave
Encoding: 232 232 170
Width: 503
GlyphClass: 2
Flags: MW
HStem: -12 62<249.5 316.5> 250 44<140 360 140 449 137 360> 468 44<225 297> 576 21G<303 303>
VStem: 41 96<194 250 194 335.5> 362 94<322.5 370.5>
LayerCount: 2
Fore
SplineSet
432 86 m 1
 446 70 l 1
 425 24 352 -12 281 -12 c 0
 124 -12 41 91 41 250 c 0
 41 421 123 512 267 512 c 0
 360 512 456 466 456 322 c 0
 456 299 454 277 449 250 c 1
 137 250 l 1
 137 138 192 50 307 50 c 0
 354 50 408 65 432 86 c 1
263 468 m 0
 187 468 148 423 140 294 c 1
 360 294 l 1
 361 306 362 317 362 328 c 0
 362 413 331 468 263 468 c 0
219 767 m 1
 325 593 l 1
 303 576 l 1
 117 725 l 1
 117 745 l 1
 133 758 198 770 219 767 c 1
EndSplineSet
Validated: 33
EndChar

StartChar: eacute
Encoding: 233 233 171
Width: 503
GlyphClass: 2
Flags: MW
HStem: -12 62<249.5 316.5> 250 44<140 360 140 449 137 360> 468 44<225 297>
VStem: 41 96<194 250 194 335.5> 362 94<322.5 370.5>
LayerCount: 2
Fore
SplineSet
432 86 m 1
 446 70 l 1
 425 24 352 -12 281 -12 c 0
 124 -12 41 91 41 250 c 0
 41 421 123 512 267 512 c 0
 360 512 456 466 456 322 c 0
 456 299 454 277 449 250 c 1
 137 250 l 1
 137 138 192 50 307 50 c 0
 354 50 408 65 432 86 c 1
263 468 m 0
 187 468 148 423 140 294 c 1
 360 294 l 1
 361 306 362 317 362 328 c 0
 362 413 331 468 263 468 c 0
205 593 m 1
 322 767 l 1
 343 770 398 758 414 745 c 1
 414 726 l 1
 227 575 l 1
 205 593 l 1
EndSplineSet
Validated: 33
EndChar

StartChar: ecircumflex
Encoding: 234 234 172
Width: 503
GlyphClass: 2
Flags: MW
HStem: -12 62<249.5 316.5> 250 44<140 360 140 449 137 360> 468 44<225 297> 590 21G<166 166 359 359>
VStem: 41 96<194 250 194 335.5> 362 94<322.5 370.5>
LayerCount: 2
Fore
SplineSet
432 86 m 1
 446 70 l 1
 425 24 352 -12 281 -12 c 0
 124 -12 41 91 41 250 c 0
 41 421 123 512 267 512 c 0
 360 512 456 466 456 322 c 0
 456 299 454 277 449 250 c 1
 137 250 l 1
 137 138 192 50 307 50 c 0
 354 50 408 65 432 86 c 1
263 468 m 0
 187 468 148 423 140 294 c 1
 360 294 l 1
 361 306 362 317 362 328 c 0
 362 413 331 468 263 468 c 0
256 697 m 1
 166 590 l 1
 137 606 l 1
 247 792 l 2
 254 796 265 797 272 792 c 2
 386 607 l 1
 359 590 l 1
 256 697 l 1
EndSplineSet
Validated: 1
EndChar

StartChar: edieresis
Encoding: 235 235 173
Width: 503
GlyphClass: 2
Flags: MW
HStem: -12 62<249.5 316.5> 250 44<140 360 140 449 137 360> 468 44<225 297> 612 104<131 163 353 385>
VStem: 41 96<194 250 194 335.5> 93 108<647.5 679> 315 108<647.5 679> 362 94<322.5 370.5>
LayerCount: 2
Fore
SplineSet
432 86 m 1xf9
 446 70 l 1
 425 24 352 -12 281 -12 c 0
 124 -12 41 91 41 250 c 0
 41 421 123 512 267 512 c 0
 360 512 456 466 456 322 c 0
 456 299 454 277 449 250 c 1
 137 250 l 1
 137 138 192 50 307 50 c 0
 354 50 408 65 432 86 c 1xf9
263 468 m 0
 187 468 148 423 140 294 c 1
 360 294 l 1
 361 306 362 317 362 328 c 0
 362 413 331 468 263 468 c 0
93 663 m 0xf6
 93 695 115 716 147 716 c 0
 179 716 201 695 201 663 c 0
 201 632 179 612 147 612 c 0
 115 612 93 632 93 663 c 0xf6
315 663 m 0
 315 695 337 716 369 716 c 0
 401 716 423 695 423 663 c 0
 423 632 401 612 369 612 c 0
 337 612 315 632 315 663 c 0
EndSplineSet
Validated: 1
EndChar

StartChar: igrave
Encoding: 236 236 174
Width: 301
GlyphClass: 2
Flags: MW
HStem: 0 21G<41 263 41 41> 492 20G<172 197 197 197> 576 21G<180 180>
VStem: 107 90<49 442 442 442>
LayerCount: 2
Fore
SplineSet
263 25 m 1
 263 0 l 1
 41 0 l 1
 41 25 l 1
 61 36 82 42 107 49 c 1
 107 442 l 1
 41 450 l 1
 41 476 l 1
 80 492 127 504 172 512 c 1
 197 512 l 1
 197 49 l 1
 224 42 244 36 263 25 c 1
96 767 m 1
 202 593 l 1
 180 576 l 1
 -6 725 l 1
 -6 745 l 1
 10 758 75 770 96 767 c 1
EndSplineSet
Validated: 33
EndChar

StartChar: iacute
Encoding: 237 237 175
Width: 301
GlyphClass: 2
Flags: MW
HStem: 0 21G<41 263 41 41> 492 20G<172 197 197 197>
VStem: 107 90<49 442 442 442>
LayerCount: 2
Fore
SplineSet
263 25 m 1
 263 0 l 1
 41 0 l 1
 41 25 l 1
 61 36 82 42 107 49 c 1
 107 442 l 1
 41 450 l 1
 41 476 l 1
 80 492 127 504 172 512 c 1
 197 512 l 1
 197 49 l 1
 224 42 244 36 263 25 c 1
82 593 m 1
 199 767 l 1
 220 770 275 758 291 745 c 1
 291 726 l 1
 104 575 l 1
 82 593 l 1
EndSplineSet
Validated: 33
EndChar

StartChar: icircumflex
Encoding: 238 238 176
Width: 301
GlyphClass: 2
Flags: MW
HStem: 0 21G<41 263 41 41> 492 20G<172 197 197 197> 590 21G<55 55 248 248>
VStem: 107 90<49 442 442 442>
LayerCount: 2
Fore
SplineSet
263 25 m 1
 263 0 l 1
 41 0 l 1
 41 25 l 1
 61 36 82 42 107 49 c 1
 107 442 l 1
 41 450 l 1
 41 476 l 1
 80 492 127 504 172 512 c 1
 197 512 l 1
 197 49 l 1
 224 42 244 36 263 25 c 1
145 697 m 1
 55 590 l 1
 26 606 l 1
 136 792 l 2
 143 796 154 797 161 792 c 2
 275 607 l 1
 248 590 l 1
 145 697 l 1
EndSplineSet
Validated: 1
EndChar

StartChar: idieresis
Encoding: 239 239 177
Width: 301
GlyphClass: 2
Flags: MW
HStem: 0 21G<41 263 41 41> 492 20G<172 197 197 197> 612 104<24 56 246 278>
VStem: -14 108<647.5 679> 107 90<49 442 442 442> 208 108<647.5 679>
LayerCount: 2
Fore
SplineSet
263 25 m 1
 263 0 l 1
 41 0 l 1
 41 25 l 1
 61 36 82 42 107 49 c 1
 107 442 l 1
 41 450 l 1
 41 476 l 1
 80 492 127 504 172 512 c 1
 197 512 l 1
 197 49 l 1
 224 42 244 36 263 25 c 1
-14 663 m 0
 -14 695 8 716 40 716 c 0
 72 716 94 695 94 663 c 0
 94 632 72 612 40 612 c 0
 8 612 -14 632 -14 663 c 0
208 663 m 0
 208 695 230 716 262 716 c 0
 294 716 316 695 316 663 c 0
 316 632 294 612 262 612 c 0
 230 612 208 632 208 663 c 0
EndSplineSet
Validated: 1
EndChar

StartChar: eth
Encoding: 240 240 178
Width: 535
GlyphClass: 2
Flags: MW
HStem: -12 46<223 312 223 340.5> 460 52<223.5 280.5 191.5 295.5> 730 20G<151 212 212 212>
VStem: 28 96<187.5 314.5 187.5 332> 401 96<202 309.5>
LayerCount: 2
Fore
SplineSet
178 561 m 1
 158 604 l 1
 272 650 l 1
 237 686 196 716 151 733 c 1
 151 750 l 1
 212 750 l 1
 253 738 296 713 335 676 c 1
 445 722 l 1
 464 679 l 1
 371 641 l 1
 443 557 497 437 497 289 c 0
 497 115 419 -12 262 -12 c 0
 117 -12 28 93 28 242 c 0
 28 422 138 512 245 512 c 0
 316 512 355 487 386 455 c 1
 370 506 343 562 304 613 c 1
 178 561 l 1
124 242 m 0
 124 133 177 34 269 34 c 0
 355 34 401 128 401 274 c 0
 401 345 395 385 391 402 c 1
 371 435 327 460 264 460 c 0
 183 460 124 387 124 242 c 0
EndSplineSet
Validated: 1
EndChar

StartChar: ntilde
Encoding: 241 241 179
Width: 594
GlyphClass: 2
Flags: MW
HStem: 0 21G<31 247 31 31 362 577 362 362> 450 62<306.5 357.5> 615 65<319 391.5> 649 31 649 63<210.5 286>
VStem: 97 90<49 341 49 400 400 442 442 442> 421 90<49 286 286 302 49 336.5>
LayerCount: 2
Fore
SplineSet
577 25 m 1xc6
 577 0 l 1
 362 0 l 1
 362 25 l 1
 380 34 400 42 421 49 c 1
 421 286 l 2
 421 387 396 450 319 450 c 0
 251 450 206 397 187 341 c 1
 187 49 l 1
 208 45 228 37 247 25 c 1
 247 0 l 1
 31 0 l 1
 31 25 l 1
 48 34 70 42 97 49 c 1
 97 442 l 1
 31 450 l 1
 31 476 l 1
 66 491 113 503 162 512 c 1
 187 512 l 1
 187 400 l 1
 188 400 l 1
 216 461 269 512 344 512 c 0
 452 512 511 467 511 302 c 2
 511 49 l 1
 538 44 560 36 577 25 c 1xc6
438 700 m 1x10
 451 672 l 1
 408 629 374 615 343 615 c 0x20
 295 615 259 649 219 649 c 0
 202 649 184 644 163 625 c 1
 144 653 l 1
 193 700 231 712 262 712 c 0x08
 310 712 342 680 383 680 c 0
 400 680 417 685 438 700 c 1x10
EndSplineSet
Validated: 1
EndChar

StartChar: ograve
Encoding: 242 242 180
Width: 553
GlyphClass: 2
Flags: MW
HStem: -12 44<236.5 329 236.5 348> 468 44<228.5 320> 576 21G<318 318>
VStem: 41 96<189.5 324.5 189.5 333.5> 416 96<175.5 311>
LayerCount: 2
Fore
SplineSet
41 250 m 0
 41 417 134 512 276 512 c 0
 442 512 512 406 512 250 c 0
 512 82 420 -12 276 -12 c 0
 117 -12 41 92 41 250 c 0
137 250 m 0
 137 129 180 32 293 32 c 0
 365 32 416 101 416 250 c 0
 416 372 372 468 268 468 c 0
 189 468 137 399 137 250 c 0
234 767 m 1
 340 593 l 1
 318 576 l 1
 132 725 l 1
 132 745 l 1
 148 758 213 770 234 767 c 1
EndSplineSet
Validated: 33
EndChar

StartChar: oacute
Encoding: 243 243 181
Width: 553
GlyphClass: 2
Flags: MW
HStem: -12 44<236.5 329 236.5 348> 468 44<228.5 320>
VStem: 41 96<189.5 324.5 189.5 333.5> 416 96<175.5 311>
LayerCount: 2
Fore
SplineSet
41 250 m 0
 41 417 134 512 276 512 c 0
 442 512 512 406 512 250 c 0
 512 82 420 -12 276 -12 c 0
 117 -12 41 92 41 250 c 0
137 250 m 0
 137 129 180 32 293 32 c 0
 365 32 416 101 416 250 c 0
 416 372 372 468 268 468 c 0
 189 468 137 399 137 250 c 0
212 593 m 1
 329 767 l 1
 350 770 405 758 421 745 c 1
 421 726 l 1
 234 575 l 1
 212 593 l 1
EndSplineSet
Validated: 33
EndChar

StartChar: ocircumflex
Encoding: 244 244 182
Width: 553
GlyphClass: 2
Flags: MW
HStem: -12 44<236.5 329 236.5 348> 468 44<228.5 320> 590 21G<180 180 373 373>
VStem: 41 96<189.5 324.5 189.5 333.5> 416 96<175.5 311>
LayerCount: 2
Fore
SplineSet
41 250 m 0
 41 417 134 512 276 512 c 0
 442 512 512 406 512 250 c 0
 512 82 420 -12 276 -12 c 0
 117 -12 41 92 41 250 c 0
137 250 m 0
 137 129 180 32 293 32 c 0
 365 32 416 101 416 250 c 0
 416 372 372 468 268 468 c 0
 189 468 137 399 137 250 c 0
270 697 m 1
 180 590 l 1
 151 606 l 1
 261 792 l 2
 268 796 279 797 286 792 c 2
 400 607 l 1
 373 590 l 1
 270 697 l 1
EndSplineSet
Validated: 1
EndChar

StartChar: otilde
Encoding: 245 245 183
Width: 553
GlyphClass: 2
Flags: MW
HStem: -12 44<236.5 329 236.5 348> 468 44<228.5 320> 615 65<297 369.5> 649 31 649 63<188.5 264>
VStem: 41 96<189.5 324.5 189.5 333.5> 416 96<175.5 311>
LayerCount: 2
Fore
SplineSet
41 250 m 0xd6
 41 417 134 512 276 512 c 0
 442 512 512 406 512 250 c 0
 512 82 420 -12 276 -12 c 0
 117 -12 41 92 41 250 c 0xd6
137 250 m 0
 137 129 180 32 293 32 c 0
 365 32 416 101 416 250 c 0
 416 372 372 468 268 468 c 0
 189 468 137 399 137 250 c 0
416 700 m 1
 429 672 l 1
 386 629 352 615 321 615 c 0xe6
 273 615 237 649 197 649 c 0
 180 649 162 644 141 625 c 1
 122 653 l 1
 171 700 209 712 240 712 c 0xce
 288 712 320 680 361 680 c 0
 378 680 395 685 416 700 c 1
EndSplineSet
Validated: 1
EndChar

StartChar: odieresis
Encoding: 246 246 184
Width: 553
GlyphClass: 2
Flags: MW
HStem: -12 44<236.5 329 236.5 348> 468 44<228.5 320> 612 104<149 181 371 403>
VStem: 41 96<189.5 324.5 189.5 333.5> 111 108<647.5 679> 333 108<647.5 679> 416 96<175.5 311>
LayerCount: 2
Fore
SplineSet
41 250 m 0xd2
 41 417 134 512 276 512 c 0
 442 512 512 406 512 250 c 0
 512 82 420 -12 276 -12 c 0
 117 -12 41 92 41 250 c 0xd2
137 250 m 0
 137 129 180 32 293 32 c 0
 365 32 416 101 416 250 c 0
 416 372 372 468 268 468 c 0
 189 468 137 399 137 250 c 0
111 663 m 0x2c
 111 695 133 716 165 716 c 0
 197 716 219 695 219 663 c 0
 219 632 197 612 165 612 c 0
 133 612 111 632 111 663 c 0x2c
333 663 m 0
 333 695 355 716 387 716 c 0
 419 716 441 695 441 663 c 0
 441 632 419 612 387 612 c 0
 355 612 333 632 333 663 c 0
EndSplineSet
Validated: 1
EndChar

StartChar: divide
Encoding: 247 247 185
Width: 533
GlyphClass: 2
Flags: MW
HStem: 89 131<246 286.5> 319 53<42 492 42 492> 470 131<246 286.5>
VStem: 198 137<134.5 174 515.5 555>
LayerCount: 2
Fore
SplineSet
42 319 m 1
 42 372 l 1
 492 372 l 1
 492 319 l 1
 42 319 l 1
198 535 m 0
 198 575 226 601 266 601 c 0
 307 601 335 575 335 535 c 0
 335 496 307 470 266 470 c 0
 226 470 198 496 198 535 c 0
198 154 m 0
 198 194 226 220 266 220 c 0
 307 220 335 194 335 154 c 0
 335 115 307 89 266 89 c 0
 226 89 198 115 198 154 c 0
EndSplineSet
Validated: 1
EndChar

StartChar: oslash
Encoding: 248 248 186
Width: 553
GlyphClass: 2
Flags: MW
HStem: -62 21G<104 104> -12 44<271 329 271 348> 468 44<228 289.5> 533 20G<450 450>
VStem: 41 96<224 324.5 224 333.5> 416 96<175.5 274.5>
LayerCount: 2
Fore
SplineSet
66 -35 m 1
 116 41 l 1
 65 88 41 159 41 250 c 0
 41 417 134 512 276 512 c 0
 327 512 370 502 404 482 c 1
 450 553 l 1
 488 527 l 1
 441 456 l 1
 489 409 512 338 512 250 c 0
 512 82 420 -12 276 -12 c 0
 228 -12 187 -2 154 15 c 1
 104 -62 l 1
 66 -35 l 1
137 250 m 0
 137 198 145 151 164 114 c 1
 366 425 l 1
 342 453 311 468 268 468 c 0
 188 468 137 399 137 250 c 0
416 250 m 0
 416 299 408 344 391 381 c 1
 191 71 l 1
 215 45 249 32 293 32 c 0
 365 32 416 101 416 250 c 0
EndSplineSet
Validated: 1
EndChar

StartChar: ugrave
Encoding: 249 249 187
Width: 574
GlyphClass: 2
Flags: MW
HStem: -12 62<228.5 282.5> -10 21G<404 429 404 404> 492 20G<148 173 173 173 458 483 483 483> 576 21G<329 329>
VStem: 77 90<164 240> 393 90<109 109 167 442 442 442>
LayerCount: 2
Fore
SplineSet
77 198 m 0xac
 77 282 83 362 83 442 c 1
 17 450 l 1
 17 476 l 1
 60 492 105 504 148 512 c 1
 173 512 l 1
 173 412 167 313 167 216 c 0
 167 112 187 50 270 50 c 0xac
 330 50 370 98 393 167 c 1
 393 442 l 1
 328 450 l 1
 328 476 l 1
 369 492 415 504 458 512 c 1
 483 512 l 1
 483 57 l 1
 549 49 l 1
 549 28 l 1
 510 11 472 -3 429 -10 c 1
 404 -10 l 1x6c
 397 109 l 1
 393 109 l 1
 380 53 323 -12 242 -12 c 0
 136 -12 77 33 77 198 c 0xac
245 767 m 1x10
 351 593 l 1
 329 576 l 1
 143 725 l 1
 143 745 l 1
 159 758 224 770 245 767 c 1x10
EndSplineSet
Validated: 33
EndChar

StartChar: uacute
Encoding: 250 250 188
Width: 574
GlyphClass: 2
Flags: MW
HStem: -12 62<228.5 282.5> -10 21G<404 429 404 404> 492 20G<148 173 173 173 458 483 483 483>
VStem: 77 90<164 240> 393 90<109 109 167 442 442 442>
LayerCount: 2
Fore
SplineSet
77 198 m 0xb8
 77 282 83 362 83 442 c 1
 17 450 l 1
 17 476 l 1
 60 492 105 504 148 512 c 1
 173 512 l 1
 173 412 167 313 167 216 c 0
 167 112 187 50 270 50 c 0xb8
 330 50 370 98 393 167 c 1
 393 442 l 1
 328 450 l 1
 328 476 l 1
 369 492 415 504 458 512 c 1
 483 512 l 1
 483 57 l 1
 549 49 l 1
 549 28 l 1
 510 11 472 -3 429 -10 c 1
 404 -10 l 1x78
 397 109 l 1
 393 109 l 1
 380 53 323 -12 242 -12 c 0
 136 -12 77 33 77 198 c 0xb8
221 593 m 1
 338 767 l 1
 359 770 414 758 430 745 c 1
 430 726 l 1
 243 575 l 1
 221 593 l 1
EndSplineSet
Validated: 33
EndChar

StartChar: ucircumflex
Encoding: 251 251 189
Width: 574
GlyphClass: 2
Flags: MW
HStem: -12 62<228.5 282.5> -10 21G<404 429 404 404> 492 20G<148 173 173 173 458 483 483 483> 590 21G<190 190 383 383>
VStem: 77 90<164 240> 393 90<109 109 167 442 442 442>
LayerCount: 2
Fore
SplineSet
77 198 m 0xac
 77 282 83 362 83 442 c 1
 17 450 l 1
 17 476 l 1
 60 492 105 504 148 512 c 1
 173 512 l 1
 173 412 167 313 167 216 c 0
 167 112 187 50 270 50 c 0xac
 330 50 370 98 393 167 c 1
 393 442 l 1
 328 450 l 1
 328 476 l 1
 369 492 415 504 458 512 c 1
 483 512 l 1
 483 57 l 1
 549 49 l 1
 549 28 l 1
 510 11 472 -3 429 -10 c 1
 404 -10 l 1x6c
 397 109 l 1
 393 109 l 1
 380 53 323 -12 242 -12 c 0
 136 -12 77 33 77 198 c 0xac
280 697 m 1x10
 190 590 l 1
 161 606 l 1
 271 792 l 2
 278 796 289 797 296 792 c 2
 410 607 l 1
 383 590 l 1
 280 697 l 1x10
EndSplineSet
Validated: 1
EndChar

StartChar: udieresis
Encoding: 252 252 190
Width: 574
GlyphClass: 2
Flags: MW
HStem: -12 62<228.5 282.5> -10 21G<404 429 404 404> 492 20G<148 173 173 173 458 483 483 483> 612 104<159 191 381 413>
VStem: 77 90<164 240> 121 108<647.5 679> 343 108<647.5 679> 393 90<109 109 167 442 442 442>
LayerCount: 2
Fore
SplineSet
77 198 m 0xb9
 77 282 83 362 83 442 c 1
 17 450 l 1
 17 476 l 1
 60 492 105 504 148 512 c 1
 173 512 l 1
 173 412 167 313 167 216 c 0
 167 112 187 50 270 50 c 0xba
 330 50 370 98 393 167 c 1
 393 442 l 1
 328 450 l 1
 328 476 l 1
 369 492 415 504 458 512 c 1
 483 512 l 1
 483 57 l 1
 549 49 l 1
 549 28 l 1
 510 11 472 -3 429 -10 c 1
 404 -10 l 1x79
 397 109 l 1
 393 109 l 1
 380 53 323 -12 242 -12 c 0
 136 -12 77 33 77 198 c 0xb9
121 663 m 0xb6
 121 695 143 716 175 716 c 0
 207 716 229 695 229 663 c 0
 229 632 207 612 175 612 c 0
 143 612 121 632 121 663 c 0xb6
343 663 m 0
 343 695 365 716 397 716 c 0
 429 716 451 695 451 663 c 0
 451 632 429 612 397 612 c 0
 365 612 343 632 343 663 c 0
EndSplineSet
Validated: 1
EndChar

StartChar: yacute
Encoding: 253 253 191
Width: 505
GlyphClass: 2
Flags: MW
HStem: -215 21G 480 20G<-11 198 198 198 345 516 516 516> 575 21G<220 220>
LayerCount: 2
Fore
SplineSet
250 0 m 1
 42 450 l 1
 22 455 6 463 -11 474 c 1
 -11 500 l 1
 198 500 l 1
 198 475 l 1
 184 466 165 457 141 450 c 1
 269 154 l 1
 288 92 l 1
 290 92 l 1
 305 155 l 1
 400 450 l 1
 380 454 362 462 345 474 c 1
 345 500 l 1
 516 500 l 1
 516 474 l 1
 502 465 483 457 459 450 c 1
 303 0 l 1
 239 -170 191 -202 122 -215 c 1
 107 -190 96 -157 88 -129 c 1
 101 -105 l 1
 205 -105 l 1
 221 -84 228 -70 250 0 c 1
198 593 m 1
 315 767 l 1
 336 770 391 758 407 745 c 1
 407 726 l 1
 220 575 l 1
 198 593 l 1
EndSplineSet
Validated: 33
EndChar

StartChar: thorn
Encoding: 254 254 192
Width: 566
GlyphClass: 2
Flags: MW
HStem: -200 232<29 328 29 328> -12 44<264.5 328 260 360> 450 62<297.5 349.5> 732 20G<160 185 185 185>
VStem: 95 90<-151 8 -151 54 54 334 400 682 682 682> 427 96<195 315.5>
LayerCount: 2
Fore
SplineSet
95 -151 m 1xbc
 95 682 l 1
 19 690 l 1
 19 716 l 1
 54 732 111 744 160 752 c 1
 185 752 l 1
 185 400 l 1
 186 400 l 1
 213 468 259 512 336 512 c 0
 455 512 523 438 523 261 c 0
 523 92 431 -12 289 -12 c 0x7c
 240 -12 218 -7 185 8 c 1
 185 -151 l 1
 206 -154 227 -160 251 -175 c 1
 251 -200 l 1
 29 -200 l 1
 29 -175 l 1
 52 -164 74 -156 95 -151 c 1xbc
304 450 m 0
 239 450 201 406 185 334 c 1
 185 54 l 1
 209 39 236 32 284 32 c 0
 372 32 427 129 427 261 c 0
 427 370 395 450 304 450 c 0
EndSplineSet
Validated: 1
EndChar

StartChar: ydieresis
Encoding: 255 255 193
Width: 505
GlyphClass: 2
Flags: MW
HStem: -215 21G 500 112<136 168 136 198 136 198 358 390> 612 104<136 168 358 390>
VStem: 98 108<647.5 679> 320 108<647.5 679>
LayerCount: 2
Fore
SplineSet
250 0 m 1xd8
 42 450 l 1
 22 455 6 463 -11 474 c 1
 -11 500 l 1
 198 500 l 1
 198 475 l 1
 184 466 165 457 141 450 c 1
 269 154 l 1
 288 92 l 1
 290 92 l 1
 305 155 l 1
 400 450 l 1
 380 454 362 462 345 474 c 1
 345 500 l 1
 516 500 l 1
 516 474 l 1
 502 465 483 457 459 450 c 1
 303 0 l 1
 239 -170 191 -202 122 -215 c 1
 107 -190 96 -157 88 -129 c 1
 101 -105 l 1
 205 -105 l 1
 221 -84 228 -70 250 0 c 1xd8
98 663 m 0
 98 695 120 716 152 716 c 0xb8
 184 716 206 695 206 663 c 0
 206 632 184 612 152 612 c 0
 120 612 98 632 98 663 c 0
320 663 m 0
 320 695 342 716 374 716 c 0
 406 716 428 695 428 663 c 0
 428 632 406 612 374 612 c 0
 342 612 320 632 320 663 c 0
EndSplineSet
Validated: 1
EndChar

StartChar: Amacron
Encoding: 256 256 194
Width: 683
GlyphClass: 2
Flags: MW
HStem: 0 21G<0 222 0 0 427 427 427 683> 236 52<222 424 222 441 202 424> 692 20G<325 354 354 354> 788 52<192 493 192 493>
LayerCount: 2
Fore
SplineSet
222 29 m 1
 222 0 l 1
 0 0 l 1
 0 29 l 1
 24 40 48 48 72 53 c 1
 325 712 l 1
 354 712 l 1
 607 53 l 1
 634 48 660 42 683 29 c 1
 683 0 l 1
 427 0 l 1
 427 29 l 1
 454 40 482 48 509 53 c 1
 441 236 l 1
 202 236 l 1
 136 53 l 1
 164 49 193 41 222 29 c 1
299 498 m 1
 222 288 l 1
 424 288 l 1
 345 500 l 1
 326 586 l 1
 324 586 l 1
 299 498 l 1
493 788 m 1
 192 788 l 1
 192 840 l 1
 493 840 l 1
 493 788 l 1
EndSplineSet
Validated: 1
EndChar

StartChar: amacron
Encoding: 257 257 195
Width: 505
GlyphClass: 2
Flags: MW
HStem: -12 62<191.5 219> -10 21G<343 368 343 343> 242 38<325 325> 468 44<229.5 279> 637 52<125 378 125 378>
VStem: 39 96<111.5 174.5 111.5 184.5> 325 90<137 390 242 390>
LayerCount: 2
Fore
SplineSet
410 131 m 0xb6
 410 102 412 83 413 59 c 1
 482 49 l 1
 482 28 l 1
 449 11 405 -3 368 -10 c 1
 343 -10 l 1x76
 330 21 329 57 328 101 c 1
 323 101 l 1
 312 47 261 -12 177 -12 c 0
 96 -12 39 42 39 122 c 0
 39 247 138 269 324 280 c 1
 335 394 319 468 239 468 c 0
 220 468 196 467 173 458 c 1
 126 338 l 1
 100 338 l 1
 87 378 76 422 73 463 c 1
 124 494 185 512 261 512 c 0
 397 512 415 427 415 353 c 0
 415 273 410 199 410 131 c 0xb6
217 50 m 0xb6
 284 50 317 111 325 137 c 1
 325 242 l 1
 170 242 135 209 135 140 c 0
 135 83 166 50 217 50 c 0xb6
378 637 m 1x08
 125 637 l 1
 125 689 l 1
 378 689 l 1
 378 637 l 1x08
EndSplineSet
Validated: 33
EndChar

StartChar: Abreve
Encoding: 258 258 196
Width: 683
GlyphClass: 2
Flags: MW
HStem: 0 21G<0 222 0 0 427 427 427 683> 236 52<222 424 222 441 202 424> 692 20G<325 354 354 354> 759 70<325.5 346 325.5 378.5>
LayerCount: 2
Fore
SplineSet
222 29 m 1
 222 0 l 1
 0 0 l 1
 0 29 l 1
 24 40 48 48 72 53 c 1
 325 712 l 1
 354 712 l 1
 607 53 l 1
 634 48 660 42 683 29 c 1
 683 0 l 1
 427 0 l 1
 427 29 l 1
 454 40 482 48 509 53 c 1
 441 236 l 1
 202 236 l 1
 136 53 l 1
 164 49 193 41 222 29 c 1
299 498 m 1
 222 288 l 1
 424 288 l 1
 345 500 l 1
 326 586 l 1
 324 586 l 1
 299 498 l 1
461 883 m 1
 472 884 482 880 493 869 c 1
 469 810 412 759 345 759 c 0
 273 759 216 799 191 871 c 1
 199 884 213 889 233 886 c 1
 252 854 305 829 346 829 c 0
 389 828 434 842 461 883 c 1
EndSplineSet
Validated: 33
EndChar

StartChar: abreve
Encoding: 259 259 197
Width: 505
GlyphClass: 2
Flags: MW
HStem: -12 62<191.5 219> -10 21G<343 368 343 343> 242 38<325 325> 468 44<229.5 279> 597 72<234.5 255 234.5 287.5> 714 20G<144 144>
VStem: 39 96<111.5 174.5 111.5 184.5> 325 90<137 390 242 390>
LayerCount: 2
Fore
SplineSet
410 131 m 0xb3
 410 102 412 83 413 59 c 1
 482 49 l 1
 482 28 l 1
 449 11 405 -3 368 -10 c 1
 343 -10 l 1x73
 330 21 329 57 328 101 c 1
 323 101 l 1
 312 47 261 -12 177 -12 c 0
 96 -12 39 42 39 122 c 0
 39 247 138 269 324 280 c 1
 335 394 319 468 239 468 c 0
 220 468 196 467 173 458 c 1
 126 338 l 1
 100 338 l 1
 87 378 76 422 73 463 c 1
 124 494 185 512 261 512 c 0
 397 512 415 427 415 353 c 0
 415 273 410 199 410 131 c 0xb3
217 50 m 0xb3
 284 50 317 111 325 137 c 1
 325 242 l 1
 170 242 135 209 135 140 c 0
 135 83 166 50 217 50 c 0xb3
364 730 m 1x0c
 388 719 l 1
 364 660 321 597 254 597 c 0
 184 597 140 650 116 721 c 1
 144 734 l 1
 162 700 214 669 255 669 c 0
 300 668 337 688 364 730 c 1x0c
EndSplineSet
Validated: 33
EndChar

StartChar: Aogonek
Encoding: 260 260 198
Width: 683
GlyphClass: 2
Flags: MW
HStem: -251 52<586.5 593> 0 21G<0 222 0 0 427 427 427 586 641 641 641 683> 236 52<222 424 222 441 202 424> 692 20G<325 354 354 354>
VStem: 458 82<-153.5 -117>
LayerCount: 2
Fore
SplineSet
222 29 m 1
 222 0 l 1
 0 0 l 1
 0 29 l 1
 24 40 48 48 72 53 c 1
 325 712 l 1
 354 712 l 1
 607 53 l 1
 634 48 660 42 683 29 c 1
 683 0 l 1
 641 0 l 1
 584 -32 540 -76 540 -135 c 0
 540 -172 566 -199 607 -199 c 0
 628 -199 646 -197 662 -193 c 1
 662 -222 l 1
 643 -237 615 -251 571 -251 c 0
 510 -251 458 -212 458 -152 c 0
 458 -82 512 -40 586 0 c 1
 427 0 l 1
 427 29 l 1
 454 40 482 48 509 53 c 1
 441 236 l 1
 202 236 l 1
 136 53 l 1
 164 49 193 41 222 29 c 1
299 498 m 1
 222 288 l 1
 424 288 l 1
 345 500 l 1
 326 586 l 1
 324 586 l 1
 299 498 l 1
EndSplineSet
Validated: 1
EndChar

StartChar: aogonek
Encoding: 261 261 199
Width: 505
GlyphClass: 2
Flags: MW
HStem: -222 44<388 398> -12 62<191.5 219> -10 21G<343 352 343 343 352 360> 242 38<325 325> 468 44<229.5 279>
VStem: 39 96<111.5 174.5 111.5 184.5> 266 84<-131.5 -107.5> 325 90<137 390 242 390>
LayerCount: 2
Fore
SplineSet
410 131 m 0xdd
 410 102 412 83 413 59 c 1
 482 49 l 1
 482 28 l 1
 473 23 464 19 453 15 c 0
 394 -16 350 -58 350 -118 c 0
 350 -145 368 -178 408 -178 c 0
 427 -178 442 -174 461 -169 c 1
 461 -202 l 1
 442 -213 410 -222 386 -222 c 0
 306 -222 266 -185 266 -134 c 0
 266 -81 304 -41 360 -10 c 1
 352 -10 l 1
 343 -10 l 1xbe
 330 21 329 57 328 101 c 1
 323 101 l 1
 312 47 261 -12 177 -12 c 0
 96 -12 39 42 39 122 c 0
 39 247 138 269 324 280 c 1
 335 394 319 468 239 468 c 0
 220 468 196 467 173 458 c 1
 126 338 l 1
 100 338 l 1
 87 378 76 422 73 463 c 1
 124 494 185 512 261 512 c 0
 397 512 415 427 415 353 c 0
 415 273 410 199 410 131 c 0xdd
217 50 m 0xdd
 284 50 317 111 325 137 c 1
 325 242 l 1
 170 242 135 209 135 140 c 0
 135 83 166 50 217 50 c 0xdd
EndSplineSet
Validated: 33
EndChar

StartChar: Cacute
Encoding: 262 262 200
Width: 644
GlyphClass: 2
Flags: MW
HStem: -12 52<333.5 438 333.5 438> 486 20G<537 563 537 537> 660 52<332 414.5>
VStem: 53 99<255 456 255 480>
LayerCount: 2
Fore
SplineSet
500 58 m 1
 547 182 l 1
 573 182 l 1
 580 145 587 82 584 29 c 1
 545 -2 467 -12 409 -12 c 0
 186 -12 53 99 53 350 c 0
 53 610 208 712 388 712 c 0
 476 712 533 701 578 678 c 1
 578 636 571 556 563 506 c 1
 537 506 l 1
 485 650 l 1
 470 658 431 660 398 660 c 0
 266 660 152 562 152 350 c 0
 152 160 251 40 416 40 c 0
 460 40 491 47 500 58 c 1
294 769 m 1
 440 893 l 1
 464 896 520 880 537 861 c 1
 537 841 l 1
 311 750 l 1
 294 769 l 1
EndSplineSet
Validated: 33
EndChar

StartChar: cacute
Encoding: 263 263 201
Width: 466
GlyphClass: 2
Flags: MW
HStem: -12 62<251 310> 468 44<233.5 293> 575 21G<220 220>
VStem: 41 96<200.5 329.5 200.5 334.5>
LayerCount: 2
Fore
SplineSet
414 84 m 1
 427 70 l 1
 403 23 346 -12 274 -12 c 0
 118 -12 41 92 41 250 c 0
 41 419 129 512 272 512 c 0
 337 512 389 500 425 481 c 1
 421 437 410 375 394 339 c 1
 367 339 l 1
 325 458 l 1
 316 465 307 468 279 468 c 0
 188 468 137 408 137 251 c 0
 137 150 193 50 309 50 c 0
 356 50 390 65 414 84 c 1
198 593 m 1
 315 767 l 1
 336 770 391 758 407 745 c 1
 407 726 l 1
 220 575 l 1
 198 593 l 1
EndSplineSet
Validated: 33
EndChar

StartChar: Ccircumflex
Encoding: 264 264 202
Width: 644
GlyphClass: 2
Flags: MW
HStem: -12 52<333.5 438 333.5 438> 486 20G<537 563 537 537> 660 52<332 414.5>
VStem: 53 99<255 456 255 480>
LayerCount: 2
Fore
SplineSet
500 58 m 1
 547 182 l 1
 573 182 l 1
 580 145 587 82 584 29 c 1
 545 -2 467 -12 409 -12 c 0
 186 -12 53 99 53 350 c 0
 53 610 208 712 388 712 c 0
 476 712 533 701 578 678 c 1
 578 636 571 556 563 506 c 1
 537 506 l 1
 485 650 l 1
 470 658 431 660 398 660 c 0
 266 660 152 562 152 350 c 0
 152 160 251 40 416 40 c 0
 460 40 491 47 500 58 c 1
368 809 m 1
 246 752 l 1
 232 771 l 1
 359 883 l 2
 366 887 377 888 385 883 c 2
 510 774 l 1
 495 753 l 1
 368 809 l 1
EndSplineSet
Validated: 33
EndChar

StartChar: ccircumflex
Encoding: 265 265 203
Width: 466
GlyphClass: 2
Flags: MW
HStem: -12 62<251 310> 468 44<233.5 293> 590 21G<167 167 360 360>
VStem: 41 96<200.5 329.5 200.5 334.5>
LayerCount: 2
Fore
SplineSet
414 84 m 1
 427 70 l 1
 403 23 346 -12 274 -12 c 0
 118 -12 41 92 41 250 c 0
 41 419 129 512 272 512 c 0
 337 512 389 500 425 481 c 1
 421 437 410 375 394 339 c 1
 367 339 l 1
 325 458 l 1
 316 465 307 468 279 468 c 0
 188 468 137 408 137 251 c 0
 137 150 193 50 309 50 c 0
 356 50 390 65 414 84 c 1
257 697 m 1
 167 590 l 1
 138 606 l 1
 248 792 l 2
 255 796 266 797 273 792 c 2
 387 607 l 1
 360 590 l 1
 257 697 l 1
EndSplineSet
Validated: 1
EndChar

StartChar: Ccaron
Encoding: 268 268 204
Width: 644
GlyphClass: 2
Flags: MW
HStem: -12 52<333.5 438 333.5 438> 486 20G<537 563 537 537> 660 52<332 414.5> 868 20G<246 271>
VStem: 53 99<255 456 255 480>
LayerCount: 2
Fore
SplineSet
500 58 m 1
 547 182 l 1
 573 182 l 1
 580 145 587 82 584 29 c 1
 545 -2 467 -12 409 -12 c 0
 186 -12 53 99 53 350 c 0
 53 610 208 712 388 712 c 0
 476 712 533 701 578 678 c 1
 578 636 571 556 563 506 c 1
 537 506 l 1
 485 650 l 1
 470 658 431 660 398 660 c 0
 266 660 152 562 152 350 c 0
 152 160 251 40 416 40 c 0
 460 40 491 47 500 58 c 1
388 833 m 1
 499 888 l 1
 510 888 520 880 524 871 c 1
 397 759 l 2
 390 756 379 755 371 759 c 2
 246 868 l 1
 251 877 258 888 271 888 c 1
 388 833 l 1
EndSplineSet
Validated: 33
EndChar

StartChar: ccaron
Encoding: 269 269 205
Width: 466
GlyphClass: 2
Flags: MW
HStem: -12 62<251 310> 468 44<233.5 293>
VStem: 41 96<200.5 329.5 200.5 334.5>
LayerCount: 2
Fore
SplineSet
414 84 m 1
 427 70 l 1
 403 23 346 -12 274 -12 c 0
 118 -12 41 92 41 250 c 0
 41 419 129 512 272 512 c 0
 337 512 389 500 425 481 c 1
 421 437 410 375 394 339 c 1
 367 339 l 1
 325 458 l 1
 316 465 307 468 279 468 c 0
 188 468 137 408 137 251 c 0
 137 150 193 50 309 50 c 0
 356 50 390 65 414 84 c 1
259 690 m 1
 359 796 l 1
 371 797 384 789 388 780 c 1
 264 595 l 1
 257 592 247 591 239 595 c 1
 118 779 l 1
 123 790 139 797 152 796 c 1
 259 690 l 1
EndSplineSet
Validated: 33
EndChar

StartChar: Dcaron
Encoding: 270 270 206
Width: 708
GlyphClass: 2
Flags: MW
HStem: -9 52<287 386.5 287 410> 0 21G<29 125 29 29> 656 52<283 385.5> 680 20G<29 131 131 153> 868 20G<159 184>
VStem: 111 90<53 646 646 646> 549 107<275.5 424.5>
LayerCount: 2
Fore
SplineSet
125 0 m 2x6e
 29 0 l 1
 29 29 l 1
 52 40 80 48 111 53 c 1
 111 646 l 1
 80 653 52 662 29 671 c 1
 29 700 l 1
 131 700 l 2x5e
 175 700 263 708 303 708 c 0
 530 708 656 582 656 359 c 0
 656 148 538 -9 282 -9 c 0xae
 243 -9 176 0 125 0 c 2x6e
289 656 m 0xae
 254 656 220 656 201 652 c 1
 201 46 l 1
 214 43 279 43 295 43 c 0
 478 43 549 192 549 359 c 0
 549 490 482 656 289 656 c 0xae
301 833 m 1
 412 888 l 1
 423 888 433 880 437 871 c 1
 310 759 l 2
 303 756 292 755 284 759 c 2
 159 868 l 1
 164 877 171 888 184 888 c 1
 301 833 l 1
EndSplineSet
Validated: 1
EndChar

StartChar: dcaron
Encoding: 271 271 207
Width: 555
GlyphClass: 2
Flags: MW
HStem: -12 62<216 272.5> -10 21G<386 411 386 386> 465 44<231.5 296.5 201.5 301> 732 20G<441 466 466 466>
VStem: 41 96<193 313 193 332.5> 137 239<193 313> 376 90<165 447 447 447 493 682 682 682> 466 84<706.5 734 706.5 752>
LayerCount: 2
Fore
SplineSet
377 99 m 1x7a
 373 99 l 1
 360 40 307 -12 238 -12 c 0xb5
 106 -12 41 70 41 247 c 0
 41 418 131 509 272 509 c 0
 321 509 343 505 376 493 c 1
 376 682 l 1
 300 690 l 1
 300 716 l 1
 339 732 394 744 441 752 c 1
 466 752 l 1
 466 57 l 1
 532 49 l 1
 532 28 l 1
 493 9 451 -5 411 -10 c 1
 386 -10 l 1
 377 99 l 1x7a
258 50 m 0
 323 50 361 94 376 165 c 1
 376 447 l 1
 353 460 325 465 277 465 c 0
 186 465 137 379 137 247 c 0
 137 139 174 50 258 50 c 0
527 532 m 1
 507 543 l 1
 535 603 550 679 550 734 c 1
 562 750 l 1
 581 753 627 740 643 727 c 1
 629 651 570 572 527 532 c 1
EndSplineSet
Validated: 33
EndChar

StartChar: Dcroat
Encoding: 272 272 208
Width: 709
GlyphClass: 2
Flags: MW
HStem: -9 52<288.5 387.5 288.5 410> 0 21G<29 125 29 29> 332 52<22 111 22 111 201 368> 656 52<283 386> 680 20G<29 131 131 153>
VStem: 111 90<53 332 46 332 384 646 646 646> 549 107<275.5 424.5>
LayerCount: 2
Fore
SplineSet
22 332 m 1x76
 22 384 l 1
 111 384 l 1
 111 646 l 1
 80 653 52 662 29 671 c 1
 29 700 l 1
 131 700 l 2xae
 175 700 263 708 303 708 c 0
 529 708 656 580 656 359 c 0
 656 148 538 -9 282 -9 c 0xb6
 244 -9 175 0 125 0 c 2
 29 0 l 1
 29 29 l 1
 52 40 80 48 111 53 c 1
 111 332 l 1
 22 332 l 1x76
289 656 m 0xb6
 254 656 220 656 201 652 c 1
 201 384 l 1
 368 384 l 1
 368 332 l 1
 201 332 l 1
 201 46 l 1
 215 43 281 43 296 43 c 0
 479 43 549 192 549 359 c 0
 549 490 483 656 289 656 c 0xb6
EndSplineSet
Validated: 1
EndChar

StartChar: dcroat
Encoding: 273 273 209
Width: 555
GlyphClass: 2
Flags: MW
HStem: -12 62<216 272.5> -10 21G<386 411 386 386> 465 44<231.5 296.5 201.5 301> 571 52<223 376 223 376 466 558> 732 20G<441 466 466 466>
VStem: 41 96<193 313 193 332.5> 376 90<165 447 447 447 493 571 57 571 623 682 682 682>
LayerCount: 2
Fore
SplineSet
223 571 m 1xbe
 223 623 l 1
 376 623 l 1
 376 682 l 1
 300 690 l 1
 300 716 l 1
 339 732 394 744 441 752 c 1
 466 752 l 1
 466 623 l 1
 558 623 l 1
 558 571 l 1
 466 571 l 1
 466 57 l 1
 532 49 l 1
 532 28 l 1
 493 9 451 -5 411 -10 c 1
 386 -10 l 1x7e
 377 99 l 1
 373 99 l 1
 360 40 307 -12 238 -12 c 0
 106 -12 41 70 41 247 c 0
 41 418 131 509 272 509 c 0
 321 509 343 505 376 493 c 1
 376 571 l 1
 223 571 l 1xbe
258 50 m 0xbe
 323 50 361 94 376 165 c 1
 376 447 l 1
 353 460 325 465 277 465 c 0
 186 465 137 379 137 247 c 0
 137 139 174 50 258 50 c 0xbe
EndSplineSet
Validated: 1
EndChar

StartChar: Emacron
Encoding: 274 274 210
Width: 582
GlyphClass: 2
Flags: MW
HStem: 0 52<207 437 207 522> 331 52<207 370 207 370> 648 52<207 425 207 207> 788 52<151 452 151 452>
VStem: 111 96<53 331 383 646 646 646>
LayerCount: 2
Fore
SplineSet
29 700 m 1
 503 700 l 1
 502 647 499 593 492 538 c 1
 466 538 l 1
 425 648 l 1
 207 648 l 1
 207 383 l 1
 370 383 l 1
 409 457 l 1
 434 457 l 1
 438 391 438 324 434 255 c 1
 409 255 l 1
 370 331 l 1
 207 331 l 1
 207 52 l 1
 437 52 l 1
 486 172 l 1
 511 172 l 1
 520 116 525 59 522 0 c 1
 29 0 l 1
 29 29 l 1
 52 40 80 48 111 53 c 1
 111 646 l 1
 84 651 56 660 29 671 c 1
 29 700 l 1
452 788 m 1
 151 788 l 1
 151 840 l 1
 452 840 l 1
 452 788 l 1
EndSplineSet
Validated: 33
EndChar

StartChar: emacron
Encoding: 275 275 211
Width: 503
GlyphClass: 2
Flags: MW
HStem: -12 62<249.5 316.5> 250 44<140 360 140 449 137 360> 468 44<225 297> 637 52<134 387 134 387>
VStem: 41 96<194 250 194 335.5> 362 94<322.5 370.5>
LayerCount: 2
Fore
SplineSet
432 86 m 1
 446 70 l 1
 425 24 352 -12 281 -12 c 0
 124 -12 41 91 41 250 c 0
 41 421 123 512 267 512 c 0
 360 512 456 466 456 322 c 0
 456 299 454 277 449 250 c 1
 137 250 l 1
 137 138 192 50 307 50 c 0
 354 50 408 65 432 86 c 1
263 468 m 0
 187 468 148 423 140 294 c 1
 360 294 l 1
 361 306 362 317 362 328 c 0
 362 413 331 468 263 468 c 0
387 637 m 1
 134 637 l 1
 134 689 l 1
 387 689 l 1
 387 637 l 1
EndSplineSet
Validated: 1
EndChar

StartChar: Edotaccent
Encoding: 278 278 212
Width: 582
GlyphClass: 2
Flags: MW
HStem: 0 52<207 437 207 522> 331 52<207 370 207 370> 648 52<207 425 207 207> 763 108<273 309>
VStem: 111 96<53 331 383 646 646 646> 226 128<799.5 834.5>
LayerCount: 2
Fore
SplineSet
29 700 m 1
 503 700 l 1
 502 647 499 593 492 538 c 1
 466 538 l 1
 425 648 l 1
 207 648 l 1
 207 383 l 1
 370 383 l 1
 409 457 l 1
 434 457 l 1
 438 391 438 324 434 255 c 1
 409 255 l 1
 370 331 l 1
 207 331 l 1
 207 52 l 1
 437 52 l 1
 486 172 l 1
 511 172 l 1
 520 116 525 59 522 0 c 1
 29 0 l 1
 29 29 l 1
 52 40 80 48 111 53 c 1
 111 646 l 1
 84 651 56 660 29 671 c 1
 29 700 l 1
226 817 m 0
 226 852 255 871 291 871 c 0
 327 871 354 852 354 817 c 0
 354 782 327 763 291 763 c 0
 255 763 226 782 226 817 c 0
EndSplineSet
Validated: 33
EndChar

StartChar: edotaccent
Encoding: 279 279 213
Width: 503
GlyphClass: 2
Flags: MW
HStem: -12 62<249.5 316.5> 250 44<140 360 140 449 137 360> 468 44<225 297> 612 117<240.5 279.5>
VStem: 41 96<194 250 194 335.5> 196 127<652 688> 362 94<322.5 370.5>
LayerCount: 2
Fore
SplineSet
432 86 m 1
 446 70 l 1
 425 24 352 -12 281 -12 c 0
 124 -12 41 91 41 250 c 0
 41 421 123 512 267 512 c 0
 360 512 456 466 456 322 c 0
 456 299 454 277 449 250 c 1
 137 250 l 1
 137 138 192 50 307 50 c 0
 354 50 408 65 432 86 c 1
263 468 m 0
 187 468 148 423 140 294 c 1
 360 294 l 1
 361 306 362 317 362 328 c 0
 362 413 331 468 263 468 c 0
196 670 m 0
 196 706 221 729 260 729 c 0
 299 729 323 706 323 670 c 0
 323 634 299 612 260 612 c 0
 221 612 196 634 196 670 c 0
EndSplineSet
Validated: 1
EndChar

StartChar: Eogonek
Encoding: 280 280 214
Width: 582
GlyphClass: 2
Flags: MW
HStem: -251 52<423.5 430.5> 0 52<207 424 207 522 207 478> 331 52<207 370 207 370> 648 52<207 425 207 207>
VStem: 111 96<53 331 383 646 646 646> 295 82<-153.5 -117> 295 208
LayerCount: 2
Fore
SplineSet
29 700 m 1xfc
 503 700 l 1xfa
 502 647 499 593 492 538 c 1
 466 538 l 1
 425 648 l 1
 207 648 l 1
 207 383 l 1
 370 383 l 1
 409 457 l 1
 434 457 l 1
 438 391 438 324 434 255 c 1
 409 255 l 1
 370 331 l 1
 207 331 l 1
 207 52 l 1
 437 52 l 1
 486 172 l 1
 511 172 l 1
 519 137 522 35 522 0 c 1
 478 0 l 1
 422 -32 377 -76 377 -135 c 0
 377 -172 402 -199 445 -199 c 0
 466 -199 484 -197 500 -193 c 1
 500 -222 l 1
 481 -237 452 -251 409 -251 c 0
 347 -251 295 -212 295 -152 c 0
 295 -82 350 -40 424 0 c 1
 29 0 l 1
 29 29 l 1
 52 40 80 48 111 53 c 1
 111 646 l 1
 84 651 56 660 29 671 c 1
 29 700 l 1xfc
EndSplineSet
Validated: 33
EndChar

StartChar: eogonek
Encoding: 281 281 215
Width: 503
GlyphClass: 2
Flags: MW
HStem: -222 44<317.5 329> -12 62<249.5 287> 250 44<140 360 140 449 137 360> 468 44<225 301>
VStem: 41 96<194 250 194 335.5> 197 84<-131.5 -108>
LayerCount: 2
Fore
SplineSet
432 86 m 1
 446 70 l 1
 433 43 403 20 367 5 c 1
 316 -24 281 -65 281 -118 c 0
 281 -145 296 -178 339 -178 c 0
 358 -178 373 -174 392 -169 c 1
 392 -202 l 1
 373 -213 341 -222 317 -222 c 0
 237 -222 197 -185 197 -134 c 0
 197 -82 234 -43 287 -12 c 1
 124 -12 41 85 41 250 c 0
 41 421 123 512 267 512 c 0
 374 512 484 451 449 250 c 1
 137 250 l 1
 137 138 192 50 307 50 c 0
 354 50 408 65 432 86 c 1
263 468 m 0
 187 468 148 423 140 294 c 1
 360 294 l 1
 369 398 339 468 263 468 c 0
EndSplineSet
Validated: 33
EndChar

StartChar: Ecaron
Encoding: 282 282 216
Width: 582
GlyphClass: 2
Flags: MW
HStem: 0 52<207 437 207 522> 331 52<207 370 207 370> 648 52<207 425 207 207> 868 20G<156 181>
VStem: 111 96<53 331 383 646 646 646>
LayerCount: 2
Fore
SplineSet
29 700 m 1
 503 700 l 1
 502 647 499 593 492 538 c 1
 466 538 l 1
 425 648 l 1
 207 648 l 1
 207 383 l 1
 370 383 l 1
 409 457 l 1
 434 457 l 1
 438 391 438 324 434 255 c 1
 409 255 l 1
 370 331 l 1
 207 331 l 1
 207 52 l 1
 437 52 l 1
 486 172 l 1
 511 172 l 1
 520 116 525 59 522 0 c 1
 29 0 l 1
 29 29 l 1
 52 40 80 48 111 53 c 1
 111 646 l 1
 84 651 56 660 29 671 c 1
 29 700 l 1
298 833 m 1
 409 888 l 1
 420 888 430 880 434 871 c 1
 307 759 l 2
 300 756 289 755 281 759 c 2
 156 868 l 1
 161 877 168 888 181 888 c 1
 298 833 l 1
EndSplineSet
Validated: 33
EndChar

StartChar: ecaron
Encoding: 283 283 217
Width: 503
GlyphClass: 2
Flags: MW
HStem: -12 62<249.5 316.5> 250 44<140 360 140 449 137 360> 468 44<225 297>
VStem: 41 96<194 250 194 335.5> 362 94<322.5 370.5>
LayerCount: 2
Fore
SplineSet
432 86 m 1
 446 70 l 1
 425 24 352 -12 281 -12 c 0
 124 -12 41 91 41 250 c 0
 41 421 123 512 267 512 c 0
 360 512 456 466 456 322 c 0
 456 299 454 277 449 250 c 1
 137 250 l 1
 137 138 192 50 307 50 c 0
 354 50 408 65 432 86 c 1
263 468 m 0
 187 468 148 423 140 294 c 1
 360 294 l 1
 361 306 362 317 362 328 c 0
 362 413 331 468 263 468 c 0
258 690 m 1
 358 796 l 1
 370 797 383 789 387 780 c 1
 263 595 l 1
 256 592 246 591 238 595 c 1
 117 779 l 1
 122 790 138 797 151 796 c 1
 258 690 l 1
EndSplineSet
Validated: 33
EndChar

StartChar: Gcircumflex
Encoding: 284 284 218
Width: 688
GlyphClass: 2
Flags: MW
HStem: -12 52<335 433> 486 20G<539 565 539 539> 660 52<332.5 415.5>
VStem: 53 99<256 456 256 481> 522 87<75 277 48 277>
LayerCount: 2
Fore
SplineSet
609 277 m 1
 609 48 l 1
 559 19 466 -12 400 -12 c 0
 188 -12 53 100 53 350 c 0
 53 612 220 712 389 712 c 0
 477 712 535 701 580 678 c 1
 580 638 573 554 565 506 c 1
 539 506 l 1
 487 650 l 1
 472 658 432 660 399 660 c 0
 266 660 152 562 152 350 c 0
 152 162 263 40 407 40 c 0
 461 40 512 65 522 75 c 1
 522 277 l 1
 487 280 457 290 426 301 c 1
 426 330 l 1
 671 330 l 1
 671 301 l 1
 658 292 641 284 609 277 c 1
370 809 m 1
 248 752 l 1
 234 771 l 1
 361 883 l 2
 368 887 379 888 387 883 c 2
 512 774 l 1
 497 753 l 1
 370 809 l 1
EndSplineSet
Validated: 1
EndChar

StartChar: gcircumflex
Encoding: 285 285 219
Width: 526
GlyphClass: 2
Flags: MW
HStem: -212 44<220 317.5 220 319> 189 44<234.5 285.5 205.5 311.5> 468 44<206.5 283 182 286.5> 507 20G 590 21G<149 149 342 342>
VStem: 30 90<-97.5 -46> 48 90<319 388.5 319 397> 107 64<110 133.5> 355 90<317.5 370.5 303 387> 395 90
LayerCount: 2
Fore
SplineSet
247 512 m 0xe280
 319 512 367 498 400 469 c 1
 439 496 480 515 523 527 c 1
 534 512 538 489 538 470 c 1
 525 446 l 1
 420 446 l 1
 437 422 445 390 445 351 c 0
 445 255 376 189 247 189 c 0
 222 189 209 190 189 193 c 1
 182 181 171 166 171 150 c 0xd180
 171 70 481 111 485 -58 c 0
 488 -155 388 -212 250 -212 c 0
 105 -212 30 -157 30 -82 c 0xe440
 30 -10 75 21 158 48 c 1
 129 61 107 85 107 118 c 0xe180
 107 149 139 182 166 199 c 1
 90 219 48 280 48 351 c 0
 48 443 117 512 247 512 c 0xe280
395 -81 m 0
 395 4 266 13 182 39 c 1
 131 8 120 -26 120 -62 c 0
 120 -133 172 -168 268 -168 c 0
 367 -168 395 -129 395 -81 c 0
138 351 m 0xe280
 138 287 164 233 247 233 c 0
 324 233 355 284 355 351 c 0
 355 423 326 468 247 468 c 0
 166 468 138 426 138 351 c 0xe280
239 697 m 1x08
 149 590 l 1
 120 606 l 1
 230 792 l 2
 237 796 248 797 255 792 c 2
 369 607 l 1
 342 590 l 1
 239 697 l 1x08
EndSplineSet
Validated: 33
EndChar

StartChar: Gbreve
Encoding: 286 286 220
Width: 688
GlyphClass: 2
Flags: MW
HStem: -12 52<335 433> 486 20G<539 565 539 539> 660 52<332.5 415.5> 759 70<379.5 400 379.5 432.5>
VStem: 53 99<256 456 256 481> 522 87<75 277 48 277>
LayerCount: 2
Fore
SplineSet
609 277 m 1
 609 48 l 1
 559 19 466 -12 400 -12 c 0
 188 -12 53 100 53 350 c 0
 53 612 220 712 389 712 c 0
 477 712 535 701 580 678 c 1
 580 638 573 554 565 506 c 1
 539 506 l 1
 487 650 l 1
 472 658 432 660 399 660 c 0
 266 660 152 562 152 350 c 0
 152 162 263 40 407 40 c 0
 461 40 512 65 522 75 c 1
 522 277 l 1
 487 280 457 290 426 301 c 1
 426 330 l 1
 671 330 l 1
 671 301 l 1
 658 292 641 284 609 277 c 1
515 883 m 1
 526 884 536 880 547 869 c 1
 523 810 466 759 399 759 c 0
 327 759 270 799 245 871 c 1
 253 884 267 889 287 886 c 1
 306 854 359 829 400 829 c 0
 443 828 488 842 515 883 c 1
EndSplineSet
Validated: 33
EndChar

StartChar: gbreve
Encoding: 287 287 221
Width: 526
GlyphClass: 2
Flags: MW
HStem: -212 44<220 317.5 220 319> 189 44<234.5 285.5 205.5 311.5> 468 44<206.5 283 182 286.5> 507 20G 597 72<225.5 246 225.5 278.5> 714 20G<135 135>
VStem: 30 90<-97.5 -46> 48 90<319 388.5 319 397> 107 64<110 133.5> 355 90<317.5 370.5 303 387> 395 90
LayerCount: 2
Fore
SplineSet
247 512 m 0xe140
 319 512 367 498 400 469 c 1
 439 496 480 515 523 527 c 1
 534 512 538 489 538 470 c 1
 525 446 l 1
 420 446 l 1
 437 422 445 390 445 351 c 0
 445 255 376 189 247 189 c 0
 222 189 209 190 189 193 c 1
 182 181 171 166 171 150 c 0xd0c0
 171 70 481 111 485 -58 c 0
 488 -155 388 -212 250 -212 c 0
 105 -212 30 -157 30 -82 c 0xe220
 30 -10 75 21 158 48 c 1
 129 61 107 85 107 118 c 0xe0c0
 107 149 139 182 166 199 c 1
 90 219 48 280 48 351 c 0
 48 443 117 512 247 512 c 0xe140
395 -81 m 0
 395 4 266 13 182 39 c 1
 131 8 120 -26 120 -62 c 0
 120 -133 172 -168 268 -168 c 0
 367 -168 395 -129 395 -81 c 0
138 351 m 0xe140
 138 287 164 233 247 233 c 0
 324 233 355 284 355 351 c 0
 355 423 326 468 247 468 c 0
 166 468 138 426 138 351 c 0xe140
355 730 m 1x0c
 379 719 l 1
 355 660 312 597 245 597 c 0
 175 597 131 650 107 721 c 1
 135 734 l 1
 153 700 205 669 246 669 c 0
 291 668 328 688 355 730 c 1x0c
EndSplineSet
Validated: 33
EndChar

StartChar: Gcommaaccent
Encoding: 290 290 222
Width: 688
GlyphClass: 2
Flags: MW
HStem: -272 21G<336 336> -12 52<335 433> 486 20G<539 565 539 539> 660 52<332.5 415.5>
VStem: 53 99<256 456 256 481> 522 87<75 277 48 277>
LayerCount: 2
Fore
SplineSet
609 277 m 1
 609 48 l 1
 559 19 466 -12 400 -12 c 0
 188 -12 53 100 53 350 c 0
 53 612 220 712 389 712 c 0
 477 712 535 701 580 678 c 1
 580 638 573 554 565 506 c 1
 539 506 l 1
 487 650 l 1
 472 658 432 660 399 660 c 0
 266 660 152 562 152 350 c 0
 152 162 263 40 407 40 c 0
 461 40 512 65 522 75 c 1
 522 277 l 1
 487 280 457 290 426 301 c 1
 426 330 l 1
 671 330 l 1
 671 301 l 1
 658 292 641 284 609 277 c 1
336 -272 m 1
 321 -238 l 1
 345 -227 375 -202 371 -163 c 1
 356 -151 325 -138 305 -131 c 1
 292 -89 333 -47 361 -47 c 0
 406 -51 448 -81 448 -138 c 0
 448 -202 407 -253 336 -272 c 1
EndSplineSet
Validated: 33
EndChar

StartChar: gcommaaccent
Encoding: 291 291 223
Width: 526
GlyphClass: 2
Flags: MW
HStem: -212 44<220 317.5 220 319> 189 44<234.5 285.5 205.5 311.5> 468 44<206.5 283 182 286.5> 793 20G<301 301>
VStem: 30 90<-97.5 -46> 48 90<319 388.5 319 397> 107 64<110 133.5> 355 90<317.5 370.5 303 387> 395 90
LayerCount: 2
Fore
SplineSet
247 512 m 0xf480
 319 512 367 498 400 469 c 1
 439 496 480 515 523 527 c 1
 534 512 538 489 538 470 c 1
 525 446 l 1
 420 446 l 1
 437 422 445 390 445 351 c 0
 445 255 376 189 247 189 c 0
 222 189 209 190 189 193 c 1
 182 181 171 166 171 150 c 0xf3
 171 70 481 111 485 -58 c 0
 488 -155 388 -212 250 -212 c 0
 105 -212 30 -157 30 -82 c 0xf880
 30 -10 75 21 158 48 c 1
 129 61 107 85 107 118 c 0xf280
 107 149 139 182 166 199 c 1
 90 219 48 280 48 351 c 0
 48 443 117 512 247 512 c 0xf480
395 -81 m 0xf880
 395 4 266 13 182 39 c 1
 131 8 120 -26 120 -62 c 0
 120 -133 172 -168 268 -168 c 0
 367 -168 395 -129 395 -81 c 0xf880
138 351 m 0xf5
 138 287 164 233 247 233 c 0
 324 233 355 284 355 351 c 0
 355 423 326 468 247 468 c 0
 166 468 138 426 138 351 c 0xf5
301 813 m 1
 317 778 l 1
 276 762 262 732 262 705 c 1
 277 693 307 679 327 672 c 1
 340 631 300 589 272 589 c 0
 228 593 193 623 193 680 c 0
 193 744 240 798 301 813 c 1
EndSplineSet
Validated: 33
EndChar

StartChar: Hcircumflex
Encoding: 292 292 224
Width: 728
GlyphClass: 2
Flags: MW
HStem: 0 21G<29 282 29 29 446 446 446 699> 333 52<207 521 207 521> 680 20G<29 282 282 282 446 699 699 699>
VStem: 111 96<53 333 385 646> 521 96<53 333 333 333 385 646 53 646>
LayerCount: 2
Fore
SplineSet
282 29 m 1
 282 0 l 1
 29 0 l 1
 29 29 l 1
 56 40 83 48 111 53 c 1
 111 646 l 1
 80 651 52 659 29 671 c 1
 29 700 l 1
 282 700 l 1
 282 671 l 1
 259 659 234 651 207 646 c 1
 207 385 l 1
 521 385 l 1
 521 646 l 1
 493 653 469 660 446 671 c 1
 446 700 l 1
 699 700 l 1
 699 671 l 1
 675 658 645 651 617 646 c 1
 617 53 l 1
 648 48 676 40 699 29 c 1
 699 0 l 1
 446 0 l 1
 446 29 l 1
 470 40 495 48 521 53 c 1
 521 333 l 1
 207 333 l 1
 207 53 l 1
 234 48 259 40 282 29 c 1
361 809 m 1
 239 752 l 1
 225 771 l 1
 352 883 l 2
 359 887 370 888 378 883 c 2
 503 774 l 1
 488 753 l 1
 361 809 l 1
EndSplineSet
Validated: 1
EndChar

StartChar: hcircumflex
Encoding: 293 293 225
Width: 587
GlyphClass: 2
Flags: MW
HStem: 0 21G<24 239 24 24 354 570 354 354> 450 62<299.5 350.5>
VStem: 90 90<49 341 49 399 399 682 682 682> 414 90<49 283 283 302 49 335>
LayerCount: 2
Fore
SplineSet
570 25 m 1
 570 0 l 1
 354 0 l 1
 354 25 l 1
 370 34 390 42 414 49 c 1
 414 283 l 2
 414 387 389 450 312 450 c 0
 245 450 196 396 180 341 c 1
 180 49 l 1
 201 44 220 38 239 25 c 1
 239 0 l 1
 24 0 l 1
 24 25 l 1
 45 36 67 44 90 49 c 1
 90 682 l 1
 14 690 l 1
 14 716 l 1
 53 732 108 744 155 752 c 1
 180 752 l 1
 180 399 l 1
 181 399 l 1
 209 462 262 512 337 512 c 0
 445 512 504 467 504 302 c 2
 504 49 l 1
 527 44 550 38 570 25 c 1
122 809 m 1
 0 752 l 1
 -14 771 l 1
 113 883 l 2
 120 887 131 888 139 883 c 2
 264 774 l 1
 249 753 l 1
 122 809 l 1
EndSplineSet
Validated: 1
EndChar

StartChar: Hbar
Encoding: 294 294 226
Width: 728
GlyphClass: 2
Flags: MW
HStem: 0 21G<29 282 29 29 446 699 446 446> 333 52<207 521 207 521> 506 52<30 111 30 111 207 521 617 698> 506 194<30 30 30 111 207 207 207 282 446 521 617 617 617 698>
VStem: 111 96<53 333 385 506 558 646> 521 96<53 333 333 333 385 506 53 506 558 646>
LayerCount: 2
Fore
SplineSet
30 506 m 1xec
 30 558 l 1
 111 558 l 1xec
 111 646 l 1
 80 651 52 659 29 671 c 1
 29 700 l 1
 282 700 l 1xdc
 282 671 l 1
 259 659 234 651 207 646 c 1
 207 558 l 1
 521 558 l 1xec
 521 646 l 1
 493 653 469 660 446 671 c 1
 446 700 l 1
 699 700 l 1xdc
 699 671 l 1
 675 658 645 651 617 646 c 1
 617 558 l 1
 698 558 l 1
 698 506 l 1
 617 506 l 1
 617 53 l 1
 648 48 676 40 699 29 c 1
 699 0 l 1
 446 0 l 1
 446 29 l 1
 470 40 495 48 521 53 c 1
 521 333 l 1
 207 333 l 1
 207 53 l 1
 234 48 259 40 282 29 c 1
 282 0 l 1
 29 0 l 1
 29 29 l 1
 56 40 83 48 111 53 c 1
 111 506 l 1
 30 506 l 1xec
207 385 m 1
 521 385 l 1
 521 506 l 1
 207 506 l 1
 207 385 l 1
EndSplineSet
Validated: 1
EndChar

StartChar: hbar
Encoding: 295 295 227
Width: 587
GlyphClass: 2
Flags: MW
HStem: 0 21G<24 239 24 24 354 570 354 354> 450 62<299.5 350.5> 571 51<3 90 3 90 180 339> 732 20G<155 180 180 180>
VStem: 14 166<690 716 716 716> 90 90<49 341 399 571 622 682 682 682> 414 90<49 283 283 302 49 335>
LayerCount: 2
Fore
SplineSet
3 571 m 1xf6
 3 622 l 1
 90 622 l 1
 90 682 l 1xf6
 14 690 l 1
 14 716 l 1xfa
 53 732 108 744 155 752 c 1
 180 752 l 1
 180 622 l 1
 339 622 l 1
 339 571 l 1
 180 571 l 1
 180 399 l 1
 181 399 l 1
 209 462 262 512 337 512 c 0
 445 512 504 467 504 302 c 2
 504 49 l 1
 527 44 550 38 570 25 c 1
 570 0 l 1
 354 0 l 1
 354 25 l 1
 370 34 390 42 414 49 c 1
 414 283 l 2
 414 387 389 450 312 450 c 0
 245 450 196 396 180 341 c 1
 180 49 l 1
 201 44 220 38 239 25 c 1
 239 0 l 1
 24 0 l 1
 24 25 l 1
 45 36 67 44 90 49 c 1
 90 571 l 1
 3 571 l 1xf6
EndSplineSet
Validated: 1
EndChar

StartChar: Imacron
Encoding: 298 298 228
Width: 352
GlyphClass: 2
Flags: MW
HStem: 0 21G<48 304 48 48> 680 20G<48 304 304 304> 788 52<27 328 27 328>
VStem: 128 96<53 646 53 646>
LayerCount: 2
Fore
SplineSet
304 29 m 1
 304 0 l 1
 48 0 l 1
 48 29 l 1
 74 41 101 49 128 53 c 1
 128 646 l 1
 101 651 75 660 48 671 c 1
 48 700 l 1
 304 700 l 1
 304 671 l 1
 280 660 251 651 224 646 c 1
 224 53 l 1
 252 48 281 40 304 29 c 1
328 788 m 1
 27 788 l 1
 27 840 l 1
 328 840 l 1
 328 788 l 1
EndSplineSet
Validated: 1
EndChar

StartChar: imacron
Encoding: 299 299 229
Width: 301
GlyphClass: 2
Flags: MW
HStem: 0 21G<41 263 41 41> 492 20G<172 197 197 197> 637 52<24 277 24 277>
VStem: 107 90<49 442 442 442>
LayerCount: 2
Fore
SplineSet
263 25 m 1
 263 0 l 1
 41 0 l 1
 41 25 l 1
 61 36 82 42 107 49 c 1
 107 442 l 1
 41 450 l 1
 41 476 l 1
 80 492 127 504 172 512 c 1
 197 512 l 1
 197 49 l 1
 224 42 244 36 263 25 c 1
277 637 m 1
 24 637 l 1
 24 689 l 1
 277 689 l 1
 277 637 l 1
EndSplineSet
Validated: 1
EndChar

StartChar: Iogonek
Encoding: 302 302 230
Width: 352
GlyphClass: 2
Flags: MW
HStem: -251 52<209.5 216> 0 21G<48 209 48 48 264 304 264 264> 680 20G<48 304 304 304>
VStem: 81 82<-153.5 -117> 128 96<53 646 53 646>
LayerCount: 2
Fore
SplineSet
304 29 m 1xe8
 304 0 l 1
 264 0 l 1
 207 -32 163 -76 163 -135 c 0
 163 -172 189 -199 230 -199 c 0
 251 -199 269 -197 285 -193 c 1
 285 -222 l 1
 266 -237 238 -251 194 -251 c 0
 133 -251 81 -212 81 -152 c 0xf0
 81 -82 135 -40 209 0 c 1
 48 0 l 1
 48 29 l 1
 74 41 101 49 128 53 c 1
 128 646 l 1
 101 651 75 660 48 671 c 1
 48 700 l 1
 304 700 l 1
 304 671 l 1
 280 660 251 651 224 646 c 1
 224 53 l 1
 252 48 281 40 304 29 c 1xe8
EndSplineSet
Validated: 1
EndChar

StartChar: iogonek
Encoding: 303 303 231
Width: 304
GlyphClass: 2
Flags: MW
HStem: -222 44<184.5 196> 0 21G<42 178 42 42 225 264 225 225> 492 20G<173 198 198 198> 612 111<135.5 170.5>
VStem: 65 83<-131.5 -104> 94 117<649.5 684.5> 108 90<49 442 442 442>
LayerCount: 2
Fore
SplineSet
264 25 m 1xf2
 264 0 l 1
 225 0 l 1
 181 -28 148 -67 148 -118 c 0
 148 -145 163 -178 206 -178 c 0
 226 -178 241 -174 260 -169 c 1
 260 -202 l 1
 241 -213 208 -222 184 -222 c 0
 105 -222 65 -185 65 -134 c 0xf8
 65 -74 110 -31 178 0 c 1
 42 0 l 1
 42 25 l 1
 62 36 83 42 108 49 c 1
 108 442 l 1
 42 450 l 1
 42 476 l 1
 81 492 128 504 173 512 c 1
 198 512 l 1
 198 49 l 1
 225 42 245 36 264 25 c 1xf2
94 667 m 0xf4
 94 702 118 723 153 723 c 0
 188 723 211 702 211 667 c 0
 211 632 188 612 153 612 c 0
 118 612 94 632 94 667 c 0xf4
EndSplineSet
Validated: 1
EndChar

StartChar: Idotaccent
Encoding: 304 304 232
Width: 352
GlyphClass: 2
Flags: MW
HStem: 0 21G<48 304 48 48> 680 20G<48 304 304 304> 763 108<159 195>
VStem: 112 128<799.5 834.5> 128 96<53 646 53 646>
LayerCount: 2
Fore
SplineSet
304 29 m 1xe8
 304 0 l 1
 48 0 l 1
 48 29 l 1
 74 41 101 49 128 53 c 1
 128 646 l 1
 101 651 75 660 48 671 c 1
 48 700 l 1
 304 700 l 1
 304 671 l 1
 280 660 251 651 224 646 c 1
 224 53 l 1
 252 48 281 40 304 29 c 1xe8
112 817 m 0xf0
 112 852 141 871 177 871 c 0
 213 871 240 852 240 817 c 0
 240 782 213 763 177 763 c 0
 141 763 112 782 112 817 c 0xf0
EndSplineSet
Validated: 1
EndChar

StartChar: dotlessi
Encoding: 305 305 233
Width: 301
GlyphClass: 2
Flags: MW
HStem: 0 21G<41 263 41 41> 492 20G<172 197 197 197>
VStem: 107 90<49 442 442 442>
LayerCount: 2
Fore
SplineSet
263 25 m 1
 263 0 l 1
 41 0 l 1
 41 25 l 1
 61 36 82 42 107 49 c 1
 107 442 l 1
 41 450 l 1
 41 476 l 1
 80 492 127 504 172 512 c 1
 197 512 l 1
 197 49 l 1
 224 42 244 36 263 25 c 1
EndSplineSet
Validated: 1
EndChar

StartChar: Jcircumflex
Encoding: 308 308 234
Width: 341
GlyphClass: 2
Flags: MW
HStem: -160 21G<63 63> 680 20G<39 293 293 293>
VStem: 121 96<75 86 86 646>
LayerCount: 2
Fore
SplineSet
39 671 m 1
 39 700 l 1
 293 700 l 1
 293 671 l 1
 269 660 244 651 217 646 c 1
 217 86 l 2
 217 -99 121 -147 63 -160 c 1
 52 -145 l 1
 92 -110 121 -64 121 75 c 2
 121 646 l 1
 92 653 63 660 39 671 c 1
166 809 m 1
 44 752 l 1
 30 771 l 1
 157 883 l 2
 164 887 175 888 183 883 c 2
 308 774 l 1
 293 753 l 1
 166 809 l 1
EndSplineSet
Validated: 1
EndChar

StartChar: jcircumflex
Encoding: 309 309 235
Width: 288
GlyphClass: 2
Flags: MW
HStem: -212 21G<47 47> 492 20G<171 196 196 196>
VStem: 106 90<24 43 43 442 442 442>
LayerCount: 2
Fore
SplineSet
106 24 m 2
 106 442 l 1
 40 450 l 1
 40 476 l 1
 79 495 127 505 171 512 c 1
 196 512 l 1
 196 43 l 2
 196 -145 86 -202 47 -212 c 1
 35 -193 l 1
 67 -177 106 -114 106 24 c 2
144 697 m 1
 54 590 l 1
 25 606 l 1
 135 792 l 2
 142 796 153 797 160 792 c 2
 274 607 l 1
 247 590 l 1
 144 697 l 1
EndSplineSet
Validated: 1
EndChar

StartChar: Kcommaaccent
Encoding: 310 310 236
Width: 646
GlyphClass: 2
Flags: MW
HStem: -272 21G<278 278> 0 21G<29 282 29 29 521 646 521 521> 680 20G<29 282 282 282 382 603 603 603>
VStem: 111 96<53 335 53 369 369 646>
LayerCount: 2
Fore
SplineSet
382 671 m 1
 382 700 l 1
 603 700 l 1
 603 671 l 1
 576 659 551 651 527 646 c 1
 326 380 l 1
 393 291 502 156 598 49 c 1
 646 25 l 1
 646 0 l 1
 521 0 l 1
 487 24 l 1
 408 116 329 226 256 335 c 1
 207 335 l 1
 207 53 l 1
 238 48 263 40 282 29 c 1
 282 0 l 1
 29 0 l 1
 29 29 l 1
 56 40 83 48 111 53 c 1
 111 646 l 1
 81 650 54 658 29 671 c 1
 29 700 l 1
 282 700 l 1
 282 671 l 1
 261 662 235 653 207 646 c 1
 207 369 l 1
 267 383 l 1
 454 646 l 1
 427 653 403 660 382 671 c 1
278 -272 m 1
 263 -238 l 1
 287 -227 317 -202 313 -163 c 1
 298 -151 267 -138 247 -131 c 1
 234 -89 275 -47 303 -47 c 0
 348 -51 390 -81 390 -138 c 0
 390 -202 349 -253 278 -272 c 1
EndSplineSet
Validated: 33
EndChar

StartChar: kcommaaccent
Encoding: 311 311 237
Width: 516
GlyphClass: 2
Flags: MW
HStem: -271 21G<216 216> 0 21G<24 245 24 24 392 516 392 392> 480 20G<300 493 493 493> 732 20G<155 180 180 180>
VStem: 90 90<49 248 49 274 274 682 682 682>
LayerCount: 2
Fore
SplineSet
300 474 m 1
 300 500 l 1
 493 500 l 1
 493 474 l 1
 468 463 444 455 417 450 c 1
 378 397 308 320 273 285 c 1
 313 232 391 126 460 49 c 1
 516 25 l 1
 516 0 l 1
 392 0 l 1
 365 24 l 1
 294 112 252 178 213 238 c 1
 180 248 l 1
 180 49 l 1
 202 45 224 37 245 25 c 1
 245 0 l 1
 24 0 l 1
 24 25 l 1
 46 36 68 44 90 49 c 1
 90 682 l 1
 14 690 l 1
 14 716 l 1
 51 733 108 743 155 752 c 1
 180 752 l 1
 180 274 l 1
 206 274 l 1
 249 322 310 395 349 450 c 1
 332 455 316 463 300 474 c 1
216 -271 m 1
 200 -236 l 1
 241 -220 255 -190 255 -163 c 1
 240 -151 210 -137 190 -130 c 1
 177 -89 217 -47 245 -47 c 0
 289 -51 324 -81 324 -138 c 0
 324 -202 277 -256 216 -271 c 1
EndSplineSet
Validated: 33
EndChar

StartChar: Lacute
Encoding: 313 313 238
Width: 549
GlyphClass: 2
Flags: MW
HStem: 0 52<207 437 207 532> 680 20G<29 303 303 303>
VStem: 111 96<53 646 52 646>
LayerCount: 2
Fore
SplineSet
29 671 m 1
 29 700 l 1
 303 700 l 1
 303 671 l 1
 271 659 239 650 207 646 c 1
 207 52 l 1
 437 52 l 1
 496 213 l 1
 522 213 l 1
 530 157 535 58 532 0 c 1
 29 0 l 1
 29 29 l 1
 61 44 87 49 111 53 c 1
 111 646 l 1
 80 651 52 660 29 671 c 1
145 769 m 1
 291 893 l 1
 315 896 371 880 388 861 c 1
 388 841 l 1
 162 750 l 1
 145 769 l 1
EndSplineSet
Validated: 33
EndChar

StartChar: lacute
Encoding: 314 314 239
Width: 301
GlyphClass: 2
Flags: MW
HStem: 0 21G<41 263 41 41>
VStem: 107 90<49 682 682 682>
LayerCount: 2
Fore
SplineSet
263 25 m 1
 263 0 l 1
 41 0 l 1
 41 25 l 1
 63 36 85 44 107 49 c 1
 107 682 l 1
 31 690 l 1
 31 716 l 1
 66 732 123 744 172 752 c 1
 197 752 l 1
 197 49 l 1
 219 44 241 36 263 25 c 1
84 769 m 1
 230 893 l 1
 254 896 310 880 327 861 c 1
 327 841 l 1
 101 750 l 1
 84 769 l 1
EndSplineSet
Validated: 33
EndChar

StartChar: Lcommaaccent
Encoding: 315 315 240
Width: 549
GlyphClass: 2
Flags: MW
HStem: -272 21G<236 236> 0 52<207 437 207 532> 680 20G<29 303 303 303>
VStem: 111 96<53 646 52 646>
LayerCount: 2
Fore
SplineSet
29 671 m 1
 29 700 l 1
 303 700 l 1
 303 671 l 1
 271 659 239 650 207 646 c 1
 207 52 l 1
 437 52 l 1
 496 213 l 1
 522 213 l 1
 530 157 535 58 532 0 c 1
 29 0 l 1
 29 29 l 1
 61 44 87 49 111 53 c 1
 111 646 l 1
 80 651 52 660 29 671 c 1
236 -272 m 1
 221 -238 l 1
 245 -227 275 -202 271 -163 c 1
 256 -151 225 -138 205 -131 c 1
 192 -89 233 -47 261 -47 c 0
 306 -51 348 -81 348 -138 c 0
 348 -202 307 -253 236 -272 c 1
EndSplineSet
Validated: 33
EndChar

StartChar: lcommaaccent
Encoding: 316 316 241
Width: 301
GlyphClass: 2
Flags: MW
HStem: -271 21G<114 114> 0 21G<41 263 41 41> 732 20G<172 197 197 197>
VStem: 107 90<49 682 682 682>
LayerCount: 2
Fore
SplineSet
263 25 m 1
 263 0 l 1
 41 0 l 1
 41 25 l 1
 63 36 85 44 107 49 c 1
 107 682 l 1
 31 690 l 1
 31 716 l 1
 66 732 123 744 172 752 c 1
 197 752 l 1
 197 49 l 1
 219 44 241 36 263 25 c 1
114 -271 m 1
 98 -236 l 1
 139 -220 153 -190 153 -163 c 1
 138 -151 108 -137 88 -130 c 1
 75 -89 115 -47 143 -47 c 0
 187 -51 222 -81 222 -138 c 0
 222 -202 175 -256 114 -271 c 1
EndSplineSet
Validated: 33
EndChar

StartChar: Lcaron
Encoding: 317 317 242
Width: 549
GlyphClass: 2
Flags: MW
HStem: 0 52<207 437 207 532> 680 20G<29 303 303 303>
VStem: 111 96<53 646 52 646>
LayerCount: 2
Fore
SplineSet
29 671 m 1
 29 700 l 1
 303 700 l 1
 303 671 l 1
 271 659 239 650 207 646 c 1
 207 52 l 1
 437 52 l 1
 496 213 l 1
 522 213 l 1
 530 157 535 58 532 0 c 1
 29 0 l 1
 29 29 l 1
 61 44 87 49 111 53 c 1
 111 646 l 1
 80 651 52 660 29 671 c 1
362 493 m 1
 342 504 l 1
 369 564 385 643 385 696 c 1
 397 712 l 1
 419 715 470 698 489 679 c 1
 478 607 408 522 362 493 c 1
EndSplineSet
Validated: 33
EndChar

StartChar: lcaron
Encoding: 318 318 243
Width: 301
GlyphClass: 2
Flags: MW
HStem: 0 21G<41 263 41 41> 732 20G<172 197 197 197>
VStem: 107 90<49 682 682 682> 197 88<706.5 734 706.5 752>
LayerCount: 2
Fore
SplineSet
263 25 m 1xe0
 263 0 l 1
 41 0 l 1
 41 25 l 1
 63 36 85 44 107 49 c 1
 107 682 l 1
 31 690 l 1
 31 716 l 1
 66 732 123 744 172 752 c 1
 197 752 l 1
 197 49 l 1
 219 44 241 36 263 25 c 1xe0
262 532 m 1
 242 543 l 1
 270 603 285 679 285 734 c 1xd0
 297 750 l 1
 316 753 362 740 378 727 c 1
 364 651 305 572 262 532 c 1
EndSplineSet
Validated: 33
EndChar

StartChar: Lslash
Encoding: 321 321 244
Width: 549
GlyphClass: 2
Flags: MW
HStem: 0 52<207 437 207 532> 680 20G<29 303 303 303>
VStem: 17 190<210 275 275 275> 111 96<53 267 267 267 392 646> 111 231<53 476 267 476 410 476 410 646 410 646>
LayerCount: 2
Fore
SplineSet
29 671 m 1xd0
 29 700 l 1
 303 700 l 1
 303 671 l 1
 271 659 239 650 207 646 c 1
 207 392 l 1xe0
 342 476 l 1
 342 410 l 1xc8
 207 326 l 1
 207 52 l 1
 437 52 l 1
 496 213 l 1
 522 213 l 1
 530 157 535 58 532 0 c 1
 29 0 l 1
 29 29 l 1
 61 44 87 49 111 53 c 1
 111 267 l 1xd0
 17 210 l 1
 17 275 l 1xe0
 111 332 l 1
 111 646 l 1
 80 651 52 660 29 671 c 1xd0
EndSplineSet
Validated: 33
EndChar

StartChar: lslash
Encoding: 322 322 245
Width: 325
GlyphClass: 2
Flags: MW
HStem: 0 21G<53 275 53 53> 732 20G<184 209 209 209>
VStem: 24 185<229 295 295 295> 119 90<49 288 288 288 409 682 682 682> 119 182<49 466 288 466 400 466 400 682>
LayerCount: 2
Fore
SplineSet
24 229 m 1xe0
 24 295 l 1xe0
 119 353 l 1
 119 682 l 1xd0
 43 690 l 1
 43 716 l 1
 78 732 135 744 184 752 c 1
 209 752 l 1
 209 409 l 1xe0
 301 466 l 1
 301 400 l 1xc8
 209 343 l 1
 209 49 l 1
 231 44 253 36 275 25 c 1
 275 0 l 1
 53 0 l 1
 53 25 l 1
 75 36 97 44 119 49 c 1
 119 288 l 1xd0
 24 229 l 1xe0
EndSplineSet
Validated: 1
EndChar

StartChar: Nacute
Encoding: 323 323 246
Width: 732
GlyphClass: 2
Flags: MW
HStem: -12 21G<564 621 564 564> 0 21G<29 245 29 29> 680 20G<35 204 204 204 487 703 703 703>
VStem: 111 57<64 539 64 637> 564 57<-12 631 225 631 -12 631>
LayerCount: 2
Fore
SplineSet
487 671 m 1x78
 487 700 l 1
 703 700 l 1
 703 671 l 1
 675 652 648 639 621 631 c 1
 621 -12 l 1
 564 -12 l 1xb8
 201 539 l 1
 162 617 l 1
 159 617 l 1
 168 539 l 1
 168 64 l 1
 195 57 221 45 245 29 c 1
 245 0 l 1
 29 0 l 1
 29 29 l 1
 53 44 80 55 111 64 c 1
 111 637 l 1
 84 648 58 660 35 672 c 1
 35 700 l 1
 204 700 l 1
 519 225 l 1
 565 139 l 1
 569 139 l 1
 564 225 l 1
 564 631 l 1
 536 643 510 656 487 671 c 1x78
324 769 m 1
 470 893 l 1
 494 896 550 880 567 861 c 1
 567 841 l 1
 341 750 l 1
 324 769 l 1
EndSplineSet
Validated: 33
EndChar

StartChar: nacute
Encoding: 324 324 247
Width: 594
GlyphClass: 2
Flags: MW
HStem: 0 21G<31 247 31 31 362 577 362 362> 450 62<306.5 357.5> 575 21G<283 283>
VStem: 97 90<49 341 49 400 400 442 442 442> 421 90<49 286 286 302 49 336.5>
LayerCount: 2
Fore
SplineSet
577 25 m 1
 577 0 l 1
 362 0 l 1
 362 25 l 1
 380 34 400 42 421 49 c 1
 421 286 l 2
 421 387 396 450 319 450 c 0
 251 450 206 397 187 341 c 1
 187 49 l 1
 208 45 228 37 247 25 c 1
 247 0 l 1
 31 0 l 1
 31 25 l 1
 48 34 70 42 97 49 c 1
 97 442 l 1
 31 450 l 1
 31 476 l 1
 66 491 113 503 162 512 c 1
 187 512 l 1
 187 400 l 1
 188 400 l 1
 216 461 269 512 344 512 c 0
 452 512 511 467 511 302 c 2
 511 49 l 1
 538 44 560 36 577 25 c 1
261 593 m 1
 378 767 l 1
 399 770 454 758 470 745 c 1
 470 726 l 1
 283 575 l 1
 261 593 l 1
EndSplineSet
Validated: 33
EndChar

StartChar: Ncommaaccent
Encoding: 325 325 248
Width: 732
GlyphClass: 2
Flags: MW
HStem: -272 21G<325 325> -12 21G<564 621 564 564> 0 21G<29 245 29 29> 680 20G<35 204 204 204 487 703 703 703>
VStem: 111 57<64 539 64 637> 564 57<-12 631 225 631 -12 631>
LayerCount: 2
Fore
SplineSet
487 671 m 1xbc
 487 700 l 1
 703 700 l 1
 703 671 l 1
 675 652 648 639 621 631 c 1
 621 -12 l 1
 564 -12 l 1xdc
 201 539 l 1
 162 617 l 1
 159 617 l 1
 168 539 l 1
 168 64 l 1
 195 57 221 45 245 29 c 1
 245 0 l 1
 29 0 l 1
 29 29 l 1
 53 44 80 55 111 64 c 1
 111 637 l 1
 84 648 58 660 35 672 c 1
 35 700 l 1
 204 700 l 1
 519 225 l 1
 565 139 l 1
 569 139 l 1
 564 225 l 1
 564 631 l 1
 536 643 510 656 487 671 c 1xbc
325 -272 m 1
 310 -238 l 1
 334 -227 364 -202 360 -163 c 1
 345 -151 314 -138 294 -131 c 1
 281 -89 322 -47 350 -47 c 0
 395 -51 437 -81 437 -138 c 0
 437 -202 396 -253 325 -272 c 1
EndSplineSet
Validated: 33
EndChar

StartChar: ncommaaccent
Encoding: 326 326 249
Width: 594
GlyphClass: 2
Flags: MW
HStem: -271 21G<265 265> 0 21G<31 247 31 31 362 577 362 362> 450 62<306.5 357.5>
VStem: 97 90<49 341 49 400 400 442 442 442> 421 90<49 286 286 302 49 336.5>
LayerCount: 2
Fore
SplineSet
577 25 m 1
 577 0 l 1
 362 0 l 1
 362 25 l 1
 380 34 400 42 421 49 c 1
 421 286 l 2
 421 387 396 450 319 450 c 0
 251 450 206 397 187 341 c 1
 187 49 l 1
 208 45 228 37 247 25 c 1
 247 0 l 1
 31 0 l 1
 31 25 l 1
 48 34 70 42 97 49 c 1
 97 442 l 1
 31 450 l 1
 31 476 l 1
 66 491 113 503 162 512 c 1
 187 512 l 1
 187 400 l 1
 188 400 l 1
 216 461 269 512 344 512 c 0
 452 512 511 467 511 302 c 2
 511 49 l 1
 538 44 560 36 577 25 c 1
265 -271 m 1
 249 -236 l 1
 290 -220 304 -190 304 -163 c 1
 289 -151 259 -137 239 -130 c 1
 226 -89 266 -47 294 -47 c 0
 338 -51 373 -81 373 -138 c 0
 373 -202 326 -256 265 -271 c 1
EndSplineSet
Validated: 33
EndChar

StartChar: Ncaron
Encoding: 327 327 250
Width: 732
GlyphClass: 2
Flags: MW
HStem: -12 21G<564 621 564 564> 0 21G<29 245 29 29> 680 20G<35 204 204 204 487 703 703 703> 868 20G<227 252>
VStem: 111 57<64 539 64 637> 564 57<-12 631 225 631 -12 631>
LayerCount: 2
Fore
SplineSet
487 671 m 1x7c
 487 700 l 1
 703 700 l 1
 703 671 l 1
 675 652 648 639 621 631 c 1
 621 -12 l 1
 564 -12 l 1xbc
 201 539 l 1
 162 617 l 1
 159 617 l 1
 168 539 l 1
 168 64 l 1
 195 57 221 45 245 29 c 1
 245 0 l 1
 29 0 l 1
 29 29 l 1
 53 44 80 55 111 64 c 1
 111 637 l 1
 84 648 58 660 35 672 c 1
 35 700 l 1
 204 700 l 1
 519 225 l 1
 565 139 l 1
 569 139 l 1
 564 225 l 1
 564 631 l 1
 536 643 510 656 487 671 c 1x7c
369 833 m 1
 480 888 l 1
 491 888 501 880 505 871 c 1
 378 759 l 2
 371 756 360 755 352 759 c 2
 227 868 l 1
 232 877 239 888 252 888 c 1
 369 833 l 1
EndSplineSet
Validated: 1
EndChar

StartChar: ncaron
Encoding: 328 328 251
Width: 594
GlyphClass: 2
Flags: MW
HStem: 0 21G<31 247 31 31 362 577 362 362> 450 62<306.5 357.5>
VStem: 97 90<49 341 49 400 400 442 442 442> 421 90<49 286 286 302 49 336.5>
LayerCount: 2
Fore
SplineSet
577 25 m 1
 577 0 l 1
 362 0 l 1
 362 25 l 1
 380 34 400 42 421 49 c 1
 421 286 l 2
 421 387 396 450 319 450 c 0
 251 450 206 397 187 341 c 1
 187 49 l 1
 208 45 228 37 247 25 c 1
 247 0 l 1
 31 0 l 1
 31 25 l 1
 48 34 70 42 97 49 c 1
 97 442 l 1
 31 450 l 1
 31 476 l 1
 66 491 113 503 162 512 c 1
 187 512 l 1
 187 400 l 1
 188 400 l 1
 216 461 269 512 344 512 c 0
 452 512 511 467 511 302 c 2
 511 49 l 1
 538 44 560 36 577 25 c 1
304 690 m 1
 404 796 l 1
 416 797 429 789 433 780 c 1
 309 595 l 1
 302 592 292 591 284 595 c 1
 163 779 l 1
 168 790 184 797 197 796 c 1
 304 690 l 1
EndSplineSet
Validated: 33
EndChar

StartChar: Omacron
Encoding: 332 332 252
Width: 740
GlyphClass: 2
Flags: MW
HStem: -12 52<305 447 305 470> 660 52<288.5 436.5> 788 52<219 520 219 520>
VStem: 53 107<264.5 435.5 264.5 454.5> 580 107<264.5 435.5>
LayerCount: 2
Fore
SplineSet
53 350 m 0
 53 559 170 712 370 712 c 0
 570 712 687 559 687 350 c 0
 687 141 570 -12 370 -12 c 0
 170 -12 53 141 53 350 c 0
160 350 m 0
 160 179 231 40 379 40 c 0
 515 40 580 179 580 350 c 0
 580 521 511 660 362 660 c 0
 215 660 160 521 160 350 c 0
520 788 m 1
 219 788 l 1
 219 840 l 1
 520 840 l 1
 520 788 l 1
EndSplineSet
Validated: 1
EndChar

StartChar: omacron
Encoding: 333 333 253
Width: 553
GlyphClass: 2
Flags: MW
HStem: -12 44<236.5 329 236.5 348> 468 44<228.5 320> 637 52<150 403 150 403>
VStem: 41 96<189.5 324.5 189.5 333.5> 416 96<175.5 311>
LayerCount: 2
Fore
SplineSet
41 250 m 0
 41 417 134 512 276 512 c 0
 442 512 512 406 512 250 c 0
 512 82 420 -12 276 -12 c 0
 117 -12 41 92 41 250 c 0
137 250 m 0
 137 129 180 32 293 32 c 0
 365 32 416 101 416 250 c 0
 416 372 372 468 268 468 c 0
 189 468 137 399 137 250 c 0
403 637 m 1
 150 637 l 1
 150 689 l 1
 403 689 l 1
 403 637 l 1
EndSplineSet
Validated: 1
EndChar

StartChar: Ohungarumlaut
Encoding: 336 336 254
Width: 740
GlyphClass: 2
Flags: MW
HStem: -12 52<305 447 305 470> 660 52<288.5 436.5>
VStem: 53 107<264.5 435.5 264.5 454.5> 580 107<264.5 435.5>
LayerCount: 2
Fore
SplineSet
53 350 m 0
 53 559 170 712 370 712 c 0
 570 712 687 559 687 350 c 0
 687 141 570 -12 370 -12 c 0
 170 -12 53 141 53 350 c 0
160 350 m 0
 160 179 231 40 379 40 c 0
 515 40 580 179 580 350 c 0
 580 521 511 660 362 660 c 0
 215 660 160 521 160 350 c 0
255 776 m 1
 325 888 l 1
 341 891 397 877 405 864 c 1
 405 850 l 1
 274 758 l 1
 255 776 l 1
384 774 m 1
 499 888 l 1
 517 891 570 876 583 861 c 1
 582 851 l 1
 405 756 l 1
 384 774 l 1
EndSplineSet
Validated: 33
EndChar

StartChar: ohungarumlaut
Encoding: 337 337 255
Width: 553
GlyphClass: 2
Flags: MW
HStem: -12 44<236.5 329 236.5 348> 468 44<228.5 320> 598 21G<192 192 305 305>
VStem: 41 96<189.5 324.5 189.5 333.5> 416 96<175.5 311>
LayerCount: 2
Fore
SplineSet
41 250 m 0
 41 417 134 512 276 512 c 0
 442 512 512 406 512 250 c 0
 512 82 420 -12 276 -12 c 0
 117 -12 41 92 41 250 c 0
137 250 m 0
 137 129 180 32 293 32 c 0
 365 32 416 101 416 250 c 0
 416 372 372 468 268 468 c 0
 189 468 137 399 137 250 c 0
169 614 m 1
 246 768 l 1
 263 771 322 758 330 747 c 1
 330 732 l 1
 192 598 l 1
 169 614 l 1
286 616 m 1
 419 768 l 1
 438 771 491 759 504 740 c 1
 504 727 l 1
 305 598 l 1
 286 616 l 1
EndSplineSet
Validated: 33
EndChar

StartChar: OE
Encoding: 338 338 256
Width: 954
GlyphClass: 2
Flags: MW
HStem: -12 52<305 388> 0 52<580 810 580 895> 331 52<580 742 580 742> 648 52<580 797 580 580> 660 52<288.5 384>
VStem: 53 107<264.5 435.5 264.5 454.5> 484 96<59 331 383 636 636 636>
LayerCount: 2
Fore
SplineSet
895 0 m 1x76
 486 0 l 1x76
 451 -7 406 -12 370 -12 c 0
 170 -12 53 141 53 350 c 0
 53 559 170 712 370 712 c 0xae
 401 712 445 708 484 700 c 1
 876 700 l 1
 873 647 872 593 865 538 c 1
 839 538 l 1
 797 648 l 1
 580 648 l 1
 580 383 l 1
 742 383 l 1
 782 457 l 1
 806 457 l 1
 811 391 811 324 806 255 c 1
 782 255 l 1
 742 331 l 1
 580 331 l 1
 580 52 l 1
 810 52 l 1
 858 172 l 1
 884 172 l 1
 892 116 898 59 895 0 c 1x76
379 40 m 0xae
 414 40 449 44 484 59 c 1
 484 636 l 1
 449 651 406 660 362 660 c 0
 215 660 160 521 160 350 c 0
 160 179 231 40 379 40 c 0xae
EndSplineSet
Validated: 33
EndChar

StartChar: oe
Encoding: 339 339 257
Width: 876
GlyphClass: 2
Flags: MW
HStem: -12 43<236.5 309.5> -12 62<623 689.5> 250 44<514 733 514 822 511 733> 468 44<228 312 205 320.5 606 674>
VStem: 41 96<189.5 324.5 189.5 333.5> 415 96<194 250 194 311>
LayerCount: 2
Fore
SplineSet
137 250 m 0xbc
 137 129 180 31 293 31 c 0
 365 31 415 101 415 250 c 0
 415 372 373 468 268 468 c 0
 188 468 137 399 137 250 c 0xbc
463 75 m 1
 418 11 343 -12 276 -12 c 0
 117 -12 41 92 41 250 c 0
 41 417 134 512 276 512 c 0
 348 512 422 487 461 426 c 1
 496 483 572 512 640 512 c 0
 749 512 857 451 822 250 c 1
 511 250 l 1
 511 138 566 50 680 50 c 0x7c
 726 50 781 65 805 86 c 1
 820 70 l 1
 799 25 725 -12 654 -12 c 0
 582 -12 492 24 463 75 c 1
636 468 m 0
 561 468 522 423 514 294 c 1
 733 294 l 1
 742 398 712 468 636 468 c 0
EndSplineSet
Validated: 33
EndChar

StartChar: Racute
Encoding: 340 340 258
Width: 637
GlyphClass: 2
Flags: MW
HStem: 0 21G<29 292 29 29 506 506 506 627> 310 42<207 279 207 279 279 301> 656 52<267 320.5> 680 20G<29 117 117 143.5>
VStem: 111 96<53 310 53 352 352 646 646 646> 429 99<464 561.5>
LayerCount: 2
Fore
SplineSet
207 310 m 1xec
 207 53 l 1
 238 46 265 40 292 29 c 1
 292 0 l 1
 29 0 l 1
 29 29 l 1
 58 42 84 48 111 53 c 1
 111 646 l 1
 76 653 50 662 29 671 c 1
 29 700 l 1
 117 700 l 2xdc
 170 700 237 708 297 708 c 0
 429 708 528 651 528 512 c 0
 528 415 473 350 385 322 c 1
 442 231 505 142 573 54 c 1
 627 25 l 1
 627 0 l 1
 506 0 l 1
 468 28 l 1
 393 122 348 204 301 310 c 1
 207 310 l 1xec
275 656 m 0xec
 243 656 224 655 207 651 c 1
 207 352 l 1
 279 352 l 2
 371 352 429 416 429 512 c 0
 429 611 366 656 275 656 c 0xec
235 769 m 1
 381 893 l 1
 405 896 461 880 478 861 c 1
 478 841 l 1
 252 750 l 1
 235 769 l 1
EndSplineSet
Validated: 33
EndChar

StartChar: racute
Encoding: 341 341 259
Width: 384
GlyphClass: 2
Flags: MW
HStem: 0 21G<31 267 31 31> 492 20G<162 187 187 187> 575 21G<179 179>
VStem: 97 90<49 346 49 406 406 442 442 442>
LayerCount: 2
Fore
SplineSet
377 425 m 1
 244 425 l 1
 229 417 204 394 187 346 c 1
 187 49 l 1
 214 46 240 40 267 25 c 1
 267 0 l 1
 31 0 l 1
 31 25 l 1
 55 38 76 44 97 49 c 1
 97 442 l 1
 31 450 l 1
 31 476 l 1
 74 495 121 505 162 512 c 1
 187 512 l 1
 187 406 l 1
 191 406 l 1
 215 459 282 520 354 512 c 1
 363 495 370 474 377 451 c 1
 377 425 l 1
157 593 m 1
 274 767 l 1
 295 770 350 758 366 745 c 1
 366 726 l 1
 179 575 l 1
 157 593 l 1
EndSplineSet
Validated: 33
EndChar

StartChar: Rcommaaccent
Encoding: 342 342 260
Width: 637
GlyphClass: 2
Flags: MW
HStem: -272 21G<276 276> 0 21G<29 292 29 29 506 506 506 627> 310 42<207 279 207 279 279 301> 656 52<267 320.5> 680 20G<29 117 117 143.5>
VStem: 111 96<53 310 53 352 352 646 646 646> 429 99<464 561.5>
LayerCount: 2
Fore
SplineSet
207 310 m 1xf6
 207 53 l 1
 238 46 265 40 292 29 c 1
 292 0 l 1
 29 0 l 1
 29 29 l 1
 58 42 84 48 111 53 c 1
 111 646 l 1
 76 653 50 662 29 671 c 1
 29 700 l 1
 117 700 l 2xee
 170 700 237 708 297 708 c 0
 429 708 528 651 528 512 c 0
 528 415 473 350 385 322 c 1
 442 231 505 142 573 54 c 1
 627 25 l 1
 627 0 l 1
 506 0 l 1
 468 28 l 1
 393 122 348 204 301 310 c 1
 207 310 l 1xf6
275 656 m 0xf6
 243 656 224 655 207 651 c 1
 207 352 l 1
 279 352 l 2
 371 352 429 416 429 512 c 0
 429 611 366 656 275 656 c 0xf6
276 -272 m 1
 261 -238 l 1
 285 -227 315 -202 311 -163 c 1
 296 -151 265 -138 245 -131 c 1
 232 -89 273 -47 301 -47 c 0
 346 -51 388 -81 388 -138 c 0
 388 -202 347 -253 276 -272 c 1
EndSplineSet
Validated: 33
EndChar

StartChar: rcommaaccent
Encoding: 343 343 261
Width: 384
GlyphClass: 2
Flags: MW
HStem: -271 21G<125 125> 0 21G<31 267 31 31> 492 20G<162 187 187 187>
VStem: 97 90<49 346 49 406 406 442 442 442>
LayerCount: 2
Fore
SplineSet
377 425 m 1
 244 425 l 1
 229 417 204 394 187 346 c 1
 187 49 l 1
 214 46 240 40 267 25 c 1
 267 0 l 1
 31 0 l 1
 31 25 l 1
 55 38 76 44 97 49 c 1
 97 442 l 1
 31 450 l 1
 31 476 l 1
 74 495 121 505 162 512 c 1
 187 512 l 1
 187 406 l 1
 191 406 l 1
 215 459 282 520 354 512 c 1
 363 495 370 474 377 451 c 1
 377 425 l 1
125 -271 m 1
 109 -236 l 1
 150 -220 164 -190 164 -163 c 1
 149 -151 119 -137 99 -130 c 1
 86 -89 126 -47 154 -47 c 0
 198 -51 233 -81 233 -138 c 0
 233 -202 186 -256 125 -271 c 1
EndSplineSet
Validated: 33
EndChar

StartChar: Rcaron
Encoding: 344 344 262
Width: 637
GlyphClass: 2
Flags: MW
HStem: 0 21G<29 292 29 29 506 506 506 627> 310 42<207 279 207 279 279 301> 656 52<267 320.5> 680 20G<29 117 117 143.5> 868 20G<147 172>
VStem: 111 96<53 310 53 352 352 646 646 646> 429 99<464 561.5>
LayerCount: 2
Fore
SplineSet
207 310 m 1xee
 207 53 l 1
 238 46 265 40 292 29 c 1
 292 0 l 1
 29 0 l 1
 29 29 l 1
 58 42 84 48 111 53 c 1
 111 646 l 1
 76 653 50 662 29 671 c 1
 29 700 l 1
 117 700 l 2xde
 170 700 237 708 297 708 c 0
 429 708 528 651 528 512 c 0
 528 415 473 350 385 322 c 1
 442 231 505 142 573 54 c 1
 627 25 l 1
 627 0 l 1
 506 0 l 1
 468 28 l 1
 393 122 348 204 301 310 c 1
 207 310 l 1xee
275 656 m 0xee
 243 656 224 655 207 651 c 1
 207 352 l 1
 279 352 l 2
 371 352 429 416 429 512 c 0
 429 611 366 656 275 656 c 0xee
289 833 m 1
 400 888 l 1
 411 888 421 880 425 871 c 1
 298 759 l 2
 291 756 280 755 272 759 c 2
 147 868 l 1
 152 877 159 888 172 888 c 1
 289 833 l 1
EndSplineSet
Validated: 1
EndChar

StartChar: rcaron
Encoding: 345 345 263
Width: 384
GlyphClass: 2
Flags: MW
HStem: 0 21G<31 267 31 31> 492 20G<162 187 187 187>
VStem: 97 90<49 346 49 406 406 442 442 442>
LayerCount: 2
Fore
SplineSet
377 425 m 1
 244 425 l 1
 229 417 204 394 187 346 c 1
 187 49 l 1
 214 46 240 40 267 25 c 1
 267 0 l 1
 31 0 l 1
 31 25 l 1
 55 38 76 44 97 49 c 1
 97 442 l 1
 31 450 l 1
 31 476 l 1
 74 495 121 505 162 512 c 1
 187 512 l 1
 187 406 l 1
 191 406 l 1
 215 459 282 520 354 512 c 1
 363 495 370 474 377 451 c 1
 377 425 l 1
225 690 m 1
 325 796 l 1
 337 797 350 789 354 780 c 1
 230 595 l 1
 223 592 213 591 205 595 c 1
 84 779 l 1
 89 790 105 797 118 796 c 1
 225 690 l 1
EndSplineSet
Validated: 33
EndChar

StartChar: Sacute
Encoding: 346 346 264
Width: 536
GlyphClass: 2
Flags: MW
HStem: -12 52<212.5 280.5 212.5 318> 487 20G<410 436 410 410> 660 52<232 286.5>
VStem: 61 92<469.5 586 469.5 588.5> 391 93<127 247.5>
LayerCount: 2
Fore
SplineSet
109 216 m 1
 150 69 l 1
 166 53 187 40 238 40 c 0
 323 40 391 87 391 167 c 0
 391 328 61 300 61 533 c 0
 61 644 145 712 269 712 c 0
 350 712 421 698 460 679 c 1
 460 634 446 551 436 507 c 1
 410 507 l 1
 370 644 l 1
 346 655 307 660 266 660 c 0
 198 660 153 620 153 552 c 0
 153 387 484 407 484 187 c 0
 484 66 394 -12 242 -12 c 0
 158 -12 86 12 58 35 c 1
 61 80 72 171 83 216 c 1
 109 216 l 1
219 769 m 1
 365 893 l 1
 389 896 445 880 462 861 c 1
 462 841 l 1
 236 750 l 1
 219 769 l 1
EndSplineSet
Validated: 33
EndChar

StartChar: sacute
Encoding: 347 347 265
Width: 433
GlyphClass: 2
Flags: MW
HStem: -12 44<188.5 226.5 188.5 250.5> 468 44<196.5 230.5> 575 21G<184 184>
VStem: 56 90<342 413.5 342 423> 295 90<91.5 169.5>
LayerCount: 2
Fore
SplineSet
295 114 m 0
 295 225 56 224 56 387 c 0
 56 459 127 512 211 512 c 0
 283 512 323 504 366 489 c 1
 361 446 354 403 341 358 c 1
 316 358 l 1
 278 460 l 1
 262 467 241 468 220 468 c 0
 173 468 146 431 146 396 c 0
 146 288 385 284 385 135 c 0
 385 45 301 -12 200 -12 c 0
 143 -12 98 -2 46 17 c 1
 49 65 58 110 73 151 c 1
 98 151 l 1
 142 42 l 1
 157 31 180 32 197 32 c 0
 256 32 295 69 295 114 c 0
162 593 m 1
 279 767 l 1
 300 770 355 758 371 745 c 1
 371 726 l 1
 184 575 l 1
 162 593 l 1
EndSplineSet
Validated: 33
EndChar

StartChar: Scircumflex
Encoding: 348 348 266
Width: 536
GlyphClass: 2
Flags: MW
HStem: -12 52<212.5 280.5 212.5 318> 487 20G<410 436 410 410> 660 52<232 286.5>
VStem: 61 92<469.5 586 469.5 588.5> 391 93<127 247.5>
LayerCount: 2
Fore
SplineSet
109 216 m 1
 150 69 l 1
 166 53 187 40 238 40 c 0
 323 40 391 87 391 167 c 0
 391 328 61 300 61 533 c 0
 61 644 145 712 269 712 c 0
 350 712 421 698 460 679 c 1
 460 634 446 551 436 507 c 1
 410 507 l 1
 370 644 l 1
 346 655 307 660 266 660 c 0
 198 660 153 620 153 552 c 0
 153 387 484 407 484 187 c 0
 484 66 394 -12 242 -12 c 0
 158 -12 86 12 58 35 c 1
 61 80 72 171 83 216 c 1
 109 216 l 1
282 809 m 1
 160 752 l 1
 146 771 l 1
 273 883 l 2
 280 887 291 888 299 883 c 2
 424 774 l 1
 409 753 l 1
 282 809 l 1
EndSplineSet
Validated: 1
EndChar

StartChar: scircumflex
Encoding: 349 349 267
Width: 433
GlyphClass: 2
Flags: MW
HStem: -12 44<188.5 226.5 188.5 250.5> 468 44<196.5 230.5> 590 21G<122 122 315 315>
VStem: 56 90<342 413.5 342 423> 295 90<91.5 169.5>
LayerCount: 2
Fore
SplineSet
295 114 m 0
 295 225 56 224 56 387 c 0
 56 459 127 512 211 512 c 0
 283 512 323 504 366 489 c 1
 361 446 354 403 341 358 c 1
 316 358 l 1
 278 460 l 1
 262 467 241 468 220 468 c 0
 173 468 146 431 146 396 c 0
 146 288 385 284 385 135 c 0
 385 45 301 -12 200 -12 c 0
 143 -12 98 -2 46 17 c 1
 49 65 58 110 73 151 c 1
 98 151 l 1
 142 42 l 1
 157 31 180 32 197 32 c 0
 256 32 295 69 295 114 c 0
212 697 m 1
 122 590 l 1
 93 606 l 1
 203 792 l 2
 210 796 221 797 228 792 c 2
 342 607 l 1
 315 590 l 1
 212 697 l 1
EndSplineSet
Validated: 33
EndChar

StartChar: Scedilla
Encoding: 350 350 268
Width: 536
GlyphClass: 2
Flags: MW
HStem: -272 197<185 249> -116 41 -12 51<223 223> 487 20G<410 436 410 410> 660 52<232 286.5>
VStem: 61 92<469.5 586 469.5 588.5> 278 88 391 93<130.5 247.5>
LayerCount: 2
Fore
SplineSet
109 216 m 1x7f
 150 69 l 1
 166 53 187 39 238 39 c 0
 323 39 391 86 391 167 c 0
 391 328 61 300 61 533 c 0
 61 644 145 712 269 712 c 0
 350 712 421 698 460 679 c 1
 460 634 446 551 436 507 c 1
 410 507 l 1
 370 644 l 1
 346 655 307 660 266 660 c 0
 198 660 153 620 153 552 c 0
 153 387 484 407 484 187 c 0
 484 74 407 1 274 -10 c 1
 249 -75 l 1
 329 -76 366 -107 366 -154 c 0
 366 -234 262 -272 185 -272 c 1xbf
 185 -239 l 1
 238 -231 279 -211 278 -172 c 0
 277 -135 248 -120 188 -116 c 1
 223 -12 l 1
 147 -9 85 14 58 35 c 1
 61 80 72 171 83 216 c 1
 109 216 l 1x7f
EndSplineSet
Validated: 33
EndChar

StartChar: scedilla
Encoding: 351 351 269
Width: 452
GlyphClass: 2
Flags: MW
HStem: -251 183<145 202> -105 37 -11 42<179 239.5 223 223> 468 44<200.5 239.5>
VStem: 56 90<336.5 413.5> 228 80 314 90<93.5 179.5>
LayerCount: 2
Fore
SplineSet
314 114 m 0x7e
 314 245 56 203 56 387 c 0
 56 459 122 512 221 512 c 0
 293 512 342 504 385 489 c 1
 380 446 373 403 360 358 c 1
 335 358 l 1
 297 460 l 1
 281 467 250 468 229 468 c 0
 172 468 146 431 146 396 c 0
 146 277 404 303 404 138 c 0
 404 49 334 -7 223 -11 c 1
 202 -68 l 1
 275 -71 305 -96 308 -139 c 0
 311 -216 216 -254 145 -251 c 1xbe
 145 -221 l 1
 196 -214 229 -196 228 -155 c 0
 227 -122 201 -109 146 -105 c 1
 179 -11 l 1
 132 -8 88 2 46 17 c 1
 49 65 58 110 73 151 c 1
 98 151 l 1
 142 42 l 1
 157 31 188 31 207 31 c 0
 272 31 314 69 314 114 c 0x7e
EndSplineSet
Validated: 33
EndChar

StartChar: Scaron
Encoding: 352 352 270
Width: 536
GlyphClass: 2
Flags: MW
HStem: -12 52<212.5 280.5 212.5 318> 487 20G<410 436 410 410> 660 52<232 286.5> 868 20G<138 163>
VStem: 61 92<469.5 586 469.5 588.5> 391 93<127 247.5>
LayerCount: 2
Fore
SplineSet
109 216 m 1
 150 69 l 1
 166 53 187 40 238 40 c 0
 323 40 391 87 391 167 c 0
 391 328 61 300 61 533 c 0
 61 644 145 712 269 712 c 0
 350 712 421 698 460 679 c 1
 460 634 446 551 436 507 c 1
 410 507 l 1
 370 644 l 1
 346 655 307 660 266 660 c 0
 198 660 153 620 153 552 c 0
 153 387 484 407 484 187 c 0
 484 66 394 -12 242 -12 c 0
 158 -12 86 12 58 35 c 1
 61 80 72 171 83 216 c 1
 109 216 l 1
280 833 m 1
 391 888 l 1
 402 888 412 880 416 871 c 1
 289 759 l 2
 282 756 271 755 263 759 c 2
 138 868 l 1
 143 877 150 888 163 888 c 1
 280 833 l 1
EndSplineSet
Validated: 1
EndChar

StartChar: scaron
Encoding: 353 353 271
Width: 433
GlyphClass: 2
Flags: MW
HStem: -12 44<188.5 226.5 188.5 250.5> 468 44<196.5 230.5>
VStem: 56 90<342 413.5 342 423> 295 90<91.5 169.5>
LayerCount: 2
Fore
SplineSet
295 114 m 0
 295 225 56 224 56 387 c 0
 56 459 127 512 211 512 c 0
 283 512 323 504 366 489 c 1
 361 446 354 403 341 358 c 1
 316 358 l 1
 278 460 l 1
 262 467 241 468 220 468 c 0
 173 468 146 431 146 396 c 0
 146 288 385 284 385 135 c 0
 385 45 301 -12 200 -12 c 0
 143 -12 98 -2 46 17 c 1
 49 65 58 110 73 151 c 1
 98 151 l 1
 142 42 l 1
 157 31 180 32 197 32 c 0
 256 32 295 69 295 114 c 0
223 690 m 1
 323 796 l 1
 335 797 348 789 352 780 c 1
 228 595 l 1
 221 592 211 591 203 595 c 1
 82 779 l 1
 87 790 103 797 116 796 c 1
 223 690 l 1
EndSplineSet
Validated: 33
EndChar

StartChar: Tcommaaccent
Encoding: 354 354 272
Width: 619
GlyphClass: 2
Flags: MW
HStem: -272 21G<275 275> 0 21G<169 450 169 169> 485 20G<31 56 31 31 563 563 563 589> 648 52<109 262 109 109 358 358 358 511>
VStem: 262 96<53 648 53 648>
LayerCount: 2
Fore
SplineSet
450 29 m 1
 450 0 l 1
 169 0 l 1
 169 29 l 1
 198 40 227 48 262 53 c 1
 262 648 l 1
 109 648 l 1
 56 505 l 1
 31 505 l 1
 23 558 19 647 19 700 c 1
 600 700 l 1
 600 647 597 560 589 505 c 1
 563 505 l 1
 511 648 l 1
 358 648 l 1
 358 53 l 1
 393 46 422 41 450 29 c 1
275 -272 m 1
 260 -238 l 1
 284 -227 314 -202 310 -163 c 1
 295 -151 264 -138 244 -131 c 1
 231 -89 272 -47 300 -47 c 0
 345 -51 387 -81 387 -138 c 0
 387 -202 346 -253 275 -272 c 1
EndSplineSet
Validated: 33
EndChar

StartChar: tcommaaccent
Encoding: 355 355 273
Width: 371
GlyphClass: 2
Flags: MW
HStem: -271 21G<155 155> -12 62<235.5 248.5> 450 50<185 335 185 335> 611 20G<160 185 185 185>
VStem: 95 90<132 160 160 450 510 595 595 595>
LayerCount: 2
Fore
SplineSet
15 450 m 1
 15 476 l 1
 40 492 67 503 95 510 c 1
 95 595 l 1
 112 610 137 620 160 631 c 1
 185 631 l 1
 185 500 l 1
 335 500 l 1
 335 450 l 1
 185 450 l 1
 185 160 l 2
 185 80 210 50 261 50 c 0
 285 50 327 53 352 62 c 1
 359 47 l 1
 338 24 279 -12 218 -12 c 0
 138 -12 95 31 95 132 c 2
 95 450 l 1
 15 450 l 1
155 -271 m 1
 139 -236 l 1
 180 -220 194 -190 194 -163 c 1
 179 -151 149 -137 129 -130 c 1
 116 -89 156 -47 184 -47 c 0
 228 -51 263 -81 263 -138 c 0
 263 -202 216 -256 155 -271 c 1
EndSplineSet
Validated: 33
EndChar

StartChar: Tcaron
Encoding: 356 356 274
Width: 619
GlyphClass: 2
Flags: MW
HStem: 0 21G<169 450 169 169> 485 20G<31 56 31 31 563 563 563 589> 648 52<109 262 109 109 358 358 358 511> 868 20G<171 196>
VStem: 262 96<53 648 53 648>
LayerCount: 2
Fore
SplineSet
450 29 m 1
 450 0 l 1
 169 0 l 1
 169 29 l 1
 198 40 227 48 262 53 c 1
 262 648 l 1
 109 648 l 1
 56 505 l 1
 31 505 l 1
 23 558 19 647 19 700 c 1
 600 700 l 1
 600 647 597 560 589 505 c 1
 563 505 l 1
 511 648 l 1
 358 648 l 1
 358 53 l 1
 393 46 422 41 450 29 c 1
313 833 m 1
 424 888 l 1
 435 888 445 880 449 871 c 1
 322 759 l 2
 315 756 304 755 296 759 c 2
 171 868 l 1
 176 877 183 888 196 888 c 1
 313 833 l 1
EndSplineSet
Validated: 1
EndChar

StartChar: tcaron
Encoding: 357 357 275
Width: 371
GlyphClass: 2
Flags: MW
HStem: -12 62<235.5 248.5> 450 50<185 335 185 335>
VStem: 95 90<132 160 160 450 510 595 595 595>
LayerCount: 2
Fore
SplineSet
15 450 m 1
 15 476 l 1
 40 492 67 503 95 510 c 1
 95 595 l 1
 112 610 137 620 160 631 c 1
 185 631 l 1
 185 500 l 1
 335 500 l 1
 335 450 l 1
 185 450 l 1
 185 160 l 2
 185 80 210 50 261 50 c 0
 285 50 327 53 352 62 c 1
 359 47 l 1
 338 24 279 -12 218 -12 c 0
 138 -12 95 31 95 132 c 2
 95 450 l 1
 15 450 l 1
253 532 m 1
 233 543 l 1
 261 603 276 679 276 734 c 1
 288 750 l 1
 307 753 353 740 369 727 c 1
 355 651 296 572 253 532 c 1
EndSplineSet
Validated: 33
EndChar

StartChar: Umacron
Encoding: 362 362 276
Width: 672
GlyphClass: 2
Flags: MW
HStem: -9 60<306 413.5 306 419.5> 680 20G<10 264 264 264 449 662 662 662> 788 52<205 506 205 506>
VStem: 92 96<221 237 237 646> 528 56<238 637>
LayerCount: 2
Fore
SplineSet
10 671 m 1
 10 700 l 1
 264 700 l 1
 264 671 l 1
 239 660 213 653 188 646 c 1
 188 237 l 2
 188 97 251 51 361 51 c 0
 466 51 528 105 528 238 c 2
 528 637 l 1
 497 648 470 659 449 671 c 1
 449 700 l 1
 662 700 l 1
 662 671 l 1
 637 656 611 644 584 637 c 1
 584 236 l 2
 584 66 490 -9 349 -9 c 0
 182 -9 92 65 92 221 c 2
 92 646 l 1
 65 650 37 658 10 671 c 1
506 788 m 1
 205 788 l 1
 205 840 l 1
 506 840 l 1
 506 788 l 1
EndSplineSet
Validated: 1
EndChar

StartChar: umacron
Encoding: 363 363 277
Width: 574
GlyphClass: 2
Flags: MW
HStem: -12 62<228.5 282.5> -10 21G<404 429 404 404> 492 20G<148 173 173 173 458 483 483 483> 637 52<160 413 160 413>
VStem: 77 90<164 240> 393 90<109 109 167 442 442 442>
LayerCount: 2
Fore
SplineSet
77 198 m 0xac
 77 282 83 362 83 442 c 1
 17 450 l 1
 17 476 l 1
 60 492 105 504 148 512 c 1
 173 512 l 1
 173 412 167 313 167 216 c 0
 167 112 187 50 270 50 c 0xac
 330 50 370 98 393 167 c 1
 393 442 l 1
 328 450 l 1
 328 476 l 1
 369 492 415 504 458 512 c 1
 483 512 l 1
 483 57 l 1
 549 49 l 1
 549 28 l 1
 510 11 472 -3 429 -10 c 1
 404 -10 l 1x6c
 397 109 l 1
 393 109 l 1
 380 53 323 -12 242 -12 c 0
 136 -12 77 33 77 198 c 0xac
413 637 m 1x10
 160 637 l 1
 160 689 l 1
 413 689 l 1
 413 637 l 1x10
EndSplineSet
Validated: 1
EndChar

StartChar: Ubreve
Encoding: 364 364 278
Width: 672
GlyphClass: 2
Flags: MW
HStem: -9 60<306 413.5 306 419.5> 680 20G<10 264 264 264 449 662 662 662> 759 70<330.5 351 330.5 383.5>
VStem: 92 96<221 237 237 646> 528 56<238 637>
LayerCount: 2
Fore
SplineSet
10 671 m 1
 10 700 l 1
 264 700 l 1
 264 671 l 1
 239 660 213 653 188 646 c 1
 188 237 l 2
 188 97 251 51 361 51 c 0
 466 51 528 105 528 238 c 2
 528 637 l 1
 497 648 470 659 449 671 c 1
 449 700 l 1
 662 700 l 1
 662 671 l 1
 637 656 611 644 584 637 c 1
 584 236 l 2
 584 66 490 -9 349 -9 c 0
 182 -9 92 65 92 221 c 2
 92 646 l 1
 65 650 37 658 10 671 c 1
466 883 m 1
 477 884 487 880 498 869 c 1
 474 810 417 759 350 759 c 0
 278 759 221 799 196 871 c 1
 204 884 218 889 238 886 c 1
 257 854 310 829 351 829 c 0
 394 828 439 842 466 883 c 1
EndSplineSet
Validated: 33
EndChar

StartChar: ubreve
Encoding: 365 365 279
Width: 574
GlyphClass: 2
Flags: MW
HStem: -12 62<228.5 282.5> -10 21G<404 429 404 404> 492 20G<148 173 173 173 458 483 483 483> 597 72<267.5 288 267.5 320.5> 714 20G<177 177>
VStem: 77 90<164 240> 393 90<109 109 167 442 442 442>
LayerCount: 2
Fore
SplineSet
77 198 m 0xa6
 77 282 83 362 83 442 c 1
 17 450 l 1
 17 476 l 1
 60 492 105 504 148 512 c 1
 173 512 l 1
 173 412 167 313 167 216 c 0
 167 112 187 50 270 50 c 0xa6
 330 50 370 98 393 167 c 1
 393 442 l 1
 328 450 l 1
 328 476 l 1
 369 492 415 504 458 512 c 1
 483 512 l 1
 483 57 l 1
 549 49 l 1
 549 28 l 1
 510 11 472 -3 429 -10 c 1
 404 -10 l 1x66
 397 109 l 1
 393 109 l 1
 380 53 323 -12 242 -12 c 0
 136 -12 77 33 77 198 c 0xa6
397 730 m 1x18
 421 719 l 1
 397 660 354 597 287 597 c 0
 217 597 173 650 149 721 c 1
 177 734 l 1
 195 700 247 669 288 669 c 0
 333 668 370 688 397 730 c 1x18
EndSplineSet
Validated: 33
EndChar

StartChar: Uring
Encoding: 366 366 280
Width: 672
GlyphClass: 2
Flags: MW
HStem: -9 60<306 413.5 306 419.5> 680 20G<10 264 264 264 449 662 662 662> 709 41<342.5 372.5 342.5 388.5> 833 41<341.5 370.5>
VStem: 92 96<221 237 237 646> 245 56<774.5 805.5 774.5 814.5> 413 56<774.5 804.5> 528 56<238 637>
LayerCount: 2
Fore
SplineSet
10 671 m 1
 10 700 l 1
 264 700 l 1
 264 671 l 1
 239 660 213 653 188 646 c 1
 188 237 l 2
 188 97 251 51 361 51 c 0
 466 51 528 105 528 238 c 2
 528 637 l 1
 497 648 470 659 449 671 c 1
 449 700 l 1
 662 700 l 1
 662 671 l 1
 637 656 611 644 584 637 c 1
 584 236 l 2
 584 66 490 -9 349 -9 c 0
 182 -9 92 65 92 221 c 2
 92 646 l 1
 65 650 37 658 10 671 c 1
245 788 m 0
 245 841 297 874 360 874 c 0
 412 874 469 849 469 791 c 0
 469 739 418 709 359 709 c 0
 291 709 245 737 245 788 c 0
301 788 m 0
 301 761 330 750 355 750 c 0
 390 750 413 762 413 787 c 0
 413 822 383 833 358 833 c 0
 325 833 301 823 301 788 c 0
EndSplineSet
Validated: 1
EndChar

StartChar: uring
Encoding: 367 367 281
Width: 574
GlyphClass: 2
Flags: MW
HStem: -12 62<228.5 282.5> -10 21G<404 429 404 404> 492 20G<148 173 173 173 458 483 483 483> 593 41<274.5 299.5 274.5 313.5> 739 41<271 300.5>
VStem: 77 90<164 240> 190 52<667.5 701 667.5 710.5> 331 53<665.5 700> 393 90<109 109 167 442 442 442>
LayerCount: 2
Fore
SplineSet
77 198 m 0xa480
 77 282 83 362 83 442 c 1
 17 450 l 1
 17 476 l 1
 60 492 105 504 148 512 c 1
 173 512 l 1
 173 412 167 313 167 216 c 0
 167 112 187 50 270 50 c 0xa480
 330 50 370 98 393 167 c 1
 393 442 l 1
 328 450 l 1
 328 476 l 1
 369 492 415 504 458 512 c 1
 483 512 l 1
 483 57 l 1
 549 49 l 1
 549 28 l 1
 510 11 472 -3 429 -10 c 1
 404 -10 l 1x6480
 397 109 l 1
 393 109 l 1
 380 53 323 -12 242 -12 c 0
 136 -12 77 33 77 198 c 0xa480
190 683 m 0x1b
 190 738 233 780 290 780 c 0
 342 780 384 745 384 686 c 0
 384 631 338 593 289 593 c 0
 229 593 190 627 190 683 c 0x1b
242 685 m 0
 242 650 263 634 286 634 c 0
 313 634 331 649 331 682 c 0
 331 718 314 739 287 739 c 0
 255 739 242 717 242 685 c 0
EndSplineSet
Validated: 1
EndChar

StartChar: Uhungarumlaut
Encoding: 368 368 282
Width: 672
GlyphClass: 2
Flags: MW
HStem: -9 60<306 413.5 306 419.5> 680 20G<10 264 264 264 449 662 662 662>
VStem: 92 96<221 237 237 646> 528 56<238 637>
LayerCount: 2
Fore
SplineSet
10 671 m 1
 10 700 l 1
 264 700 l 1
 264 671 l 1
 239 660 213 653 188 646 c 1
 188 237 l 2
 188 97 251 51 361 51 c 0
 466 51 528 105 528 238 c 2
 528 637 l 1
 497 648 470 659 449 671 c 1
 449 700 l 1
 662 700 l 1
 662 671 l 1
 637 656 611 644 584 637 c 1
 584 236 l 2
 584 66 490 -9 349 -9 c 0
 182 -9 92 65 92 221 c 2
 92 646 l 1
 65 650 37 658 10 671 c 1
239 776 m 1
 309 888 l 1
 325 891 381 877 389 864 c 1
 389 850 l 1
 258 758 l 1
 239 776 l 1
368 774 m 1
 483 888 l 1
 501 891 554 876 567 861 c 1
 566 851 l 1
 389 756 l 1
 368 774 l 1
EndSplineSet
Validated: 33
EndChar

StartChar: uhungarumlaut
Encoding: 369 369 283
Width: 574
GlyphClass: 2
Flags: MW
HStem: -12 62<228.5 282.5> -10 21G<404 429 404 404> 492 20G<148 173 173 173 458 483 483 483> 598 21G<192 192 305 305>
VStem: 77 90<164 240> 393 90<109 109 167 442 442 442>
LayerCount: 2
Fore
SplineSet
77 198 m 0xac
 77 282 83 362 83 442 c 1
 17 450 l 1
 17 476 l 1
 60 492 105 504 148 512 c 1
 173 512 l 1
 173 412 167 313 167 216 c 0
 167 112 187 50 270 50 c 0xac
 330 50 370 98 393 167 c 1
 393 442 l 1
 328 450 l 1
 328 476 l 1
 369 492 415 504 458 512 c 1
 483 512 l 1
 483 57 l 1
 549 49 l 1
 549 28 l 1
 510 11 472 -3 429 -10 c 1
 404 -10 l 1x6c
 397 109 l 1
 393 109 l 1
 380 53 323 -12 242 -12 c 0
 136 -12 77 33 77 198 c 0xac
169 614 m 1x10
 246 768 l 1
 263 771 322 758 330 747 c 1
 330 732 l 1
 192 598 l 1
 169 614 l 1x10
286 616 m 1
 419 768 l 1
 438 771 491 759 504 740 c 1
 504 727 l 1
 305 598 l 1
 286 616 l 1
EndSplineSet
Validated: 33
EndChar

StartChar: Uogonek
Encoding: 370 370 284
Width: 672
GlyphClass: 2
Flags: MW
HStem: -251 52<384.5 392> -9 60<306 352.5> 680 20G<10 264 264 264 449 662 662 662>
VStem: 92 96<221 237 237 646> 257 82<-153.5 -120> 528 56<238 637>
LayerCount: 2
Fore
SplineSet
10 671 m 1
 10 700 l 1
 264 700 l 1
 264 671 l 1
 239 660 213 653 188 646 c 1
 188 237 l 2
 188 97 251 51 361 51 c 0
 466 51 528 105 528 238 c 2
 528 637 l 1
 497 648 470 659 449 671 c 1
 449 700 l 1
 662 700 l 1
 662 671 l 1
 637 656 611 644 584 637 c 1
 584 236 l 2
 584 112 536 40 455 8 c 1
 392 -24 339 -72 339 -135 c 0
 339 -172 363 -199 406 -199 c 0
 427 -199 445 -197 461 -193 c 1
 461 -222 l 1
 442 -237 414 -251 370 -251 c 0
 309 -251 257 -212 257 -152 c 0
 257 -88 302 -47 370 -8 c 1
 363 -9 356 -9 349 -9 c 0
 182 -9 92 65 92 221 c 2
 92 646 l 1
 65 650 37 658 10 671 c 1
EndSplineSet
Validated: 1
EndChar

StartChar: uogonek
Encoding: 371 371 285
Width: 574
GlyphClass: 2
Flags: MW
HStem: -222 44<448 458> -12 62<237.5 284> -10 21G<404 412 404 404 412 420> 492 20G<160 173 173 173 458 483 483 483>
VStem: 77 90<164 240> 327 83<-131.5 -107.5> 393 90<109 109 167 442 442 442>
LayerCount: 2
Fore
SplineSet
77 198 m 0xbc
 77 282 83 362 83 442 c 1
 17 450 l 1
 17 476 l 1
 60 492 117 512 160 512 c 2
 173 512 l 1
 173 412 167 313 167 216 c 0
 167 112 187 50 270 50 c 0
 330 50 370 98 393 167 c 1
 393 442 l 1
 328 450 l 1
 328 476 l 1
 369 492 415 504 458 512 c 1
 483 512 l 1
 483 57 l 1xda
 549 49 l 1
 549 28 l 1
 502 8 l 1
 449 -21 410 -62 410 -118 c 0
 410 -145 428 -178 468 -178 c 0
 488 -178 503 -174 522 -169 c 1
 522 -202 l 1
 503 -213 470 -222 446 -222 c 0
 367 -222 327 -185 327 -134 c 0
 327 -81 364 -41 420 -10 c 1
 412 -10 l 1
 404 -10 l 1xbc
 397 109 l 1
 393 109 l 1
 380 55 324 -12 244 -12 c 0xda
 231 -12 218 -13 206 -10 c 0
 122 1 77 53 77 198 c 0xbc
EndSplineSet
Validated: 33
EndChar

